<svg width="300" height="202" viewBox="0 0 300 202" fill="none" xmlns="http://www.w3.org/2000/svg">
<path d="M177.958 26.0999C159.048 15.1749 133.841 9.15625 106.985 9.15625C80.3879 9.15625 55.4789 15.0756 36.8469 25.8218C19.0094 36.1111 9.19678 49.5588 9.19678 63.6619C9.19678 65.2709 9.33577 72.541 9.57413 74.1102C11.5208 61.7749 21.0355 50.1746 36.8469 41.0373C55.4789 30.2911 80.3879 24.3717 106.985 24.3717C133.841 24.3717 159.048 30.3904 177.958 41.3154C194.047 50.6115 203.701 62.3708 205.688 74.865C205.946 73.2759 206.065 66.0257 206.065 64.4167C206.065 50.1745 196.074 36.568 177.958 26.0999Z" fill="url(#paint0_linear_995_3172)"/>
<path opacity="0.5" d="M106.985 12.2559C80.3879 12.2559 55.4789 18.1752 36.8469 28.9214C19.0094 39.2107 9.19678 52.6584 9.19678 66.7616C9.19678 81.0038 19.1882 94.6302 37.3038 105.098C56.2139 116.023 81.4208 122.042 108.276 122.042C134.874 122.042 159.783 116.123 178.415 105.376C196.252 95.087 206.065 81.6394 206.065 67.5362C206.065 53.294 196.074 39.6676 177.958 29.1995C159.028 18.2745 133.821 12.2559 106.985 12.2559Z" fill="url(#paint1_radial_995_3172)"/>
<path d="M106.985 12.2559C80.3879 12.2559 55.4789 18.1752 36.8469 28.9214C19.0094 39.2107 9.19678 52.6584 9.19678 66.7616C9.19678 81.0038 19.1882 94.6302 37.3038 105.098C56.2139 116.023 81.4208 122.042 108.276 122.042C134.874 122.042 159.783 116.123 178.415 105.376C196.252 95.087 206.065 81.6394 206.065 67.5362C206.065 53.294 196.074 39.6676 177.958 29.1995C159.028 18.2745 133.821 12.2559 106.985 12.2559Z" fill="url(#paint2_radial_995_3172)"/>
<path d="M108.276 128.12C79.8516 128.12 53.0159 121.665 32.7153 109.945C11.64 97.7687 0.0197754 81.3415 0.0197754 63.6827C0.0197754 46.163 11.4612 29.8947 32.2584 17.8971C52.2611 6.35637 78.7988 0 106.985 0C135.41 0 162.246 6.45566 182.546 18.1752C203.622 30.3516 215.242 46.7788 215.242 64.4375C215.242 81.9572 203.801 98.2255 183.003 110.223C163.001 121.764 136.463 128.12 108.276 128.12ZM106.985 9.15715C80.3879 9.15715 55.479 15.0765 36.8469 25.8227C19.0094 36.112 9.19681 49.5597 9.19681 63.6628C9.19681 77.905 19.1882 91.5315 37.3038 102C56.2139 112.925 81.4208 118.943 108.276 118.943C134.874 118.943 159.783 113.024 178.415 102.278C196.252 91.9883 206.065 78.5407 206.065 64.4375C206.065 50.1953 196.074 36.5689 177.958 26.1008C159.028 15.1758 133.821 9.15715 106.985 9.15715Z" fill="url(#paint3_linear_995_3172)"/>
<path d="M69.5822 87.5414C48.1097 75.1466 48.0104 55.0446 69.3439 42.7292C71.4097 41.5373 73.6145 40.4647 75.9187 39.4914L62.63 28.5664C50.97 33.2741 42.9054 38.8359 36.9066 46.2847C18.93 68.671 35.8737 95.3478 74.7468 105.876L84.5196 93.6992C79.1366 92.1697 74.0714 90.1237 69.5822 87.5414Z" fill="url(#paint4_linear_995_3172)"/>
<path d="M184.593 61.5586L162.902 62.6114C164.252 71.5897 159.028 80.8263 147.189 87.6793C139.899 91.8904 131.06 94.6514 121.685 95.9624L127.624 108.635C164.371 102.994 188.029 83.4483 184.593 61.5586Z" fill="url(#paint5_linear_995_3172)"/>
<path d="M146.971 42.8664C156.525 48.3885 161.829 55.4202 162.921 62.6108L184.612 61.5581C182.904 50.6132 175.535 41.5356 162.028 33.749L146.594 42.6479C146.713 42.7274 146.832 42.787 146.971 42.8664Z" fill="url(#paint6_linear_995_3172)"/>
<path d="M146.594 42.6487L162.028 33.7498C135.033 18.1767 93.7364 16.0116 62.6499 28.5455L75.9387 39.4705C97.1927 30.5915 127.207 31.6641 146.594 42.6487Z" fill="url(#paint7_linear_995_3172)"/>
<path d="M104.443 39.868L106.747 54.5274C111.971 54.289 117.354 55.3417 121.347 57.6459C123.989 59.1754 125.657 61.0426 126.392 62.9892L151.003 59.2152C149.136 54.8253 145.243 50.6738 139.323 47.2573C129.749 41.7551 116.917 39.292 104.443 39.868Z" fill="url(#paint8_linear_995_3172)"/>
<path d="M121.426 72.7815C114.196 76.9529 102.457 76.933 95.2064 72.7418C94.6503 72.424 94.1338 72.0665 93.6571 71.7288L72.8003 80.131C74.1312 81.1639 75.6011 82.177 77.2299 83.1106C94.4516 93.0622 122.38 93.102 139.502 83.2298C143.038 81.1838 145.839 78.8796 147.905 76.3967L124.783 70.1396C123.929 71.0931 122.817 71.987 121.426 72.7815Z" fill="url(#paint9_linear_995_3172)"/>
<path d="M94.7695 57.8233L76.6936 47.375C61.5377 56.3335 60.2466 70.238 72.8004 80.1301L93.6571 71.7278C88.0953 67.5962 88.4529 61.6768 94.7695 57.8233Z" fill="url(#paint10_linear_995_3172)"/>
<path d="M95.1268 57.6054C98.3645 55.7382 102.496 54.7252 106.747 54.5265L104.443 39.8672C94.4316 40.3241 84.6586 42.7474 77.0509 47.1571C76.9317 47.2167 76.8125 47.2962 76.6934 47.3756L94.7693 57.8239C94.8884 57.7444 95.0076 57.665 95.1268 57.6054Z" fill="url(#paint11_linear_995_3172)"/>
<path d="M215.182 66.3645C214.368 83.1493 203.026 98.6627 183.003 110.223C163.001 121.764 136.463 128.12 108.276 128.12C79.8516 128.12 53.0159 121.665 32.7153 109.945C12.0373 98.0073 0.496521 81.9773 0.0396584 64.7158V79.0772L0.0197754 79.3156C0.198548 96.8154 11.7791 113.104 32.7153 125.181C53.0159 136.9 79.8317 143.356 108.276 143.356C136.463 143.356 163.001 137 183.003 125.459C203.284 113.759 214.666 97.9874 215.222 80.9643L215.202 80.6862V66.3645H215.182Z" fill="url(#paint12_linear_995_3172)"/>
<path d="M177.958 25.0091C159.048 14.0841 133.841 8.06543 106.985 8.06543C80.3879 8.06543 55.4789 13.9848 36.8469 24.731C19.0094 35.0204 9.19678 48.468 9.19678 62.5712C9.19678 62.8294 9.2166 63.0678 9.2166 63.326C9.55428 49.5009 19.347 36.3512 36.8469 26.2406C55.4789 15.4944 80.3879 9.57508 106.985 9.57508C133.841 9.57508 159.048 15.5938 177.958 26.5187C195.756 36.8081 205.707 50.1167 206.045 64.0808C206.045 63.8226 206.065 63.5644 206.065 63.326C206.065 49.0838 196.074 35.4772 177.958 25.0091Z" fill="url(#paint13_radial_995_3172)"/>
<path d="M182.984 109.131C162.981 120.672 136.443 127.028 108.257 127.028C79.8318 127.028 52.9961 120.573 32.6955 108.853C11.9181 96.8555 0.33764 80.7264 0.0198224 63.3457C0.0198224 63.6039 0 63.8621 0 64.1005C0 81.7592 11.6202 98.2063 32.6955 110.363C52.9961 122.082 79.812 128.538 108.257 128.538C136.443 128.538 162.981 122.182 182.984 110.641C203.781 98.6433 215.222 82.375 215.222 64.8553C215.222 64.5971 215.202 64.3587 215.202 64.1005C214.884 81.3421 203.483 97.3124 182.984 109.131Z" fill="url(#paint14_radial_995_3172)"/>
<path d="M171.423 125.219C171.423 127.026 172.039 128.317 173.072 128.933C173.112 128.953 187.433 137.177 187.473 137.197C188.526 137.792 187.85 136.442 189.459 135.528C192.697 133.661 195.319 129.132 195.319 125.437C195.319 123.61 197.007 123.59 195.975 122.974C195.955 122.954 181.395 114.691 181.375 114.691C180.322 114.115 178.872 114.234 177.283 115.148C174.045 116.995 171.423 121.504 171.423 125.219Z" fill="url(#paint15_linear_995_3172)"/>
<path d="M185.983 133.542C185.983 137.257 188.605 138.747 191.843 136.879C195.081 135.012 197.703 130.483 197.703 126.789C197.703 123.074 195.081 121.584 191.843 123.452C188.605 125.299 185.983 129.828 185.983 133.542Z" fill="url(#paint16_linear_995_3172)"/>
<path d="M191.545 123.294C193.094 122.4 194.504 122.281 195.557 122.797C194.584 122.519 193.372 122.738 192.061 123.492C188.823 125.36 186.201 129.888 186.201 133.583C186.201 135.51 186.916 136.841 188.049 137.417C186.618 137.019 185.685 135.589 185.685 133.384C185.685 129.69 188.307 125.161 191.545 123.294Z" fill="url(#paint17_radial_995_3172)"/>
<path d="M183.957 137.676C183.957 140.934 185.089 143.258 186.916 144.37C186.976 144.41 281.606 201.28 281.646 201.319C283.553 202.392 282.341 199.969 285.221 198.3C291.041 194.943 295.749 186.799 295.749 180.125C295.749 176.828 298.808 176.788 296.941 175.695C296.881 175.656 201.894 118.727 201.834 118.707C199.927 117.674 197.345 117.872 194.485 119.521C188.664 122.858 183.957 131.002 183.957 137.676Z" fill="url(#paint18_linear_995_3172)"/>
<path d="M278.944 194.706C278.944 201.38 283.672 204.082 289.472 200.705C295.292 197.348 300 189.204 300 182.53C300 175.856 295.272 173.154 289.472 176.531C283.672 179.888 278.944 188.032 278.944 194.706Z" fill="url(#paint19_linear_995_3172)"/>
<path d="M288.976 176.293C291.757 174.684 294.299 174.466 296.186 175.399C294.438 174.903 292.253 175.28 289.889 176.631C284.069 179.988 279.362 188.132 279.362 194.806C279.362 198.282 280.633 200.666 282.699 201.699C280.116 200.983 278.468 198.421 278.468 194.448C278.448 187.774 283.156 179.65 288.976 176.293Z" fill="url(#paint20_radial_995_3172)"/>
<defs>
<linearGradient id="paint0_linear_995_3172" x1="208.203" y1="42.0182" x2="1.49983" y2="42.0182" gradientUnits="userSpaceOnUse">
<stop stop-color="#B9BFEA"/>
<stop offset="0.2475" stop-color="#E5E9FF"/>
<stop offset="0.702" stop-color="#AFB6E5"/>
<stop offset="0.9464" stop-color="#BAC0EA"/>
<stop offset="1" stop-color="#BDC3EC"/>
</linearGradient>
<radialGradient id="paint1_radial_995_3172" cx="0" cy="0" r="1" gradientUnits="userSpaceOnUse" gradientTransform="translate(106.547 47.7176) scale(102.692 102.692)">
<stop offset="0.00505051" stop-color="#B0FBFF"/>
<stop offset="1" stop-color="#5277F7"/>
</radialGradient>
<radialGradient id="paint2_radial_995_3172" cx="0" cy="0" r="1" gradientUnits="userSpaceOnUse" gradientTransform="translate(106.547 47.7176) scale(102.692 102.692)">
<stop offset="0.5" stop-color="#FDFEFF"/>
<stop offset="0.6034" stop-color="#F5FBFF"/>
<stop offset="0.7613" stop-color="#E0F1FF"/>
<stop offset="0.9533" stop-color="#BEE1FF"/>
<stop offset="1" stop-color="#B4DDFF"/>
</radialGradient>
<linearGradient id="paint3_linear_995_3172" x1="59.5633" y1="-114.464" x2="126.53" y2="134.268" gradientUnits="userSpaceOnUse">
<stop stop-color="#AFB6E5"/>
<stop offset="0.1449" stop-color="#B6BCE8"/>
<stop offset="0.3485" stop-color="#C8CDF1"/>
<stop offset="0.5808" stop-color="#E5E9FF"/>
<stop offset="0.9546" stop-color="#F5F4FC"/>
<stop offset="1" stop-color="#F7F6FB"/>
</linearGradient>
<linearGradient id="paint4_linear_995_3172" x1="56.4539" y1="97.8155" x2="58.9282" y2="31.0144" gradientUnits="userSpaceOnUse">
<stop offset="0.0354" stop-color="#836DF3"/>
<stop offset="0.3625" stop-color="#926DF3"/>
<stop offset="0.9939" stop-color="#BB6DF3"/>
<stop offset="1" stop-color="#BB6DF3"/>
</linearGradient>
<linearGradient id="paint5_linear_995_3172" x1="178.724" y1="65.0143" x2="131.221" y2="107.074" gradientUnits="userSpaceOnUse">
<stop offset="0.0101" stop-color="#5277F7"/>
<stop offset="0.904" stop-color="#836DF3"/>
</linearGradient>
<linearGradient id="paint6_linear_995_3172" x1="156.241" y1="36.2808" x2="176.529" y2="64.4858" gradientUnits="userSpaceOnUse">
<stop offset="0.0354" stop-color="#00C7C5"/>
<stop offset="0.2335" stop-color="#0FC8CE"/>
<stop offset="0.6167" stop-color="#38CAE5"/>
<stop offset="1" stop-color="#66CCFF"/>
</linearGradient>
<linearGradient id="paint7_linear_995_3172" x1="162.343" y1="35.1589" x2="64.8631" y2="27.7367" gradientUnits="userSpaceOnUse">
<stop offset="0.0354" stop-color="#2BE9A3"/>
<stop offset="0.1902" stop-color="#3AEB9B"/>
<stop offset="0.4903" stop-color="#63EF85"/>
<stop offset="0.9023" stop-color="#A4F562"/>
<stop offset="1" stop-color="#B4F759"/>
</linearGradient>
<linearGradient id="paint8_linear_995_3172" x1="107.477" y1="44.6792" x2="145.578" y2="60.0189" gradientUnits="userSpaceOnUse">
<stop offset="0.0101" stop-color="#5277F7"/>
<stop offset="0.904" stop-color="#836DF3"/>
</linearGradient>
<linearGradient id="paint9_linear_995_3172" x1="139.957" y1="80.3732" x2="84.5367" y2="80.3732" gradientUnits="userSpaceOnUse">
<stop offset="0.0354" stop-color="#836DF3"/>
<stop offset="0.3625" stop-color="#926DF3"/>
<stop offset="0.9939" stop-color="#BB6DF3"/>
<stop offset="1" stop-color="#BB6DF3"/>
</linearGradient>
<linearGradient id="paint10_linear_995_3172" x1="76.378" y1="47.1915" x2="82.8106" y2="77.8704" gradientUnits="userSpaceOnUse">
<stop offset="0.0354" stop-color="#2BE9A3"/>
<stop offset="0.1902" stop-color="#3AEB9B"/>
<stop offset="0.4903" stop-color="#63EF85"/>
<stop offset="0.9023" stop-color="#A4F562"/>
<stop offset="1" stop-color="#B4F759"/>
</linearGradient>
<linearGradient id="paint11_linear_995_3172" x1="87.2967" y1="53.4975" x2="97.4815" y2="35.8576" gradientUnits="userSpaceOnUse">
<stop offset="0.0354" stop-color="#00C7C5"/>
<stop offset="0.2335" stop-color="#0FC8CE"/>
<stop offset="0.6167" stop-color="#38CAE5"/>
<stop offset="1" stop-color="#66CCFF"/>
</linearGradient>
<linearGradient id="paint12_linear_995_3172" x1="0.0285154" y1="104.037" x2="215.206" y2="104.037" gradientUnits="userSpaceOnUse">
<stop stop-color="#B9BFEA"/>
<stop offset="0.1061" stop-color="#E5E9FF"/>
<stop offset="0.1717" stop-color="white"/>
<stop offset="0.404" stop-color="#DFE3FC"/>
<stop offset="0.702" stop-color="#AFB6E5"/>
<stop offset="0.9464" stop-color="#BAC0EA"/>
<stop offset="1" stop-color="#BDC3EC"/>
</linearGradient>
<radialGradient id="paint13_radial_995_3172" cx="0" cy="0" r="1" gradientUnits="userSpaceOnUse" gradientTransform="translate(149.581 28.115) scale(72.3682 72.3682)">
<stop stop-color="white"/>
<stop offset="1"/>
</radialGradient>
<radialGradient id="paint14_radial_995_3172" cx="0" cy="0" r="1" gradientUnits="userSpaceOnUse" gradientTransform="translate(68.0354 113.092) scale(79.5043 79.5043)">
<stop stop-color="white"/>
<stop offset="1"/>
</radialGradient>
<linearGradient id="paint15_linear_995_3172" x1="187.803" y1="117.957" x2="177.431" y2="135.194" gradientUnits="userSpaceOnUse">
<stop stop-color="#B9BFEA"/>
<stop offset="0.1061" stop-color="#E5E9FF"/>
<stop offset="0.1717" stop-color="white"/>
<stop offset="0.404" stop-color="#DFE3FC"/>
<stop offset="0.702" stop-color="#AFB6E5"/>
<stop offset="0.9464" stop-color="#BAC0EA"/>
<stop offset="1" stop-color="#BDC3EC"/>
</linearGradient>
<linearGradient id="paint16_linear_995_3172" x1="208.047" y1="133.789" x2="174.893" y2="126.358" gradientUnits="userSpaceOnUse">
<stop stop-color="#9F79C8"/>
<stop offset="0.1367" stop-color="#A580CB"/>
<stop offset="0.3288" stop-color="#B492D3"/>
<stop offset="0.5529" stop-color="#CDB0E1"/>
<stop offset="0.5808" stop-color="#D1B4E3"/>
<stop offset="0.7644" stop-color="#DBC4E9"/>
<stop offset="1" stop-color="#EBDEF3"/>
</linearGradient>
<radialGradient id="paint17_radial_995_3172" cx="0" cy="0" r="1" gradientUnits="userSpaceOnUse" gradientTransform="translate(188.509 127.442) rotate(180) scale(6.32477 6.32476)">
<stop stop-color="white"/>
<stop offset="0.0152" stop-color="#F7F7F7"/>
<stop offset="0.132" stop-color="#BEBEBE"/>
<stop offset="0.252" stop-color="#8B8B8B"/>
<stop offset="0.3727" stop-color="#606060"/>
<stop offset="0.4942" stop-color="#3E3E3E"/>
<stop offset="0.6167" stop-color="#232323"/>
<stop offset="0.7407" stop-color="#0F0F0F"/>
<stop offset="0.8672" stop-color="#040404"/>
<stop offset="1"/>
</radialGradient>
<linearGradient id="paint18_linear_995_3172" x1="247.686" y1="145.884" x2="229.365" y2="176.331" gradientUnits="userSpaceOnUse">
<stop stop-color="#3B3ABA"/>
<stop offset="0.1433" stop-color="#564BD7"/>
<stop offset="0.2273" stop-color="#6152E3"/>
<stop offset="0.399" stop-color="#4528C9"/>
<stop offset="0.4832" stop-color="#4221A9"/>
<stop offset="0.5739" stop-color="#401B8D"/>
<stop offset="0.6263" stop-color="#3F1982"/>
<stop offset="0.8687" stop-color="#5E239E"/>
<stop offset="1" stop-color="#491C8B"/>
</linearGradient>
<linearGradient id="paint19_linear_995_3172" x1="281.792" y1="184.147" x2="305.02" y2="197.668" gradientUnits="userSpaceOnUse">
<stop offset="0.0808" stop-color="#3F1982"/>
<stop offset="1" stop-color="#5E239E"/>
</linearGradient>
<radialGradient id="paint20_radial_995_3172" cx="0" cy="0" r="1" gradientUnits="userSpaceOnUse" gradientTransform="translate(283.514 183.744) rotate(180) scale(11.3844 11.3844)">
<stop stop-color="white"/>
<stop offset="0.0152" stop-color="#F7F7F7"/>
<stop offset="0.132" stop-color="#BEBEBE"/>
<stop offset="0.252" stop-color="#8B8B8B"/>
<stop offset="0.3727" stop-color="#606060"/>
<stop offset="0.4942" stop-color="#3E3E3E"/>
<stop offset="0.6167" stop-color="#232323"/>
<stop offset="0.7407" stop-color="#0F0F0F"/>
<stop offset="0.8672" stop-color="#040404"/>
<stop offset="1"/>
</radialGradient>
</defs>
</svg>
