<svg width="300" height="180" viewBox="0 0 300 180" fill="none" xmlns="http://www.w3.org/2000/svg">
<path d="M298.427 103.878L298.443 109.508C298.378 109.55 298.311 109.591 298.242 109.63L298.226 103.999C298.294 103.959 298.362 103.918 298.427 103.878Z" fill="#2549A0"/>
<path d="M121.007 7.4158C123.344 6.06713 127.124 6.06713 129.447 7.4158L298.253 105.516C300.574 106.864 300.563 109.054 298.226 110.404L178.98 179.25C176.643 180.599 172.863 180.599 170.54 179.25L1.73363 81.15C-0.588924 79.7999 -0.575904 77.6104 1.76112 76.2617L121.007 7.4158Z" fill="#96AAFF"/>
<path d="M121.007 1.0115C123.344 -0.337168 127.124 -0.337168 129.447 1.0115L298.253 99.1115C300.574 100.46 300.563 102.651 298.226 104L178.98 172.846C176.643 174.194 172.863 174.194 170.54 172.846L1.73363 74.7457C-0.588924 73.397 -0.575904 71.2076 1.76112 69.8574L121.007 1.0115Z" fill="url(#paint0_linear_995_3209)"/>
<path d="M299.985 101.539C299.987 101.75 299.948 101.961 299.883 102.17C299.877 102.185 299.876 102.203 299.87 102.219C299.803 102.414 299.702 102.605 299.576 102.793C299.557 102.822 299.54 102.851 299.521 102.879C299.394 103.055 299.234 103.227 299.054 103.392C298.958 103.479 298.841 103.56 298.731 103.643C298.57 103.764 298.418 103.889 298.227 103.999L178.981 172.845C178.609 173.059 178.191 173.228 177.757 173.374C177.607 173.425 177.453 173.471 177.298 173.515C177.125 173.562 176.948 173.607 176.769 173.645C176.517 173.697 176.264 173.743 176.003 173.775C175.954 173.781 175.906 173.791 175.858 173.795C175.523 173.832 175.183 173.849 174.843 173.852C174.793 173.852 174.744 173.853 174.695 173.853C174.361 173.852 174.028 173.833 173.699 173.798C173.652 173.794 173.602 173.788 173.555 173.782C173.231 173.743 172.912 173.688 172.601 173.619C172.542 173.606 172.482 173.591 172.425 173.577C172.121 173.502 171.824 173.413 171.542 173.308C171.517 173.299 171.491 173.292 171.468 173.283C171.142 173.157 170.833 173.012 170.546 172.846L1.73359 74.7461C1.15766 74.4104 0.723529 74.024 0.435562 73.6115C0.146147 73.1991 0.00144707 72.7592 0 72.3193L0.0159091 77.9499C0.0188032 78.8283 0.596194 79.7066 1.74951 80.3766L170.556 178.477C170.837 178.64 171.14 178.783 171.458 178.908C171.465 178.911 171.471 178.912 171.478 178.914C171.503 178.922 171.529 178.93 171.552 178.938C171.756 179.015 171.964 179.086 172.18 179.147C172.262 179.17 172.349 179.187 172.435 179.207C172.494 179.222 172.553 179.236 172.614 179.251C172.678 179.265 172.739 179.283 172.804 179.296C172.998 179.335 173.194 179.368 173.394 179.395C173.452 179.403 173.511 179.407 173.569 179.414C173.617 179.42 173.663 179.424 173.711 179.429C173.798 179.437 173.883 179.449 173.971 179.456C174.165 179.471 174.361 179.481 174.555 179.485C174.605 179.487 174.656 179.484 174.707 179.484C174.757 179.484 174.806 179.482 174.857 179.482C174.958 179.481 175.058 179.484 175.16 179.479C175.378 179.471 175.598 179.456 175.815 179.433C175.834 179.432 175.854 179.427 175.873 179.424C175.922 179.419 175.97 179.41 176.021 179.404C176.201 179.382 176.384 179.361 176.56 179.327C176.637 179.313 176.708 179.288 176.783 179.273C176.964 179.235 177.138 179.19 177.313 179.142C177.417 179.113 177.527 179.097 177.628 179.064C177.68 179.048 177.722 179.019 177.773 179.002C178.207 178.856 178.624 178.688 178.997 178.472L298.243 109.626C298.32 109.581 298.372 109.529 298.444 109.484V109.505C298.56 109.431 298.644 109.348 298.745 109.27C298.857 109.186 298.974 109.107 299.071 109.019C299.093 108.998 299.123 108.982 299.143 108.962C299.275 108.835 299.392 108.705 299.493 108.571C299.511 108.55 299.521 108.527 299.537 108.503C299.557 108.476 299.573 108.447 299.592 108.419C299.637 108.351 299.686 108.285 299.724 108.217C299.784 108.105 299.835 107.993 299.876 107.88C299.88 107.868 299.881 107.857 299.884 107.845C299.89 107.828 299.893 107.812 299.897 107.794C299.923 107.712 299.949 107.628 299.965 107.544C299.987 107.431 299.999 107.317 300 107.204C300 107.191 300 107.178 300 107.163L299.985 101.539Z" fill="#ADBBFE"/>
<path d="M121.896 8.20312L279.388 99.7276L174.254 160.428L16.76 68.9021L121.896 8.20312Z" fill="#FFFEFF"/>
<path d="M55.0709 31.5312C55.0709 31.4024 55.094 31.2736 55.1346 31.1462C55.1375 31.1361 55.1389 31.126 55.1432 31.1159C55.1838 30.9972 55.2474 30.88 55.3227 30.7657C55.3343 30.7483 55.3444 30.7309 55.356 30.715C55.4341 30.6065 55.5311 30.5023 55.641 30.4024C55.6989 30.3489 55.7727 30.2997 55.8393 30.2491C55.9377 30.1753 56.0288 30.1 56.1461 30.032C56.4789 29.8395 56.8667 29.7021 57.2719 29.5993C57.324 29.5863 57.3746 29.5733 57.4267 29.5617C57.8333 29.472 58.2588 29.4213 58.6871 29.4199C58.7016 29.4199 58.7161 29.4199 58.732 29.4199C59.1791 29.4213 59.6234 29.472 60.0459 29.5704C60.0633 29.5747 60.0821 29.579 60.1009 29.5834C60.5278 29.6861 60.9301 29.8366 61.2774 30.0392C61.9749 30.4444 62.3265 30.9784 62.328 31.5123L62.3193 28.6978C62.3178 28.1638 61.9662 27.6298 61.2687 27.2246C61.095 27.1234 60.9069 27.0351 60.7101 26.9584C60.5669 26.902 60.4193 26.8542 60.2673 26.8108C60.2094 26.7949 60.1501 26.7833 60.0908 26.7689C60.072 26.7645 60.0546 26.7602 60.0358 26.7558C59.9866 26.7443 59.9374 26.7297 59.8867 26.7196C59.7681 26.695 59.6494 26.6762 59.5279 26.6589C59.4121 26.6429 59.2963 26.6299 59.1791 26.6212C59.0619 26.6125 58.9447 26.6068 58.826 26.6039C58.7913 26.6039 58.7551 26.6053 58.7204 26.6039C58.7059 26.6039 58.6915 26.6039 58.677 26.6039C58.6046 26.6039 58.5323 26.6024 58.4614 26.6053C58.3297 26.6097 58.1966 26.6198 58.0663 26.6328C57.9144 26.6487 57.7639 26.669 57.6163 26.6965C57.5483 26.7095 57.4846 26.7312 57.4166 26.7457C57.3631 26.7573 57.3124 26.7703 57.2603 26.7848C57.1634 26.8094 57.0635 26.8267 56.9694 26.8557C56.6699 26.9497 56.3892 27.0698 56.1359 27.2174C56.094 27.242 56.052 27.2667 56.0129 27.2927C55.9435 27.3361 55.8928 27.3867 55.8306 27.4345C55.7626 27.4866 55.6888 27.5358 55.6295 27.5893C55.6164 27.6009 55.5976 27.6125 55.5846 27.624C55.5036 27.7007 55.4327 27.7803 55.3704 27.8628C55.3603 27.8758 55.3545 27.8889 55.3444 27.9019C55.3328 27.9193 55.3227 27.9352 55.3111 27.9526C55.2836 27.9945 55.2532 28.035 55.2286 28.0785C55.191 28.1465 55.1606 28.2145 55.136 28.2839C55.1331 28.2912 55.1331 28.2969 55.1302 28.3042C55.1273 28.3143 55.1259 28.3244 55.1215 28.3345C55.1056 28.3852 55.0897 28.4373 55.0796 28.488C55.0665 28.556 55.0593 28.6254 55.0579 28.6949C55.0579 28.7036 55.0579 28.7108 55.0579 28.718L55.0709 31.5312Z" fill="#ADBBFE"/>
<path d="M50.0005 36.5486L49.9918 33.7341C47.6142 32.3521 46.4233 30.5476 46.4189 28.7402L46.4262 31.5548C46.4334 33.3622 47.6229 35.1667 50.0005 36.5486Z" fill="#ADBBFE"/>
<path d="M107.198 20.0693L43.6218 56.7743L43.6305 59.5889L107.205 22.8839L107.198 20.0693Z" fill="#ADBBFE"/>
<path d="M67.4002 23.683L90.4839 10.3555L107.198 20.0682L43.6219 56.7732L26.9082 47.0605L49.9919 33.7329C45.205 30.9517 45.231 26.4585 50.0483 23.6772C54.8555 20.9017 62.6133 20.9017 67.4002 23.683ZM61.253 30.1876C62.6755 29.3671 62.6712 28.0358 61.2704 27.2211C59.8465 26.3934 57.5615 26.3934 56.1391 27.2153C54.7166 28.0358 54.6978 29.3671 56.1217 30.1934C57.5239 31.0081 59.832 31.0081 61.253 30.1876Z" fill="#DFE9F7"/>
<path d="M43.6219 56.7743L43.6306 59.5889L26.9169 49.8761L26.9082 47.0615L43.6219 56.7743Z" fill="#ADBBFE"/>
<path d="M149.321 66.7236C149.707 66.5007 150.31 66.5065 150.684 66.7236C151.067 66.9464 151.076 67.2966 150.69 67.5195L144.241 71.2428C143.867 71.4599 143.252 71.4599 142.868 71.237C142.496 71.02 142.498 70.6639 142.873 70.4469L149.321 66.7236Z" fill="#E3EBF6"/>
<path d="M171.21 50.7509C171.585 50.5339 172.2 50.5339 172.584 50.7567C172.956 50.9738 172.954 51.3298 172.579 51.5454L169.206 53.4932C168.82 53.716 168.205 53.716 167.833 53.499C167.449 53.2761 167.452 52.9201 167.837 52.6973L171.21 50.7509Z" fill="#E3EBF6"/>
<path d="M168.341 49.0824C168.716 48.8668 169.32 48.8596 169.704 49.0824C170.076 49.2995 170.074 49.6554 169.7 49.8725L161.211 54.7737C160.836 54.9908 160.221 54.9908 159.848 54.7737C159.464 54.5509 159.477 54.2007 159.852 53.9851L168.341 49.0824Z" fill="#E3EBF6"/>
<path d="M165.159 54.2423C165.545 54.0195 166.16 54.0195 166.544 54.2423C166.916 54.4594 166.914 54.8154 166.528 55.0382L141.36 69.5683C140.986 69.7853 140.37 69.7853 139.997 69.5683C139.614 69.3454 139.617 68.9895 139.99 68.7724L165.159 54.2423Z" fill="#E3EBF6"/>
<path d="M156.854 55.7128C157.229 55.4958 157.834 55.49 158.216 55.7128C158.588 55.9299 158.586 56.2858 158.211 56.5015L138.479 67.8943C138.104 68.1113 137.489 68.1113 137.116 67.8943C136.732 67.6714 136.746 67.3212 137.12 67.1056L156.854 55.7128Z" fill="#E3EBF6"/>
<path d="M165.46 47.4099C165.835 47.1928 166.45 47.1928 166.823 47.4099C167.206 47.6327 167.193 47.9829 166.819 48.1985L135.6 66.2233C135.225 66.4403 134.62 66.4461 134.238 66.2233C133.866 66.0062 133.867 65.6502 134.242 65.4346L165.46 47.4099Z" fill="#E3EBF6"/>
<path d="M135.663 29.2998L163.121 45.2567L130.81 63.9109L103.353 47.9555L135.663 29.2998Z" fill="#E3EBF6"/>
<path d="M191.989 63.4014C193.068 62.7777 194.808 62.7777 195.882 63.4014L255.168 97.8548C256.242 98.4784 256.236 99.4856 255.155 100.109L175.955 145.835C174.88 146.456 173.141 146.456 172.069 145.832L112.782 111.379C111.708 110.755 111.714 109.748 112.789 109.127L191.989 63.4014Z" fill="#7EC8FF"/>
<path d="M215.866 93.0632C215.507 93.2701 215.505 93.6059 215.861 93.8128C216.223 94.0226 216.802 94.0226 217.161 93.8157L223.185 90.3384C223.544 90.1314 223.545 89.7957 223.184 89.5859C222.828 89.3789 222.247 89.3789 221.89 89.5859L215.866 93.0632ZM213.589 94.5971L213.6 94.6984L213.656 94.804L213.744 94.8909L213.857 94.9748C214.022 95.0703 214.259 95.1311 214.498 95.1253C214.741 95.1282 214.98 95.0746 215.151 94.9748C215.327 94.8735 215.416 94.7374 215.417 94.5942C215.423 94.4596 215.32 94.3207 215.155 94.2252L215.016 94.1557L214.861 94.108L214.681 94.0747L214.51 94.066C214.267 94.066 214.035 94.1297 213.866 94.2266C213.695 94.3265 213.588 94.4582 213.589 94.5971ZM206.917 98.2293C206.558 98.4362 206.557 98.7719 206.913 98.9788C207.274 99.1886 207.853 99.1887 208.212 98.9817L213.239 96.0789C213.598 95.8719 213.6 95.5362 213.238 95.3264C212.882 95.1195 212.302 95.1195 211.944 95.3264L206.917 98.2293ZM210.147 100.106C209.788 100.313 209.787 100.649 210.143 100.856C210.504 101.066 211.083 101.066 211.442 100.859L221.823 94.8648C222.182 94.6579 222.184 94.3222 221.822 94.1123C221.466 93.9054 220.886 93.9054 220.528 94.1123L210.147 100.106Z" fill="#FFFEFF"/>
<path d="M190.973 75.4525C193.278 74.1212 197.022 74.1241 199.307 75.4525C201.598 76.7838 201.586 78.9486 199.279 80.2799C198.112 80.9542 196.572 81.2871 195.039 81.2755L191.319 87.4762C191.53 87.5688 191.731 87.6687 191.918 87.7757C194.209 89.107 194.197 91.2719 191.891 92.6032C191.429 92.8694 190.909 93.0793 190.36 93.2413L193.558 106.224C194.707 106.345 195.812 106.656 196.695 107.169C198.986 108.501 198.974 110.666 196.667 111.997C194.362 113.328 190.624 113.328 188.334 111.997C187.638 111.592 187.159 111.11 186.887 110.596L168.937 110.409C168.655 110.877 168.192 111.318 167.542 111.693C166.898 112.065 166.136 112.331 165.327 112.493L165.589 122.892C166.473 123.051 167.305 123.33 168.001 123.734C170.292 125.065 170.28 127.23 167.973 128.561C165.668 129.893 161.93 129.893 159.64 128.561C157.349 127.23 157.361 125.065 159.667 123.734C160.317 123.359 161.084 123.096 161.893 122.934L161.625 112.54C160.741 112.38 159.909 112.102 159.207 111.694C156.922 110.366 156.938 108.198 159.239 106.87C161.544 105.539 165.282 105.539 167.568 106.867C168.27 107.275 168.753 107.754 169.025 108.268L186.971 108.457C187.253 107.99 187.711 107.546 188.36 107.171C188.821 106.905 189.341 106.695 189.895 106.536L186.691 93.5495C185.542 93.4352 184.442 93.1212 183.554 92.6046C181.263 91.2733 181.276 89.1085 183.581 87.7772C184.749 87.1029 186.295 86.7729 187.827 86.7787L191.548 80.578C191.341 80.4883 191.135 80.3913 190.944 80.2813C188.661 78.9515 188.672 76.7809 190.973 75.4525Z" fill="#F5F9FF"/>
<path d="M90.947 52.957C92.1929 52.2378 94.213 52.2378 95.4546 52.9599L132.5 74.488C133.3 74.9525 133.582 75.6037 133.349 76.1999C133.22 76.5298 132.934 76.8438 132.49 77.0999L95.1971 98.6309C93.9468 99.353 91.931 99.3502 90.6894 98.6281L53.6444 77.0999C53.4056 76.961 53.2131 76.8062 53.0655 76.6398C52.4491 75.9452 52.6444 75.0712 53.6545 74.488L90.947 52.957Z" fill="#E3EBF6"/>
<path d="M79.7322 67.6062C83.3513 65.6266 87.9515 64.5992 92.5966 64.5283L92.533 75.0442L79.7322 67.6062Z" fill="#F9CC38"/>
<path d="M93.6531 64.5283C98.4661 64.6021 103.227 65.6932 106.878 67.8146C110.827 70.1097 112.685 73.15 112.494 76.1657L93.5952 75.4986L93.6531 64.5283Z" fill="#7EC8FF"/>
<path d="M78.9798 68.041L92.6865 76.0072C92.7545 76.0462 92.837 76.0679 92.9267 76.0838L112.439 76.7799C112.043 79.3311 110.158 81.8201 106.787 83.7678C99.1693 88.1655 86.8143 88.1655 79.2461 83.7678C71.8009 79.4411 71.7357 72.4546 78.9798 68.041Z" fill="url(#paint1_linear_995_3209)"/>
<defs>
<linearGradient id="paint0_linear_995_3209" x1="0.000322446" y1="86.9289" x2="299.986" y2="86.9289" gradientUnits="userSpaceOnUse">
<stop stop-color="#3162DE"/>
<stop offset="1" stop-color="#6376F2"/>
</linearGradient>
<linearGradient id="paint1_linear_995_3209" x1="73.6035" y1="77.5535" x2="112.44" y2="77.5535" gradientUnits="userSpaceOnUse">
<stop stop-color="#3162DE"/>
<stop offset="1" stop-color="#6376F2"/>
</linearGradient>
</defs>
</svg>
