<svg width="250" height="173" viewBox="0 0 250 173" fill="none" xmlns="http://www.w3.org/2000/svg">
<path d="M147.076 1.11681C173.098 3.78172 195.764 10.9243 213.143 20.9389C241.167 37.0837 255.452 60.6912 247.928 84.9908C243.21 100.166 230.653 113.396 213.11 123.524C185.156 139.664 144.552 147.932 102.841 143.656C76.8368 140.982 54.1757 133.835 36.7926 123.82C8.76869 107.675 -5.53518 84.0821 1.98872 59.7777C6.70645 44.6028 19.2635 31.3725 36.8067 21.2449C64.7599 5.11422 105.365 -3.15834 147.076 1.11681Z" fill="#F9CC38"/>
<path d="M142.485 15.901C163.107 18.0103 181.07 23.6743 194.841 31.6126C217.051 44.4098 228.369 63.1159 222.409 82.373C218.67 94.398 208.717 104.883 194.813 112.911C172.661 125.699 140.484 132.253 107.427 128.868C86.8186 126.749 68.8563 121.085 55.0845 113.147C32.8754 100.354 21.5424 81.6526 27.5032 62.3956C31.2416 50.3706 41.195 39.8851 55.0986 31.8574C77.2513 19.0649 109.433 12.5157 142.485 15.901Z" stroke="white" stroke-width="1.4627" stroke-miterlimit="10"/>
<path d="M50.8656 63.7406C51.1951 63.5476 51.5671 63.3734 51.9767 63.2086C53.7753 62.5212 55.8376 62.2952 57.9422 62.4976L64.8634 63.2086C67.1658 59.3854 70.6311 56.0943 75.0287 53.5518C78.3151 51.6544 82.1288 50.176 86.371 49.2202C87.5575 48.9424 88.8287 48.8623 90.0105 48.9894C90.4907 49.013 91.0605 49.1401 91.762 49.2955C93.3393 49.7004 94.6482 50.3643 95.6087 51.1741C96.7434 52.0875 97.1719 53.5094 96.7717 54.856C96.4044 56.0425 95.6322 56.9936 94.4551 57.6716C94.3468 57.7328 94.2386 57.794 94.1256 57.8505C92.0163 58.8298 90.2224 59.7338 88.7487 60.586C87.4304 61.3488 86.3616 62.0644 85.5518 62.7471C83.4801 64.5504 82.0205 66.8622 81.173 69.5742C80.1889 72.7712 80.6974 75.9211 82.7456 78.3317C84.7042 80.893 88.2449 82.5456 92.9767 83.0541C97.1389 83.4779 100.472 82.7387 103.439 81.0248C104.183 80.5917 104.908 80.102 105.619 79.5511C108.524 77.2676 110.817 74.4238 114.4 69.2682C118.326 64.4327 122.427 60.4589 127.404 57.5868C128.016 57.2337 128.642 56.8947 129.287 56.5746C136.274 53.048 144.476 51.7533 153.808 52.6902C162.745 53.6036 170.311 56.4239 175.547 60.4825C180.825 64.5693 183.602 69.8002 183.438 75.3607L191.277 76.147C195.745 76.6037 198.537 78.8872 197.732 81.3779C197.435 82.3855 196.621 83.2613 195.477 83.9205C193.711 84.9422 191.15 85.4507 188.466 85.1588L180.843 84.396C178.404 88.6382 174.657 92.2683 169.6 95.1874C164.152 98.2808 158.578 100.235 152.744 101.125C150.903 101.431 149.236 101.482 147.659 101.327C146.694 101.228 145.733 101.021 144.768 100.767C142.974 100.183 141.665 99.166 140.794 97.7441C140.187 96.8307 140.102 95.9691 140.281 95.2581C140.545 94.4247 141.341 93.6243 142.678 92.8522C143.831 92.1836 145.39 91.5432 147.358 90.917C150.8 90.1119 153.803 88.9725 156.313 87.5223C160.461 85.1258 163.272 81.8864 164.52 77.9173C165.504 74.7204 164.995 71.368 162.773 68.7031C160.598 65.9111 156.798 63.9054 151.496 63.3734C147.005 62.8978 143.092 63.6559 139.806 65.5533C139.41 65.784 139.019 66.0288 138.638 66.2925C136.218 67.9922 134.457 69.9226 132.07 73.0725L130.968 74.3673C126.863 80.6905 121.881 85.4272 116.292 88.6523C115.803 88.9348 115.304 89.2079 114.8 89.4716C107.417 93.2806 99.0788 94.7025 89.7939 93.7373C81.2107 92.8756 74.167 90.1072 69.2845 86.1475C64.4397 82.3149 62.0148 77.3382 62.0855 72.2344L55.1642 71.5235C53.0643 71.321 51.2705 70.6336 49.9616 69.5695C48.7374 68.5525 48.3513 67.4131 48.7562 66.0665C49.1 65.1437 49.7732 64.3716 50.8656 63.7406Z" fill="white"/>
<path d="M249.92 71.9736L250 100.045C250.014 104.334 249.364 108.684 248.008 113.058C243.29 128.233 230.733 141.464 213.19 151.591C185.237 167.731 144.632 175.999 102.921 171.724C76.9172 169.05 54.2561 161.903 36.873 151.888C13.8917 138.648 0.134022 120.394 0.0822306 100.854L0.00219727 72.7834C0.0586971 92.3277 13.8117 110.577 36.793 123.817C54.1761 133.832 76.8372 140.979 102.841 143.653C144.552 147.928 185.157 139.656 213.11 123.52C230.653 113.393 243.215 100.162 247.928 84.9875C249.284 80.6134 249.929 76.2629 249.92 71.9736Z" fill="#DA2BB4"/>
</svg>
