<svg width="31" height="30" viewBox="0 0 31 30" fill="none" xmlns="http://www.w3.org/2000/svg">
<path fill-rule="evenodd" clip-rule="evenodd" d="M27.4142 15.0001C27.4142 14.749 27.3139 14.5083 27.1357 14.3315L16.4205 3.70653C16.0513 3.34042 15.4552 3.34294 15.0891 3.71216C14.723 4.08138 14.7255 4.67747 15.0947 5.04358L24.1862 14.0586L3.78181 14.0586C3.26185 14.0586 2.84034 14.4801 2.84034 15.0001C2.84034 15.52 3.26185 15.9415 3.78181 15.9415L24.1862 15.9415L15.0947 24.9565C14.7255 25.3226 14.723 25.9187 15.0891 26.288C15.4552 26.6572 16.0513 26.6597 16.4205 26.2936L27.1357 15.6686C27.3139 15.4918 27.4142 15.2511 27.4142 15.0001Z" fill="black"/>
</svg>
