<svg width="18" height="18" viewBox="0 0 18 18" fill="none" xmlns="http://www.w3.org/2000/svg">
<path d="M15.75 14.9995C15.75 15.1984 15.671 15.3892 15.5303 15.5298C15.3897 15.6705 15.1989 15.7495 15 15.7495H3C2.80109 15.7495 2.61032 15.6705 2.46967 15.5298C2.32902 15.3892 2.25 15.1984 2.25 14.9995V7.11624C2.24992 7.00195 2.27596 6.88915 2.32614 6.78646C2.37631 6.68378 2.44929 6.59391 2.5395 6.52374L8.5395 1.85724C8.67116 1.75482 8.8332 1.69922 9 1.69922C9.1668 1.69922 9.32884 1.75482 9.4605 1.85724L15.4605 6.52374C15.5507 6.59391 15.6237 6.68378 15.6739 6.78646C15.724 6.88915 15.7501 7.00195 15.75 7.11624V14.9995ZM14.25 14.2495V7.48299L9 3.39924L3.75 7.48299V14.2495H14.25Z" fill="black" fill-opacity="0.6"/>
</svg>
