<svg width="160" height="160" viewBox="0 0 160 160" fill="none" xmlns="http://www.w3.org/2000/svg">
<path d="M111.593 33.8555C113.584 33.8555 115.194 35.4391 115.194 37.4049C115.194 39.3708 113.584 40.9544 111.593 40.9544C109.601 40.9544 107.991 39.3708 107.991 37.4049C108.018 35.4391 109.628 33.8555 111.593 33.8555Z" fill="black"/>
<path d="M121.824 33.8555C123.815 33.8555 125.398 35.4391 125.398 37.4049C125.398 39.3708 123.788 40.9544 121.824 40.9544C119.832 40.9544 118.25 39.3708 118.25 37.4049C118.222 35.4391 119.832 33.8555 121.824 33.8555Z" fill="black"/>
<path d="M132.3 33.8555C134.292 33.8555 135.901 35.4391 135.901 37.4049C135.901 39.3708 134.292 40.9544 132.3 40.9544C130.308 40.9544 128.699 39.3708 128.699 37.4049C128.726 35.4391 130.308 33.8555 132.3 33.8555Z" fill="black"/>
<path d="M30.4545 20.2066C34.3286 20.2066 37.3569 17.2031 37.3569 13.3806C37.3569 9.5581 34.3286 6.55469 30.4545 6.55469C26.5803 6.55469 23.552 9.5581 23.552 13.3806C23.552 17.2031 26.6076 20.2066 30.4545 20.2066ZM30.4545 10.1041C32.3915 10.1041 34.0558 11.7424 34.0558 13.6536C34.0558 15.5649 32.3915 17.2031 30.4545 17.2031C28.5174 17.2031 26.8805 15.5649 26.8805 13.6536C26.8805 11.4693 28.5447 10.1041 30.4545 10.1041Z" fill="black"/>
<path d="M126.242 18.5666C131.481 18.5666 135.628 14.471 135.628 9.2833C135.628 4.09559 131.481 0 126.242 0C121.004 0 116.857 4.09559 116.857 9.2833C116.584 14.471 120.977 18.5666 126.242 18.5666ZM126.242 3.27644C129.544 3.27644 132.326 6.00685 132.326 9.2833C132.326 12.5598 129.571 15.2901 126.242 15.2901C122.941 15.2901 120.158 12.5598 120.158 9.2833C120.158 6.00685 122.914 3.27644 126.242 3.27644Z" fill="black"/>
<path d="M5.35454 23.75C6.71866 23.75 7.83725 24.8422 7.83725 26.2074C7.83725 27.5726 6.71866 28.6647 5.35454 28.6647C3.99042 28.6647 2.87183 27.5726 2.87183 26.2074C2.87183 24.8422 3.99042 23.75 5.35454 23.75Z" fill="black"/>
<path d="M53.6453 6.82422C55.0094 6.82422 56.128 7.91639 56.128 9.28158C56.128 10.6468 55.0094 11.7389 53.6453 11.7389C52.2812 11.7389 51.1626 10.6468 51.1626 9.28158C51.1626 7.91639 52.2812 6.82422 53.6453 6.82422Z" fill="black"/>
<path d="M101.935 10.1016C103.299 10.1016 104.418 11.1937 104.418 12.5589C104.418 13.9241 103.299 15.0162 101.935 15.0162C100.571 15.0162 99.4526 13.9241 99.4526 12.5589C99.4526 11.1937 100.571 10.1016 101.935 10.1016Z" fill="black"/>
<path d="M32.9379 76.7227C34.302 76.7227 35.4206 77.8148 35.4206 79.18C35.4206 80.5452 34.302 81.6373 32.9379 81.6373C31.5738 81.6373 30.4552 80.5452 30.4552 79.18C30.4552 77.8148 31.5738 76.7227 32.9379 76.7227Z" fill="black"/>
<path d="M39.8385 76.7227C41.2027 76.7227 42.3213 77.8148 42.3213 79.18C42.3213 80.5452 41.2027 81.6373 39.8385 81.6373C38.4744 81.6373 37.3558 80.5452 37.3558 79.18C37.3558 77.8148 38.4744 76.7227 39.8385 76.7227Z" fill="black"/>
<path d="M46.7424 76.7227C48.1065 76.7227 49.2251 77.8148 49.2251 79.18C49.2251 80.5452 48.1065 81.6373 46.7424 81.6373C45.3782 81.6373 44.2596 80.5452 44.2596 79.18C44.2596 77.8148 45.3782 76.7227 46.7424 76.7227Z" fill="black"/>
<path d="M71.0243 16.9258C72.3884 16.9258 73.507 18.018 73.507 19.3831C73.507 20.7483 72.3884 21.8405 71.0243 21.8405C69.6602 21.8405 68.5416 20.7483 68.5416 19.3831C68.5416 18.018 69.6602 16.9258 71.0243 16.9258Z" fill="black"/>
<path d="M153.825 23.75C155.189 23.75 156.308 24.8422 156.308 26.2074C156.308 27.5726 155.189 28.6647 153.825 28.6647C152.461 28.6647 151.342 27.5726 151.342 26.2074C151.342 24.8422 152.461 23.75 153.825 23.75Z" fill="black"/>
<path d="M136.718 25.3945H20.7946C14.7106 25.3945 9.74524 30.3092 9.74524 36.316V149.081C9.74524 155.087 14.7106 160.002 20.7946 160.002H136.718C142.802 160.002 147.767 155.087 147.767 149.081V36.316C147.767 30.3092 142.802 25.3945 136.718 25.3945ZM144.166 36.316V45.8723H92.5474V28.671H136.718C140.865 28.944 144.166 32.2205 144.166 36.316ZM13.0737 45.8723V39.0464H88.9734V45.8723H13.0737ZM20.7946 28.944H88.9734V35.77H13.3465C13.6193 31.6744 16.9478 28.944 20.7946 28.944ZM136.718 156.726H20.7946C16.6477 156.726 13.0737 153.449 13.0737 149.081V49.4218H144.166V149.354C144.166 153.449 140.865 156.726 136.718 156.726Z" fill="black"/>
<path d="M132.3 59.5234H25.2162C24.3978 59.5234 23.552 60.3426 23.552 61.1617V144.711C23.552 145.53 24.3705 146.349 25.2162 146.349C36.2656 146.349 106.627 146.349 132.3 146.349C133.118 146.349 133.964 145.53 133.964 144.711V61.1617C133.964 60.3426 133.118 59.5234 132.3 59.5234ZM130.363 63.0729V69.8989H26.8805V63.0729H130.363ZM51.1618 138.431C51.1618 137.612 50.3433 137.066 49.7704 137.066L40.1125 135.701V132.971L49.7704 131.605C50.5889 131.605 51.1618 130.786 51.1618 130.24C51.4346 128.329 51.9803 126.418 52.826 124.506C53.0989 123.687 52.826 123.141 52.2804 122.595L44.5595 116.588L45.9509 114.131L55.0632 117.68C55.8817 117.953 56.4546 117.68 57.0002 117.134C58.3916 115.496 59.7558 114.131 61.1472 113.039C61.6928 112.493 61.9656 111.674 61.6928 111.128L58.0916 101.844L60.5743 100.479L66.6582 108.124C67.2039 108.67 68.0496 108.943 68.5953 108.67C70.5323 107.851 72.4694 107.578 74.3792 107.032C75.1976 107.032 75.7706 106.213 75.7706 105.667L77.1619 96.1105H79.9175L81.3089 105.667C81.3089 106.486 82.1273 107.032 82.7003 107.032C84.6373 107.305 86.5744 107.851 88.4842 108.67C89.3027 108.943 89.8756 108.67 90.4212 108.124L96.5052 100.479L98.9879 101.844L95.3866 110.854C95.1138 111.674 95.3866 112.22 95.9323 112.766C97.5965 113.858 98.9606 115.496 100.079 116.861C100.625 117.407 101.471 117.68 102.016 117.407L111.129 113.858L112.52 116.315L104.799 122.322C104.253 122.868 103.981 123.687 104.253 124.233C105.072 126.145 105.345 128.056 105.918 129.967C105.918 130.786 106.736 131.332 107.309 131.332L116.967 132.698V135.428L107.309 136.793C106.491 136.793 105.918 137.612 105.918 138.158C105.645 139.796 105.372 141.162 104.826 142.8H94.4863C96.1505 140.07 97.2418 136.52 97.2418 133.244C97.2418 123.141 88.9753 114.677 78.4715 114.677C67.9951 114.677 59.7012 122.868 59.7012 133.244C59.7012 136.52 60.5197 139.796 62.4567 142.8H52.2531C51.7075 141.708 51.4346 140.069 51.1618 138.431ZM66.9038 143.073C64.6939 140.343 63.6026 137.066 63.6026 133.517C63.6026 125.052 70.5051 118.5 78.7716 118.5C87.0382 118.5 93.9407 125.326 93.9407 133.517C93.9407 137.066 92.8493 140.343 90.6395 143.073H66.9038ZM108.837 143.073C109.11 142.254 109.382 141.162 109.655 140.343L119.586 138.977C120.405 138.977 120.978 138.158 120.978 137.339V131.605C120.978 130.786 120.432 129.967 119.586 129.967L109.655 128.602C109.382 127.237 109.11 125.872 108.564 124.779L116.285 118.5C116.831 117.953 117.103 117.134 116.831 116.315L114.075 111.401C113.529 110.581 112.684 110.308 111.865 110.581L102.48 114.131C101.662 113.039 100.543 112.22 99.4517 111.128L103.026 101.844C103.299 101.025 103.026 100.206 102.207 99.6599L97.2418 96.6566C96.4233 96.1105 95.5776 96.3835 95.0319 97.2026L88.6751 104.848C87.2837 104.302 85.9196 104.029 84.801 103.756L83.4096 93.9262C83.4096 93.1071 82.5912 92.561 81.7454 92.561H75.9616C75.1431 92.561 74.2973 93.1071 74.2973 93.9262L72.9059 103.756C71.5145 104.029 70.1504 104.302 69.0318 104.848L62.675 97.2026C62.1293 96.6566 61.2836 96.3835 60.4651 96.6566L55.4997 99.6599C54.6813 100.206 54.4084 101.025 54.6813 101.844L58.2552 111.128C57.164 111.947 56.3182 113.039 55.2269 114.131L45.8417 110.581C45.0233 110.308 44.1775 110.581 43.6319 111.401L40.6035 116.315C40.0579 117.134 40.3307 117.953 41.1492 118.5L48.8701 124.779C48.3244 126.145 48.0516 127.51 47.7788 128.602L38.1208 129.694C37.3023 129.694 36.7294 130.513 36.7294 131.332V137.066C36.7294 137.885 37.2751 138.704 38.1208 138.704L48.0516 140.07C48.3244 140.889 48.5973 141.981 48.8701 142.8H27.0714V73.1753H130.554V143.073H108.837Z" fill="black"/>
<path d="M125.396 90.375H109.955C109.136 90.375 108.29 91.1941 108.29 92.0132C108.29 92.8323 109.109 93.6514 109.955 93.6514H125.396C126.215 93.6514 127.061 92.8323 127.061 92.0132C127.061 90.9211 126.242 90.375 125.396 90.375Z" fill="black"/>
<path d="M125.396 83.5469H109.955C109.136 83.5469 108.29 84.366 108.29 85.1851C108.29 86.0042 109.109 86.8233 109.955 86.8233H125.396C126.215 86.8233 127.061 86.0042 127.061 85.1851C127.061 84.0929 126.242 83.5469 125.396 83.5469Z" fill="black"/>
<path d="M125.396 76.7227H109.955C109.136 76.7227 108.29 77.5417 108.29 78.3609C108.29 79.18 109.109 79.9991 109.955 79.9991H125.396C126.215 79.9991 127.061 79.18 127.061 78.3609C127.061 77.2687 126.242 76.7227 125.396 76.7227Z" fill="black"/>
</svg>
