<svg width="160" height="160" viewBox="0 0 160 160" fill="none" xmlns="http://www.w3.org/2000/svg">
<path d="M145.757 124.845C146.602 124.845 147.474 123.999 147.474 123.153V101.999C147.474 101.153 146.63 100.307 145.757 100.307H140.354V77.4602C140.354 76.614 139.509 75.7679 138.637 75.7679H131.516V49.2547C131.516 48.4086 130.672 47.5624 129.8 47.5624H113.87V24.716C113.87 23.8698 113.026 23.0237 112.153 23.0237H92.5085V12.3056C92.5085 11.4594 91.6643 10.6133 90.7918 10.6133H40.9765C40.1321 10.6133 39.2596 11.4594 39.2596 12.3056V47.5624H25.0186C16.1813 47.5624 9.08899 54.6138 9.08899 63.3575V145.717C9.08899 151.923 14.2113 156.718 20.206 156.718H129.546C135.823 156.718 140.663 151.641 140.663 145.717V125.127L145.757 124.845ZM144.041 121.179H128.083C123.242 121.179 119.246 117.23 119.246 112.435C119.246 107.64 123.242 103.691 128.083 103.691H144.041V121.179ZM128.111 50.665V57.7164H113.87V50.665H128.111ZM110.183 26.1263V57.9985H92.2553V26.1263H110.183ZM42.6932 13.7159H89.1031C89.1031 22.7416 89.1031 49.2547 89.1031 57.7164H42.6932V13.7159ZM24.7653 50.665H39.0063V57.7164H30.1691C29.3248 57.7164 28.4522 58.5626 28.4522 59.4087C28.4522 60.2549 29.2966 61.101 30.1691 61.101C41.2861 61.101 115.305 61.101 128.111 61.101V75.2038H24.7653C17.9263 75.2038 12.2412 69.5627 12.2412 62.7934C12.5227 56.3061 17.9263 50.665 24.7653 50.665ZM129.237 153.051H19.9245C15.6466 153.051 12.2412 149.666 12.2412 145.435V138.948H136.948V145.435C136.948 149.666 133.515 153.051 129.237 153.051ZM136.948 135.281H12.5226V92.9732H110.465C111.309 92.9732 112.181 92.127 112.181 91.2809C112.181 90.4347 111.337 89.5886 110.465 89.5886H12.5226V73.2294C15.3652 76.8961 19.9246 79.1525 25.0468 79.1525C33.0116 79.1525 132.389 79.1525 137.23 79.1525V100.307H128.392C121.553 100.307 115.868 105.948 115.868 112.717C115.868 119.486 121.553 125.127 128.392 125.127H137.23V135.281H136.948Z" fill="black"/>
<path d="M128.111 107.082C125.269 107.082 122.708 109.338 122.708 112.441C122.708 115.262 124.987 117.8 128.111 117.8C130.954 117.8 133.515 115.544 133.515 112.441C133.515 109.338 130.954 107.082 128.111 107.082ZM128.111 114.133C127.267 114.133 126.394 113.287 126.394 112.441C126.394 111.595 127.239 110.749 128.111 110.749C128.955 110.749 129.828 111.595 129.828 112.441C129.828 113.287 128.955 114.133 128.111 114.133Z" fill="black"/>
<path d="M107.624 3.28125C109.031 3.28125 110.185 4.40949 110.185 5.81977C110.185 7.23004 109.031 8.35824 107.624 8.35824C106.217 8.35824 105.063 7.23004 105.063 5.81977C105.063 4.40949 106.188 3.28125 107.624 3.28125Z" fill="black"/>
<path d="M148.6 84.2305C150.008 84.2305 151.162 85.3587 151.162 86.769C151.162 88.1793 150.008 89.3075 148.6 89.3075C147.193 89.3075 146.039 88.1793 146.039 86.769C146.039 85.3587 147.193 84.2305 148.6 84.2305Z" fill="black"/>
<path d="M152.036 40.2305C153.443 40.2305 154.597 41.3587 154.597 42.7689C154.597 44.1792 153.443 45.3075 152.036 45.3075C150.629 45.3075 149.475 44.1792 149.475 42.7689C149.475 41.3587 150.601 40.2305 152.036 40.2305Z" fill="black"/>
<path d="M31.0162 10.332C32.4234 10.332 33.5773 11.4603 33.5773 12.8705C33.5773 14.2808 32.4234 15.409 31.0162 15.409C29.609 15.409 28.4551 14.2808 28.4551 12.8705C28.4551 11.4603 29.609 10.332 31.0162 10.332Z" fill="black"/>
<path d="M2.56114 47.2812C3.96835 47.2812 5.12227 48.4095 5.12227 49.8197C5.12227 51.23 3.96835 52.3582 2.56114 52.3582C1.15392 52.3582 0 51.23 0 49.8197C0 48.4095 1.15392 47.2812 2.56114 47.2812Z" fill="black"/>
<path d="M2.56114 123.156C3.96835 123.156 5.12227 124.284 5.12227 125.695C5.12227 127.105 3.96835 128.233 2.56114 128.233C1.15392 128.233 0 127.105 0 125.695C0 124.284 1.15392 123.156 2.56114 123.156Z" fill="black"/>
<path d="M146.913 128.234C148.32 128.234 149.474 129.363 149.474 130.773C149.474 132.183 148.32 133.311 146.913 133.311C145.506 133.311 144.352 132.183 144.352 130.773C144.352 129.363 145.478 128.234 146.913 128.234Z" fill="black"/>
<path d="M49.8145 54.3339H81.9835C82.8278 54.3339 83.7002 53.4877 83.7002 52.6415C83.7002 51.7954 82.8559 50.9492 81.9835 50.9492H49.8145C48.9702 50.9492 48.0978 51.7954 48.0978 52.6415C48.0978 53.4877 48.6888 54.3339 49.8145 54.3339Z" fill="black"/>
<path d="M49.8145 47.2831H81.9835C82.8278 47.2831 83.7002 46.4369 83.7002 45.5907C83.7002 44.7446 82.8559 43.8984 81.9835 43.8984H49.8145C48.9702 43.8984 48.0978 44.7446 48.0978 45.5907C48.0978 46.4369 48.6888 47.2831 49.8145 47.2831Z" fill="black"/>
<path d="M49.8145 40.2323H81.9835C82.8278 40.2323 83.7002 39.3861 83.7002 38.54C83.7002 37.6938 82.8559 36.8477 81.9835 36.8477H49.8145C48.9702 36.8477 48.0978 37.6938 48.0978 38.54C48.0978 39.3861 48.6888 40.2323 49.8145 40.2323Z" fill="black"/>
<path d="M138.638 38.2542C147.475 38.2542 154.568 31.2028 154.568 22.4591C154.568 13.7154 147.447 6.66406 138.638 6.66406C129.801 6.66406 122.68 13.7154 122.68 22.4591C122.708 31.2028 129.829 38.2542 138.638 38.2542ZM138.638 10.0488C145.477 10.0488 151.162 15.6898 151.162 22.4591C151.162 29.2284 145.477 34.8695 138.638 34.8695C131.799 34.8695 126.114 29.2284 126.114 22.4591C126.114 15.6898 131.799 10.0488 138.638 10.0488Z" fill="black"/>
<path d="M134.669 25.2799L133.234 28.1004C134.669 29.2286 136.639 29.7928 138.356 29.7928V32.0492H139.792V29.7928C141.79 29.7928 143.507 28.9466 144.351 27.5363C144.914 26.4081 144.914 24.9978 144.351 23.8696C144.07 23.0234 143.225 22.4593 142.071 21.8952C140.917 21.3311 139.792 21.0491 139.51 21.0491V18.2285C140.946 18.5106 142.634 19.3567 142.634 19.6388L144.07 16.8182C143.507 16.5362 142.916 16.2541 142.071 15.9721C141.227 15.69 140.355 15.408 139.51 15.408V13.4336H138.075V15.408C136.077 15.69 134.669 16.5362 133.797 18.2285C133.234 19.3567 133.234 20.767 133.797 21.6132C134.078 22.4593 134.923 23.0234 135.795 23.5875C136.921 24.1516 138.075 24.4337 138.356 24.4337V26.9722C136.639 26.6902 134.951 25.5619 134.669 25.2799ZM139.51 24.4337C140.073 24.7158 140.354 24.7158 140.664 24.9978C140.945 25.2799 141.227 25.5619 141.227 25.844C141.227 26.4081 140.664 26.9722 139.792 26.9722V24.4337H139.51ZM137.512 20.2029C137.23 19.9208 137.231 19.6388 137.231 19.3567C137.231 18.7926 137.793 18.2285 138.666 18.2285V20.767C138.075 20.4849 137.793 20.4849 137.512 20.2029Z" fill="black"/>
<path d="M12.5241 33.1802C19.3632 33.1802 25.0484 27.5391 25.0484 20.7698C25.0484 14.0004 19.3632 8.35938 12.5241 8.35938C5.68508 8.35938 0 14.0004 0 20.7698C0 27.5391 5.68508 33.1802 12.5241 33.1802ZM12.5241 12.0261C17.3649 12.0261 21.3615 15.9748 21.3615 20.7698C21.3615 25.5647 17.3649 29.5135 12.5241 29.5135C7.68332 29.5135 3.68689 25.5647 3.68689 20.7698C3.40545 15.9748 7.40188 12.0261 12.5241 12.0261Z" fill="black"/>
<path d="M151.163 52.3594C146.323 52.3594 142.326 56.3081 142.326 61.103C142.326 65.898 146.323 69.8468 151.163 69.8468C156.004 69.8468 160.001 65.898 160.001 61.103C160.001 56.3081 156.004 52.3594 151.163 52.3594ZM151.163 66.4621C148.321 66.4621 145.76 64.2056 145.76 61.103C145.76 58.0004 148.039 55.744 151.163 55.744C154.006 55.744 156.567 58.0004 156.567 61.103C156.595 64.2056 154.006 66.4621 151.163 66.4621Z" fill="black"/>
<path d="M72.8663 96.6406H19.6175C18.7732 96.6406 17.9006 97.4868 17.9006 98.3329V116.102C17.9006 116.949 18.745 117.795 19.6175 117.795H73.1478C73.9921 117.795 74.8646 116.949 74.8646 116.102V98.3329C74.5832 97.2047 74.0202 96.6406 72.8663 96.6406ZM71.1777 114.128H21.3624V100.025H71.1777V114.128Z" fill="black"/>
<path d="M72.8663 121.184H19.6175C18.7732 121.184 17.9006 122.03 17.9006 122.876C17.9006 123.722 18.745 124.568 19.6175 124.568H73.1478C73.9921 124.568 74.8646 123.722 74.8646 122.876C74.5832 122.03 74.0202 121.184 72.8663 121.184Z" fill="black"/>
</svg>
