<svg width="48" height="48" viewBox="0 0 48 48" fill="none" xmlns="http://www.w3.org/2000/svg">
<path d="M24.0026 23.9161C27.506 23.9161 30.3417 21.1117 30.3417 17.6475C30.3417 14.1833 27.506 11.3789 24.0026 11.3789C20.4993 11.3789 17.6636 14.1833 17.6636 17.6475C17.6636 21.1117 20.4993 23.9161 24.0026 23.9161ZM24.0026 12.4512C26.9208 12.4512 29.2536 14.7606 29.2536 17.6475C29.2536 20.5344 26.9208 22.8438 24.0026 22.8438C21.0845 22.8438 18.7517 20.5344 18.7517 17.6475C18.7517 14.7606 21.0845 12.4512 24.0026 12.4512Z" fill="#5030D1"/>
<path d="M20.8375 18.1441C21.0848 18.1441 21.3404 17.8966 21.3404 17.6492C21.3404 16.1645 22.5109 15.0098 24.0112 15.0098C25.5114 15.0098 26.682 16.1645 26.682 17.6492C26.682 17.8966 26.9293 18.1441 27.1849 18.1441C27.4321 18.1441 27.6877 17.8966 27.6877 17.6492C27.6877 15.5871 26.0225 13.9375 23.937 13.9375C21.8515 13.9375 20.1863 15.5871 20.1863 17.6492C20.2522 17.8966 20.4996 18.1441 20.8375 18.1441Z" fill="#5030D1"/>
<path d="M47.9332 31.4253C43.0944 21.6099 43.4323 22.2698 43.3499 22.1873C43.2675 22.1048 43.2675 22.1048 43.185 22.0223C43.1026 22.0223 43.6879 22.1048 34.4307 19.7128L37.8516 19.218C38.0989 19.218 38.272 18.9705 38.272 18.7231V16.7435C38.272 16.4961 38.1072 16.2486 37.8516 16.2486L34.4307 15.7537C34.3483 15.2588 34.1834 14.7639 34.0103 14.3515L36.7635 12.207C36.9284 12.0421 37.0108 11.7946 36.9284 11.5472L35.931 9.89755C35.7661 9.6501 35.5106 9.56758 35.2633 9.65006L32.0072 10.8873C31.6774 10.5574 31.3395 10.145 30.9191 9.81504L32.172 6.59828C32.2545 6.35083 32.1721 6.10335 31.9248 5.93838L30.1771 4.94864C29.9298 4.78368 29.6743 4.86612 29.5094 5.11357L27.3415 7.8355C26.8386 7.67054 26.4265 7.58806 25.9236 7.4231L25.4208 4.04131C25.4208 3.79387 25.1735 3.62891 24.918 3.62891H22.9148C22.6675 3.62891 22.412 3.79387 22.412 4.04131L21.9092 7.4231C21.4063 7.50558 20.9117 7.67054 20.4913 7.8355L18.3234 5.11357C18.1585 4.9486 17.9029 4.86616 17.6556 4.94864L15.9905 5.93838C15.7432 6.10335 15.6608 6.35083 15.7432 6.59828L16.9962 9.81504C16.6664 10.145 16.246 10.4749 15.9163 10.8873L12.6602 9.65006C12.4129 9.56758 12.1574 9.6501 11.9925 9.89755L10.9951 11.5472C10.8302 11.7946 10.9127 12.0421 11.16 12.207L13.9132 14.3515C13.7483 14.8464 13.6659 15.2588 13.4928 15.7537L10.1543 16.1661C9.90697 16.1661 9.73386 16.4136 9.73386 16.661V18.6406C9.73386 18.888 9.89873 19.1355 10.1543 19.1355L13.5752 19.6304C13.5752 19.7953 13.6576 20.0428 13.7401 20.2078C4.64775 22.0224 5.15059 21.9398 4.98573 22.0223C4.82086 22.1048 5.06818 21.6924 0.0645237 31.3428C-0.100342 31.6727 0.0645015 32.0026 0.402475 32.0851L4.57356 33.0749V43.7151C4.57356 43.9625 4.73844 44.2099 4.99398 44.2099C25.2559 47.4267 24.003 47.2618 24.1761 47.2618L42.9377 44.2099C43.185 44.2099 43.3582 43.9625 43.3582 43.7151V33.0749L47.5292 32.0851C47.9332 32.0026 48.1063 31.6727 47.9332 31.4253ZM14.0781 21.445C14.1605 21.61 14.3254 21.7749 14.5809 21.7749C14.9189 21.7749 15.1662 21.445 15.0837 21.115C14.8364 20.4552 14.6633 19.7953 14.5809 19.1355C14.5809 18.888 14.3336 18.7231 14.1605 18.7231L10.822 18.2282V17.1559L14.1605 16.661C14.4078 16.661 14.5809 16.4136 14.5809 16.2486C14.6633 15.5887 14.8282 14.9289 15.0837 14.2691C15.1662 14.0216 15.0838 13.8567 14.9189 13.6917L12.248 11.6296L12.7509 10.7224L15.9163 11.9596C16.1636 12.0421 16.3367 11.9596 16.5016 11.7946C16.922 11.2997 17.4166 10.8048 17.9194 10.3924C18.0843 10.2275 18.1667 9.98 18.0843 9.81504L16.8313 6.68074L17.7463 6.18587L19.8319 8.82524C19.9967 8.99021 20.2523 9.0727 20.4171 8.99022C21.0848 8.74277 21.7525 8.57783 22.4202 8.49535C22.6675 8.49535 22.8407 8.2479 22.8407 8.08294L23.3435 4.78367H24.4234L24.9262 8.08294C24.9262 8.33038 25.1735 8.49535 25.3466 8.49535C26.0143 8.57783 26.682 8.74277 27.3497 8.99022C27.597 9.0727 27.7701 8.99021 27.935 8.82524L30.0205 6.18587L30.9356 6.68074L29.8557 9.73257C29.7733 9.98002 29.8556 10.145 30.0205 10.31C30.5234 10.7224 31.018 11.2172 31.4384 11.7121C31.6032 11.8771 31.8588 11.9596 32.0237 11.8771L35.1891 10.6399L35.6919 11.5472L33.1035 13.6917C32.9387 13.8567 32.8562 14.1041 32.9387 14.2691C33.186 14.9289 33.3591 15.5887 33.4415 16.2486C33.4415 16.496 33.6888 16.661 33.8619 16.661L37.2004 17.1559V18.2282L33.8619 18.7231C33.6146 18.7231 33.4415 18.9705 33.4415 19.1355C33.3591 19.7953 33.1942 20.4552 32.9387 21.115C32.8562 21.3625 32.9386 21.6924 33.2766 21.7749C33.5239 21.8574 33.8619 21.7749 33.9443 21.445C34.0267 21.1975 34.1092 20.9501 34.1917 20.6202L40.6131 22.3523L24.1019 25.4041L8.01104 22.4347L14.0121 21.1975C14.0781 21.28 14.0781 21.3625 14.0781 21.445ZM5.57102 23.0121L23.2528 26.3114L17.499 35.1369L1.32572 31.3428L5.57102 23.0121ZM17.7463 36.2092C17.9112 36.2092 18.0761 36.1267 18.1667 35.9618L23.5908 27.7136V42.3129L5.66168 39.426V33.3223C18.414 36.3741 17.5815 36.2092 17.7463 36.2092ZM5.66168 40.4982L23.5908 43.3851V46.1895L5.66168 43.3026V40.4982ZM24.6706 46.107V43.3026L42.3525 40.4982V43.3026L24.6706 46.107ZM42.3525 39.426L24.6706 42.3129V27.7136L29.8392 35.9618C29.9216 36.1267 30.1689 36.2092 30.4245 36.2092L42.3525 33.3223V39.426ZM30.5069 35.0545L24.918 26.2289L42.5997 22.9296L46.6884 31.1778L30.5069 35.0545Z" fill="#5030D1"/>
<path d="M5.66143 10.7194C7.66454 10.7194 9.32969 9.06972 9.32969 7.09015C9.32969 5.11059 7.66454 3.46094 5.66143 3.46094C3.65831 3.46094 1.99316 5.11059 1.99316 7.09015C1.99316 9.06972 3.65831 10.7194 5.66143 10.7194ZM5.66143 4.53324C7.07927 4.53324 8.24982 5.68796 8.24982 7.09015C8.24982 8.49234 7.07927 9.64707 5.66143 9.64707C4.24358 9.64707 3.07308 8.49234 3.07308 7.09015C3.07308 5.68796 4.24358 4.53324 5.66143 4.53324Z" fill="#5030D1"/>
<path d="M43.1851 13.8561C44.6029 13.8561 45.7735 12.7013 45.7735 11.2991C45.7735 9.89691 44.6029 8.74219 43.1851 8.74219C41.7672 8.74219 40.5967 9.89691 40.5967 11.2991C40.5967 12.7013 41.7672 13.8561 43.1851 13.8561ZM43.1851 9.73198C44.0176 9.73198 44.7678 10.3918 44.7678 11.2991C44.7678 12.2064 44.0176 12.7838 43.1851 12.7838C42.3525 12.7838 41.6024 12.1239 41.6024 11.2166C41.6024 10.3093 42.3525 9.73198 43.1851 9.73198Z" fill="#5030D1"/>
<path d="M36.6805 1.97656C37.0927 1.97656 37.4307 2.30651 37.4307 2.71892C37.4307 3.13133 37.0927 3.46122 36.6805 3.46122C36.2684 3.46122 35.9304 3.13133 35.9304 2.71892C35.9304 2.30651 36.2601 1.97656 36.6805 1.97656Z" fill="#5030D1"/>
<path d="M45.015 1.97656C45.4272 1.97656 45.7652 2.30651 45.7652 2.71892C45.7652 3.13133 45.4272 3.46122 45.015 3.46122C44.6028 3.46122 44.2649 3.13133 44.2649 2.71892C44.2649 2.30651 44.6028 1.97656 45.015 1.97656Z" fill="#5030D1"/>
<path d="M44.5209 16.4102C44.933 16.4102 45.271 16.7401 45.271 17.1525C45.271 17.5649 44.933 17.8948 44.5209 17.8948C44.1087 17.8948 43.7708 17.5649 43.7708 17.1525C43.7708 16.7401 44.1005 16.4102 44.5209 16.4102Z" fill="#5030D1"/>
<path d="M14.746 0.492188C15.1581 0.492188 15.4961 0.822134 15.4961 1.23454C15.4961 1.64695 15.1581 1.97685 14.746 1.97685C14.3338 1.97685 13.9958 1.64695 13.9958 1.23454C13.9958 0.822134 14.3338 0.492188 14.746 0.492188Z" fill="#5030D1"/>
<path d="M2.24113 37.6094C2.65329 37.6094 2.99125 37.9393 2.99125 38.3517C2.99125 38.7641 2.65329 39.094 2.24113 39.094C1.82897 39.094 1.49097 38.7641 1.49097 38.3517C1.49097 37.9393 1.82897 37.6094 2.24113 37.6094Z" fill="#5030D1"/>
<path d="M46.0207 37.6094C46.4328 37.6094 46.7708 37.9393 46.7708 38.3517C46.7708 38.7641 46.4328 39.094 46.0207 39.094C45.6085 39.094 45.2705 38.7641 45.2705 38.3517C45.2705 37.9393 45.6003 37.6094 46.0207 37.6094Z" fill="#5030D1"/>
<path d="M2.82629 14.9258C3.23845 14.9258 3.57645 15.2557 3.57645 15.6681C3.57645 16.0805 3.23845 16.4104 2.82629 16.4104C2.41412 16.4104 2.07617 16.0805 2.07617 15.6681C2.07617 15.2557 2.40588 14.9258 2.82629 14.9258Z" fill="#5030D1"/>
</svg>
