<svg width="160" height="160" viewBox="0 0 160 160" fill="none" xmlns="http://www.w3.org/2000/svg">
<path d="M148.299 133.804C151.284 131.377 153.194 127.331 153.194 123.286V46.6902C153.194 39.1385 146.927 32.6656 139.045 32.6656H100.955C96.8662 17.2925 82.7169 5.69531 65.5817 5.69531C48.7155 5.69531 34.2972 17.0228 30.2085 32.6656H20.9549C13.3423 32.6656 6.80565 38.8688 6.80565 46.6902V123.286C6.80565 127.601 8.71551 131.377 11.7014 133.804C5.16474 133.804 0 139.198 0 145.671C0 152.144 5.43375 157.538 11.9704 157.538H148.03C154.566 157.538 160 152.144 160 145.671C160 139.198 154.835 134.074 148.299 133.804ZM120.807 137.31H136.059V140.816H120.807V137.31ZM22.2999 117.083C29.6436 117.083 134.418 117.083 137.942 117.083V122.207H22.2999V117.083ZM49.5225 88.2244H52.7774C52.7774 99.0126 52.7774 101.709 52.7774 113.576H49.2535C49.5225 108.722 49.5225 93.0791 49.5225 88.2244ZM63.1338 96.8548H66.3887V113.846H62.8379C63.1338 108.722 63.1338 101.979 63.1338 96.8548ZM59.583 113.576H56.0592V100.091H59.583V113.576ZM45.9986 113.576H42.4479V103.328H45.9986V113.576ZM39.193 113.576H35.6691V94.967H39.193C39.193 99.0126 39.193 109.801 39.193 113.576ZM137.969 51.2751H112.387C111.58 51.2751 110.746 52.0842 110.746 52.8933C110.746 53.7024 111.553 54.5116 112.387 54.5116H137.969V58.0177H115.938C115.131 58.0177 114.297 58.8268 114.297 59.6359C114.297 60.445 115.104 61.2542 115.938 61.2542H137.969V64.7603H120.834C120.027 64.7603 119.193 65.5693 119.193 66.3784C119.193 67.1875 120 67.9967 120.834 67.9967H137.969V71.5028H124.358C123.551 71.5028 122.717 72.3119 122.717 73.121C122.717 73.9301 123.524 74.7393 124.358 74.7393H137.969V113.576H69.9395V94.967C69.9395 94.1579 69.1325 93.3487 68.2986 93.3487H61.4929C60.686 93.3487 59.8521 94.1579 59.8521 94.967V96.5852H56.3013V86.3365C56.3013 85.5274 55.4943 84.7182 54.6604 84.7182H47.8547C47.0477 84.7182 46.2138 85.5274 46.2138 86.3365V99.8216H42.69V93.0791C42.69 92.27 41.883 91.4608 41.0491 91.4608H34.2434C33.4364 91.4608 32.6025 92.27 32.6025 93.0791V113.307H22.273V47.769H29.6167C32.3335 65.5694 47.8547 78.2454 65.7969 78.2454C71.7955 78.2454 78.0363 76.6271 83.2011 73.9301L106.335 96.8548C110.424 100.9 116.96 100.9 121.022 96.8548C125.111 92.8093 125.111 86.3365 121.022 82.291L102.515 63.9512L97.8884 59.3662C99.7983 55.5904 101.143 51.8146 101.977 47.769H138.157V51.2751H137.969ZM103.134 69.6149L93.0733 79.5939L90.8944 77.4363L100.955 67.4573L103.134 69.6149ZM118.359 84.4485C121.076 87.1456 121.076 91.4609 118.359 94.4276C115.642 97.1246 111.284 97.1246 108.299 94.4276L95.7902 81.7515L105.851 71.7725L118.359 84.4485ZM65.5817 9.20142C81.6409 9.20142 94.6873 20.2592 97.9691 34.8232C99.879 43.4537 98.2381 51.8145 94.1493 58.8268C93.8803 59.3662 93.8803 60.445 94.4183 60.9844L98.5071 65.0299L88.4465 75.0089L84.3578 70.9634C83.8198 70.424 82.9859 70.4241 82.1789 70.6938C77.0141 73.6605 71.2845 75.2786 65.3127 75.2786C47.0746 75.2786 32.1184 60.9844 32.1184 42.1052C32.6564 23.226 47.6126 9.20142 65.5817 9.20142ZM10.3295 123.286V46.6902C10.3295 40.7567 15.2253 36.1717 20.9549 36.1717H29.4015C28.8635 38.8687 28.8635 41.8355 29.1325 44.5326H20.4169C19.6099 44.5326 18.776 45.3416 18.776 46.1507V123.825C18.776 124.634 19.583 125.443 20.4169 125.443H139.61C140.417 125.443 141.251 124.634 141.251 123.825V46.1507C141.251 45.3416 140.444 44.5326 139.61 44.5326H102.058C102.327 41.8355 102.058 38.8687 101.52 36.1717H138.803C144.802 36.1717 149.428 41.0264 149.428 46.6902V123.286C149.428 129.219 144.533 133.804 138.803 133.804C133.1 133.804 102.892 133.804 96.6241 133.804C95.8171 133.804 94.9832 134.613 94.9832 135.422V140.547H64.7747V135.422C64.7747 134.613 63.9677 133.804 63.1338 133.804C56.5972 133.804 38.655 133.804 20.9549 133.804C14.9563 133.804 10.3295 129.219 10.3295 123.286ZM23.9408 137.31H39.1661V140.816H23.9408V137.31ZM148.03 154.032H11.9704C7.34364 154.032 3.52387 150.256 3.52387 145.671C3.52387 141.086 7.34364 137.31 11.9704 137.31H20.4169V142.435C20.4169 143.244 21.2239 144.053 22.0578 144.053H40.8339C41.6409 144.053 42.4748 143.244 42.4748 142.435V137.31H61.2509V142.435C61.2509 143.244 62.0578 144.053 62.8917 144.053H96.8931C97.7001 144.053 98.5339 143.244 98.5339 142.435V137.31H117.31V142.435C117.31 143.244 118.117 144.053 118.951 144.053H137.727C138.534 144.053 139.368 143.244 139.368 142.435V137.31H148.083C152.71 137.31 156.53 141.086 156.53 145.671C156.53 150.256 152.656 154.032 148.03 154.032Z" fill="black"/>
<path d="M65.3123 70.1567C73.1939 70.1567 80.5645 66.9203 85.4602 61.5262C85.4602 61.5262 85.7292 61.5263 85.7292 61.2566C95.7897 50.4685 95.7897 33.7469 85.7292 22.9588C85.4602 22.689 85.4602 22.6889 85.4602 22.6889C80.2955 17.5646 73.2208 14.0586 65.3123 14.0586C49.7911 14.0586 37.0137 26.4648 37.0137 42.1076C37.2827 57.4806 49.7911 70.1567 65.3123 70.1567ZM46.2672 26.4649C47.9081 27.8134 49.5221 29.1618 51.163 29.971C50.356 33.2074 49.7911 36.7135 49.7911 40.2196H40.5375C41.0755 35.0953 42.9854 30.2407 46.2672 26.4649ZM90.0601 40.4894H80.8065C80.8065 36.7136 80.2686 33.2075 79.4347 30.2408C81.0756 29.1619 82.9585 28.083 84.3304 26.7345C87.6122 30.2406 89.7911 35.0954 90.0601 40.4894ZM84.3573 57.7503C82.7164 56.4018 81.1024 55.0533 79.4616 54.2442C80.2685 51.0078 80.8335 47.5017 80.8335 43.9955H90.087C89.7911 49.1199 87.6122 53.9745 84.3573 57.7503ZM67.2221 53.9746C70.208 54.2443 72.9249 54.7837 75.6687 55.8625C73.7588 61.5263 70.7729 65.302 67.2221 66.3808V53.9746ZM67.2221 50.4685V43.7259H77.5517C77.5517 46.9623 77.0137 49.929 76.4757 52.626C73.4629 51.2775 70.208 50.7382 67.2221 50.4685ZM67.2221 40.4894V33.7469C70.477 33.4772 73.4898 32.9378 76.4757 31.5893C77.0137 34.2863 77.5517 37.253 77.5517 40.4894H67.2221ZM67.2221 30.2408V17.5647C70.746 18.6435 73.7588 22.6889 75.6687 28.083C72.9249 29.4315 69.939 30.2408 67.2221 30.2408ZM63.6714 30.2408C60.6855 29.9711 57.9686 29.4316 55.2248 28.3528C57.1347 22.689 60.1206 18.9131 63.6714 17.8343V30.2408ZM63.6714 33.7469V40.4894H53.3419C53.3419 37.253 53.8799 34.2863 54.4178 31.5893C57.4037 32.9378 60.4165 33.4772 63.6714 33.7469ZM63.6714 43.7259V50.4685C60.4165 50.7382 57.4037 51.2775 54.4178 52.626C53.8799 49.929 53.3419 46.9623 53.3419 43.7259H63.6714ZM63.6714 53.9746V66.6506C60.1475 65.5718 57.1347 61.5262 55.2248 56.1322C57.9686 54.7836 60.6855 53.9746 63.6714 53.9746ZM56.3277 65.0323C53.6109 63.9535 50.894 62.3353 48.7151 60.1777C49.7911 59.0989 51.163 58.2898 52.2659 57.4807C53.3418 60.4474 54.6869 62.8747 56.3277 65.0323ZM78.3587 57.4807C79.7305 58.2898 80.8066 59.0989 81.9094 60.1777C79.9996 62.3353 77.2827 63.9535 74.5658 65.0323C75.9108 62.8747 77.5517 60.4474 78.3587 57.4807ZM78.3587 26.7345C77.2827 23.7678 75.9108 21.3405 74.2699 19.1828C76.9868 20.2617 79.7037 21.8798 81.8826 24.0375C81.0756 25.1163 79.7305 25.9254 78.3587 26.7345ZM52.239 26.7345C50.8671 25.9254 49.7911 25.1163 48.6882 24.0375C50.8671 22.1495 53.5839 20.5314 56.3008 19.1828C54.6868 21.3405 53.3419 23.7678 52.239 26.7345ZM49.7911 43.7259C49.7911 47.5017 50.3291 51.0078 51.163 53.9746C49.5221 55.0534 47.6391 56.1322 46.2672 57.4807C43.0123 53.7048 41.1025 48.8501 40.5645 43.4561H49.818V43.7259H49.7911Z" fill="black"/>
<path d="M131.164 24.3061C136.866 24.3061 141.493 19.7212 141.493 14.0574C141.493 8.39367 136.866 3.80859 131.164 3.80859C125.461 3.80859 120.834 8.66337 120.834 14.0574C120.834 19.4515 125.434 24.3061 131.164 24.3061ZM131.164 7.31486C134.983 7.31486 137.969 10.2816 137.969 14.0574C137.969 17.8333 134.983 20.8 131.164 20.8C127.344 20.8 124.358 17.8333 124.358 14.0574C124.358 10.5513 127.344 7.31486 131.164 7.31486Z" fill="black"/>
<path d="M17.135 25.9226C20.9548 25.9226 23.9406 22.9559 23.9406 19.1801C23.9406 15.4042 20.9548 12.4375 17.135 12.4375C13.3152 12.4375 10.3293 15.4042 10.3293 19.1801C10.3293 22.9559 13.3421 25.9226 17.135 25.9226ZM17.135 15.9436C19.0449 15.9436 20.6858 17.562 20.6858 19.4499C20.6858 21.3378 19.0449 22.956 17.135 22.956C15.2251 22.956 13.5842 21.3378 13.5842 19.4499C13.6111 17.2922 15.2251 15.9436 17.135 15.9436Z" fill="black"/>
<path d="M148.837 17.5625C150.182 17.5625 151.284 18.6412 151.284 19.9897C151.284 21.3382 150.182 22.4171 148.837 22.4171C147.492 22.4171 146.389 21.3382 146.389 19.9897C146.389 18.6412 147.492 17.5625 148.837 17.5625Z" fill="black"/>
<path d="M109.671 12.7109C111.016 12.7109 112.119 13.7896 112.119 15.1382C112.119 16.4867 111.016 17.5656 109.671 17.5656C108.326 17.5656 107.224 16.4867 107.224 15.1382C107.224 13.7896 108.3 12.7109 109.671 12.7109Z" fill="black"/>
<path d="M31.5543 2.46094C32.8993 2.46094 34.0022 3.53981 34.0022 4.88833C34.0022 6.23684 32.8993 7.31572 31.5543 7.31572C30.2093 7.31572 29.1064 6.23684 29.1064 4.88833C29.1064 3.53981 30.2093 2.46094 31.5543 2.46094Z" fill="black"/>
<path d="M5.97035 26.1953C7.31534 26.1953 8.4182 27.274 8.4182 28.6225C8.4182 29.9711 7.31534 31.0499 5.97035 31.0499C4.62536 31.0499 3.52246 29.9711 3.52246 28.6225C3.52246 27.274 4.62536 26.1953 5.97035 26.1953Z" fill="black"/>
</svg>
