<svg width="160" height="160" viewBox="0 0 160 160" fill="none" xmlns="http://www.w3.org/2000/svg">
<path d="M148.299 134.571C151.284 132.146 153.194 128.104 153.194 124.062V47.5275C153.194 39.9819 146.927 33.5142 139.045 33.5142H124.896C125.434 32.4363 125.703 31.3583 125.703 30.2804V18.423C125.703 14.6502 122.717 11.6858 118.897 11.6858H111.553L103.107 2.25381C102.838 1.98432 102.3 1.71484 101.735 1.71484C101.735 1.71484 100.928 1.71484 100.363 2.25381L91.9166 11.6858H82.9321C79.1123 11.6858 76.1264 14.6502 76.1264 18.423V30.2804C76.1264 31.3583 76.3954 32.7057 76.9334 33.5142H20.9549C13.3423 33.5142 6.80567 39.7124 6.80567 47.5275V124.062C6.80567 128.373 8.71555 132.146 11.7014 134.571C5.16478 134.571 0 139.961 0 146.429C0 152.897 5.43377 158.286 11.9704 158.286H148.03C154.566 158.286 160 152.897 160 146.429C160 139.961 154.835 134.841 148.299 134.571ZM120.807 138.075H136.032V141.578H120.807V138.075ZM102.031 5.75713L107.196 11.6858H96.8662L102.031 5.75713ZM80 30.2804V18.423C80 16.5366 81.3719 15.1891 83.2549 15.1891H89.2535L87.3437 17.345C86.2677 18.423 87.0747 20.0399 88.7155 20.0399C89.2535 20.0399 89.5225 19.7704 90.0874 19.5009L94.1762 14.9196H110.773L113.221 17.6145C113.759 18.423 114.862 18.423 115.669 17.884C116.476 17.345 116.476 16.2671 115.938 15.4586L115.4 14.9196H119.758C121.668 14.9196 123.013 16.2671 123.013 18.1535V30.0109C123.013 31.8973 121.641 33.2447 119.758 33.2447H83.2549C81.3719 33.5142 80 32.1668 80 30.2804ZM10.3295 124.062V47.5275C10.3295 41.5988 15.2253 37.0175 20.9549 37.0175C25.0437 37.0175 135.79 37.0175 139.045 37.0175C145.044 37.0175 149.671 41.8683 149.671 47.5275V124.062C149.671 129.99 144.775 134.571 139.045 134.571C133.342 134.571 103.134 134.571 96.8662 134.571C96.0592 134.571 95.2253 135.38 95.2253 136.188V141.309H64.7478V136.188C64.7478 135.38 63.9408 134.571 63.1069 134.571C56.5703 134.571 38.6281 134.571 20.9281 134.571C14.9563 134.571 10.3295 129.99 10.3295 124.062ZM23.9408 138.075H39.193V141.578H23.9408V138.075ZM148.03 154.783H11.9704C7.34366 154.783 3.52389 151.01 3.52389 146.429C3.52389 141.848 7.34366 138.075 11.9704 138.075H20.417V143.195C20.417 144.003 21.224 144.812 22.0578 144.812H40.8339C41.6409 144.812 42.4748 144.003 42.4748 143.195V138.075H61.2509V143.195C61.2509 144.003 62.0578 144.812 62.8917 144.812H96.8931C97.7001 144.812 98.534 144.003 98.534 143.195V138.075H117.31V143.195C117.31 144.003 118.117 144.812 118.951 144.812H137.727C138.534 144.812 139.368 144.003 139.368 143.195V138.075H148.083C152.71 138.075 156.53 141.848 156.53 146.429C156.449 151.01 152.656 154.783 148.03 154.783Z" fill="black"/>
<path d="M20.4176 126.217H139.611C140.418 126.217 141.251 125.408 141.251 124.6C141.251 122.714 141.251 48.066 141.251 46.988C141.251 46.1796 140.445 45.3711 139.611 45.3711C119.194 45.3711 35.4008 45.3711 20.4176 45.3711C19.6106 45.3711 18.7767 46.1796 18.7767 46.988C18.7767 47.7965 18.7767 122.714 18.7767 124.6C18.7767 125.408 19.5837 126.217 20.4176 126.217ZM22.3006 57.2285H30.7471V64.7741C30.7471 67.1995 28.8373 69.0859 26.3894 69.0859C23.9415 69.0859 22.0316 67.1995 22.0316 64.7741V57.2285H22.3006ZM129.254 57.2285H137.701V64.7741C137.701 67.1995 135.791 69.0859 133.343 69.0859C130.895 69.0859 128.985 67.1995 128.985 64.7741V57.2285H129.254ZM117.553 57.2285H125.999V64.7741C125.999 67.1995 124.089 69.0859 121.642 69.0859C119.194 69.0859 117.284 67.1995 117.284 64.7741V57.2285H117.553ZM105.582 57.2285H114.029V64.7741C114.029 67.1995 112.119 69.0859 109.671 69.0859C107.223 69.0859 105.313 67.1995 105.313 64.7741V57.2285H105.582ZM93.612 57.2285H102.058V64.7741C102.058 67.1995 100.149 69.0859 97.7007 69.0859C95.2529 69.0859 93.612 66.93 93.612 64.7741V57.2285ZM81.6416 57.2285H90.0881V64.7741C90.0881 67.1995 88.1782 69.0859 85.7303 69.0859C83.2824 69.0859 81.3725 67.1995 81.3725 64.7741V57.2285H81.6416ZM69.9401 57.2285H78.3867V64.7741C78.3867 67.1995 76.4768 69.0859 74.0289 69.0859C71.581 69.0859 69.6711 67.1995 69.6711 64.7741V57.2285H69.9401ZM57.9697 57.2285H66.4163V64.7741C66.4163 67.1995 64.5064 69.0859 62.0585 69.0859C59.6106 69.0859 57.7007 67.1995 57.7007 64.7741V57.2285H57.9697ZM45.9724 57.2285H54.419V64.7741C54.419 67.1995 52.5091 69.0859 50.0612 69.0859C47.6133 69.0859 45.7034 67.1995 45.7034 64.7741V57.2285H45.9724ZM34.002 57.2285H42.4486V64.7741C42.4486 67.1995 40.5387 69.0859 38.0908 69.0859C35.6429 69.0859 33.733 67.1995 33.733 64.7741V57.2285H34.002ZM32.388 69.3554C35.3739 73.1282 41.1036 73.1282 44.3584 69.3554C47.3443 73.1282 53.074 73.1282 56.3288 69.3554C59.3147 73.1282 65.0444 73.1282 68.2993 69.3554C71.2851 73.1282 77.0148 73.1282 80.2697 69.3554C83.2555 73.1282 88.9852 73.1282 92.2401 69.3554C95.2259 73.1282 100.956 73.1282 104.21 69.3554C107.196 73.1282 112.926 73.1282 116.181 69.3554C119.167 73.1282 124.896 73.1282 128.151 69.3554C130.599 72.3197 134.957 73.1282 138.481 70.9723V114.36H66.1204C71.8231 110.856 75.9119 104.658 76.4499 97.3819H112.092C112.899 97.3819 113.733 96.5734 113.733 95.765C113.733 94.9565 112.926 94.1481 112.092 94.1481H74.8359C74.0289 94.1481 73.195 94.9565 73.195 95.765C73.195 106.005 64.7485 114.36 54.419 114.36C44.0894 114.36 35.6429 106.005 35.6429 95.765C35.6429 94.9565 34.8359 94.1481 34.002 94.1481H22.0316V70.9723C25.5824 73.1282 29.9401 72.5892 32.388 69.3554ZM42.7176 114.36H22.0316V97.3819H32.3611C32.926 104.658 37.0148 110.856 42.7176 114.36ZM22.3006 122.714V117.593H137.943V122.714H22.3006ZM137.97 53.7252H129.523V48.6049H137.97V53.7252ZM125.999 53.7252H117.553V48.6049H125.999V53.7252ZM114.002 53.7252H105.555V48.6049H114.002V53.7252ZM102.032 53.7252H93.5851V48.6049H102.032V53.7252ZM90.3302 53.7252H81.8837V48.6049H90.3302V53.7252ZM78.3598 53.7252H69.9132V48.6049H78.3598V53.7252ZM66.3894 53.7252H57.9428V48.6049H66.3894V53.7252ZM54.419 53.7252H45.9724V48.6049H54.419V53.7252ZM42.7176 53.7252H34.271V48.6049H42.7176V53.7252ZM30.7471 48.6049V53.7252H22.3006V48.6049H30.7471Z" fill="black"/>
<path d="M54.4195 111.128C62.866 111.128 69.6717 104.391 69.6717 96.0366C69.6717 87.6825 62.866 80.9453 54.4195 80.9453C45.973 80.9453 39.1942 87.413 39.1942 95.767C39.1942 104.121 45.973 111.128 54.4195 111.128ZM54.4195 84.1792C60.9561 84.1792 66.3899 89.5689 66.3899 96.0366C66.3899 102.504 60.9561 107.894 54.4195 107.894C47.8828 107.894 42.4491 102.504 42.4491 96.0366C42.4491 89.5689 47.8828 84.1792 54.4195 84.1792Z" fill="black"/>
<path d="M50.3306 98.459L48.9587 101.154C50.3306 102.232 52.2136 102.771 53.8545 102.771V104.927H55.4954V102.771C57.4053 102.771 59.0193 101.962 59.8531 100.615C60.3911 99.537 60.3911 98.1895 59.8531 97.1116C59.5841 96.3031 58.7772 95.7642 57.6743 95.2252C56.5983 94.6862 55.4954 94.4167 55.2264 94.4167V91.7219C56.5983 91.9914 58.2123 92.7998 58.2123 93.0693L59.5842 90.3744C59.0462 90.105 58.5082 89.8355 57.6743 89.566C56.8673 89.2965 56.0334 89.027 55.2264 89.027V87.1406H53.8545V89.027C51.9446 89.2965 50.5996 90.105 49.7657 91.7219C49.2277 92.7998 49.2277 94.1473 49.7657 94.9557C50.0347 95.7642 50.8417 96.3032 51.6756 96.8421C52.7516 97.3811 53.8545 97.6506 54.1235 97.6506V100.076C52.5095 99.8065 50.5996 98.7285 50.3306 98.459ZM55.2264 97.6506C55.7644 97.9201 56.0334 97.9201 56.3024 98.1896C56.5714 98.4591 56.5714 98.7286 56.5714 98.998C56.5714 99.537 56.0334 100.076 55.1995 100.076V97.6506H55.2264ZM53.3434 93.6083C53.0744 93.6083 52.8054 93.3388 52.8054 93.0693C52.8054 92.5303 53.3434 91.9914 54.1773 91.9914V94.4167C53.8814 94.1473 53.6124 93.8778 53.3434 93.6083Z" fill="black"/>
<path d="M120.807 89.0312H103.672C102.865 89.0312 102.031 89.8397 102.031 90.6482C102.031 91.4566 102.838 92.2651 103.672 92.2651H120.807C121.614 92.2651 122.448 91.4566 122.448 90.6482C122.448 89.8397 121.641 89.0312 120.807 89.0312Z" fill="black"/>
<path d="M93.6129 87.4096H129.255C130.062 87.4096 130.896 86.6011 130.896 85.7927C130.896 84.9842 130.089 84.1758 129.255 84.1758H93.6129C92.8059 84.1758 91.972 84.9842 91.972 85.7927C91.972 86.6011 92.779 87.4096 93.6129 87.4096Z" fill="black"/>
<path d="M103.94 82.2885H129.521C130.328 82.2885 131.162 81.4801 131.162 80.6716C131.162 79.8632 130.355 79.0547 129.521 79.0547H103.94C103.133 79.0547 102.299 79.8632 102.299 80.6716C102.03 81.7496 102.864 82.2885 103.94 82.2885Z" fill="black"/>
<path d="M22.3014 20.0363C26.9282 20.0363 30.7479 16.2634 30.7479 11.6822C30.7479 7.10091 26.9282 3.32812 22.3014 3.32812C17.6746 3.32812 13.8549 7.10091 13.8549 11.6822C13.8818 16.2634 17.4056 20.0363 22.3014 20.0363ZM22.3014 6.56195C25.0183 6.56195 27.4662 8.71782 27.4662 11.6822C27.4662 14.377 25.2873 16.8024 22.3014 16.8024C19.3155 16.8024 17.1366 14.6465 17.1366 11.6822C17.1366 8.98731 19.3155 6.56195 22.3014 6.56195Z" fill="black"/>
<path d="M146.387 26.779C150.207 26.779 153.193 23.8146 153.193 20.0418C153.193 16.269 150.207 13.3047 146.387 13.3047C142.567 13.3047 139.581 16.269 139.581 20.0418C139.581 23.8146 142.594 26.779 146.387 26.779ZM146.387 16.808C148.297 16.808 149.938 18.4249 149.938 20.3113C149.938 22.1977 148.297 23.8146 146.387 23.8146C144.477 23.8146 142.863 22.1977 142.863 20.3113C142.863 18.1554 144.477 16.808 146.387 16.808Z" fill="black"/>
<path d="M130.062 3.32812C131.407 3.32812 132.51 4.40605 132.51 5.75348C132.51 7.10091 131.407 8.17884 130.062 8.17884C128.717 8.17884 127.614 7.10091 127.614 5.75348C127.614 4.40605 128.717 3.32812 130.062 3.32812Z" fill="black"/>
<path d="M88.4456 84.1758C89.3602 84.1758 90.0865 84.9034 90.0865 85.7927C90.0865 86.682 89.3602 87.4096 88.4456 87.4096C87.5579 87.4096 86.8047 86.682 86.8047 85.7927C86.8047 84.9034 87.531 84.1758 88.4456 84.1758Z" fill="black"/>
<path d="M72.3876 4.94531C73.7326 4.94531 74.8355 6.02328 74.8355 7.37071C74.8355 8.71814 73.7326 9.79607 72.3876 9.79607C71.0426 9.79607 69.9397 8.71814 69.9397 7.37071C69.9397 6.02328 71.0157 4.94531 72.3876 4.94531Z" fill="black"/>
<path d="M50.3296 18.4219C51.6746 18.4219 52.7775 19.4998 52.7775 20.8473C52.7775 22.1947 51.6746 23.2726 50.3296 23.2726C48.9846 23.2726 47.8817 22.1947 47.8817 20.8473C47.8817 19.4998 48.9846 18.4219 50.3296 18.4219Z" fill="black"/>
<path d="M7.61193 23.543C8.95692 23.543 10.0598 24.6209 10.0598 25.9683C10.0598 27.3158 8.95692 28.3937 7.61193 28.3937C6.26694 28.3937 5.16406 27.3158 5.16406 25.9683C5.16406 24.6209 6.26694 23.543 7.61193 23.543Z" fill="black"/>
</svg>
