<svg width="160" height="161" viewBox="0 0 160 161" fill="none" xmlns="http://www.w3.org/2000/svg">
<path d="M148.299 135.246C151.284 132.831 153.194 128.806 153.194 124.781V48.5764C153.194 41.0632 146.927 34.6234 139.045 34.6234H124.896C125.434 33.5501 125.703 32.4768 125.703 31.4035V19.5971C125.703 15.8406 122.717 12.889 118.897 12.889H111.553L103.107 3.49758C102.838 3.22926 102.3 2.96094 101.735 2.96094C101.735 2.96094 100.928 2.96093 100.363 3.49758L91.9166 12.889H82.9321C79.1123 12.889 76.1264 15.8406 76.1264 19.5971V31.4035C76.1264 32.4768 76.3954 33.8184 76.9334 34.6234H20.9549C13.3423 34.6234 6.80567 40.7949 6.80567 48.5764V124.781C6.80567 129.074 8.71555 132.831 11.7014 135.246C5.16478 135.246 0 140.612 0 147.052C0 153.492 5.43377 158.858 11.9704 158.858H148.03C154.566 158.858 160 153.492 160 147.052C160 140.612 154.835 135.514 148.299 135.246ZM120.807 138.734H136.032V142.222H120.807V138.734ZM102.031 6.98583L107.196 12.889H96.8662L102.031 6.98583ZM80 31.4035V19.5971C80 17.7189 81.3719 16.3772 83.2549 16.3772H89.2535L87.3437 18.5239C86.2677 19.5972 87.0747 21.2071 88.7155 21.2071C89.2535 21.2071 89.5225 20.9388 90.0874 20.6705L94.1762 16.1089H110.773L113.221 18.7922C113.759 19.5971 114.862 19.5972 115.669 19.0605C116.476 18.5238 116.476 17.4506 115.938 16.6456L115.4 16.1089H119.758C121.668 16.1089 123.013 17.4506 123.013 19.3288V31.1352C123.013 33.0135 121.641 34.3551 119.758 34.3551H83.2549C81.3719 34.6234 80 33.2818 80 31.4035ZM10.3295 124.781V48.5764C10.3295 42.6732 15.2253 38.1117 20.9549 38.1117C25.0437 38.1117 135.79 38.1117 139.045 38.1117C145.044 38.1117 149.671 42.9415 149.671 48.5764V124.781C149.671 130.684 144.775 135.246 139.045 135.246C133.342 135.246 103.134 135.246 96.8662 135.246C96.0592 135.246 95.2253 136.051 95.2253 136.856V141.954H64.7478V136.856C64.7478 136.051 63.9408 135.246 63.1069 135.246C56.5703 135.246 38.6281 135.246 20.9281 135.246C14.9563 135.246 10.3295 130.684 10.3295 124.781ZM23.9408 138.734H39.193V142.222H23.9408V138.734ZM148.03 155.37H11.9704C7.34366 155.37 3.52389 151.614 3.52389 147.052C3.52389 142.49 7.34366 138.734 11.9704 138.734H20.417V143.832C20.417 144.637 21.224 145.442 22.0578 145.442H40.8339C41.6409 145.442 42.4748 144.637 42.4748 143.832V138.734H61.2509V143.832C61.2509 144.637 62.0578 145.442 62.8917 145.442H96.8931C97.7001 145.442 98.534 144.637 98.534 143.832V138.734H117.31V143.832C117.31 144.637 118.117 145.442 118.951 145.442H137.727C138.534 145.442 139.368 144.637 139.368 143.832V138.734H148.083C152.71 138.734 156.53 142.49 156.53 147.052C156.449 151.614 152.656 155.37 148.03 155.37Z" fill="black"/>
<path d="M20.4181 126.924H139.611C140.418 126.924 141.252 126.119 141.252 125.314C141.252 123.435 141.252 49.1091 141.252 48.0358C141.252 47.2308 140.445 46.4258 139.611 46.4258C119.194 46.4258 35.4013 46.4258 20.4181 46.4258C19.6111 46.4258 18.7772 47.2308 18.7772 48.0358C18.7772 48.8407 18.7772 123.435 18.7772 125.314C18.7772 126.119 19.5842 126.924 20.4181 126.924ZM22.3011 58.2322H30.7476V65.7452C30.7476 68.1602 28.8378 70.0385 26.3899 70.0385C23.942 70.0385 22.0321 68.1602 22.0321 65.7452V58.2322H22.3011ZM129.255 58.2322H137.701V65.7452C137.701 68.1602 135.791 70.0385 133.343 70.0385C130.896 70.0385 128.986 68.1602 128.986 65.7452V58.2322H129.255ZM117.553 58.2322H126V65.7452C126 68.1602 124.09 70.0385 121.642 70.0385C119.194 70.0385 117.284 68.1602 117.284 65.7452V58.2322H117.553ZM105.583 58.2322H114.029V65.7452C114.029 68.1602 112.12 70.0385 109.672 70.0385C107.224 70.0385 105.314 68.1602 105.314 65.7452V58.2322H105.583ZM93.6124 58.2322H102.059V65.7452C102.059 68.1602 100.149 70.0385 97.7012 70.0385C95.2533 70.0385 93.6124 67.8919 93.6124 65.7452V58.2322ZM81.6421 58.2322H90.0886V65.7452C90.0886 68.1602 88.1787 70.0385 85.7308 70.0385C83.2829 70.0385 81.373 68.1602 81.373 65.7452V58.2322H81.6421ZM69.9406 58.2322H78.3872V65.7452C78.3872 68.1602 76.4773 70.0385 74.0294 70.0385C71.5815 70.0385 69.6716 68.1602 69.6716 65.7452V58.2322H69.9406ZM57.9702 58.2322H66.4168V65.7452C66.4168 68.1602 64.5069 70.0385 62.059 70.0385C59.6111 70.0385 57.7012 68.1602 57.7012 65.7452V58.2322H57.9702ZM45.9729 58.2322H54.4194V65.7452C54.4194 68.1602 52.5096 70.0385 50.0617 70.0385C47.6138 70.0385 45.7039 68.1602 45.7039 65.7452V58.2322H45.9729ZM34.0025 58.2322H42.4491V65.7452C42.4491 68.1602 40.5392 70.0385 38.0913 70.0385C35.6434 70.0385 33.7335 68.1602 33.7335 65.7452V58.2322H34.0025ZM32.3885 70.3068C35.3744 74.0634 41.1041 74.0634 44.3589 70.3068C47.3448 74.0634 53.0745 74.0634 56.3293 70.3068C59.3152 74.0634 65.0449 74.0634 68.2998 70.3068C71.2856 74.0634 77.0153 74.0634 80.2702 70.3068C83.256 74.0634 88.9857 74.0634 92.2406 70.3068C95.2264 74.0634 100.956 74.0634 104.211 70.3068C107.197 74.0634 112.927 74.0634 116.181 70.3068C119.167 74.0634 124.897 74.0634 128.152 70.3068C130.6 73.2584 134.957 74.0634 138.481 71.9168V115.117H66.1209C71.8236 111.629 75.9124 105.458 76.4504 98.2127H112.093C112.9 98.2127 113.734 97.4077 113.734 96.6027C113.734 95.7978 112.927 94.9928 112.093 94.9928H74.8364C74.0294 94.9928 73.1955 95.7978 73.1955 96.6027C73.1955 106.799 64.749 115.117 54.4194 115.117C44.0899 115.117 35.6434 106.799 35.6434 96.6027C35.6434 95.7978 34.8364 94.9928 34.0025 94.9928H22.0321V71.9168C25.5829 74.0634 29.9406 73.5267 32.3885 70.3068ZM42.718 115.117H22.0321V98.2127H32.3616C32.9265 105.458 37.0153 111.629 42.718 115.117ZM22.3011 123.435V118.337H137.943V123.435H22.3011ZM137.97 54.7439H129.524V49.6457H137.97V54.7439ZM126 54.7439H117.553V49.6457H126V54.7439ZM114.003 54.7439H105.556V49.6457H114.003V54.7439ZM102.032 54.7439H93.5855V49.6457H102.032V54.7439ZM90.3307 54.7439H81.8841V49.6457H90.3307V54.7439ZM78.3603 54.7439H69.9137V49.6457H78.3603V54.7439ZM66.3899 54.7439H57.9433V49.6457H66.3899V54.7439ZM54.4194 54.7439H45.9729V49.6457H54.4194V54.7439ZM42.718 54.7439H34.2715V49.6457H42.718V54.7439ZM30.7476 49.6457V54.7439H22.3011V49.6457H30.7476Z" fill="black"/>
<path d="M54.4191 111.9C62.8657 111.9 69.6713 105.192 69.6713 96.8739C69.6713 88.5558 62.8657 81.8477 54.4191 81.8477C45.9726 81.8477 39.1938 88.2875 39.1938 96.6056C39.1938 104.924 45.9726 111.9 54.4191 111.9ZM54.4191 85.0676C60.9558 85.0676 66.3895 90.4341 66.3895 96.8739C66.3895 103.314 60.9558 108.68 54.4191 108.68C47.8825 108.68 42.4487 103.314 42.4487 96.8739C42.4487 90.4341 47.8825 85.0676 54.4191 85.0676Z" fill="black"/>
<path d="M50.3303 99.2892L48.9584 101.972C50.3303 103.046 52.2132 103.582 53.8541 103.582V105.729H55.495V103.582C57.4049 103.582 59.0189 102.777 59.8528 101.436C60.3908 100.363 60.3908 99.0209 59.8528 97.9476C59.5838 97.1426 58.7768 96.606 57.6739 96.0693C56.5979 95.5327 55.495 95.2643 55.226 95.2643V92.5811C56.5979 92.8494 58.2119 93.6544 58.2119 93.9227L59.5838 91.2394C59.0458 90.9711 58.5078 90.7028 57.6739 90.4345C56.8669 90.1662 56.033 89.8978 55.226 89.8978V88.0195H53.8541V89.8978C51.9443 90.1661 50.5992 90.9711 49.7654 92.5811C49.2274 93.6544 49.2274 94.996 49.7654 95.801C50.0344 96.606 50.8414 97.1426 51.6753 97.6793C52.7513 98.2159 53.8541 98.4843 54.1231 98.4843V100.899C52.5091 100.631 50.5993 99.5575 50.3303 99.2892ZM55.226 98.4843C55.764 98.7526 56.033 98.7526 56.302 99.0209C56.571 99.2892 56.571 99.5576 56.571 99.8259C56.571 100.363 56.033 100.899 55.1991 100.899V98.4843H55.226ZM53.343 94.4594C53.074 94.4594 52.805 94.191 52.805 93.9227C52.805 93.386 53.343 92.8494 54.1769 92.8494V95.2643C53.881 94.996 53.612 94.7277 53.343 94.4594Z" fill="black"/>
<path d="M120.806 89.8984H103.671C102.864 89.8984 102.03 90.7034 102.03 91.5084C102.03 92.3134 102.837 93.1184 103.671 93.1184H120.806C121.613 93.1184 122.447 92.3134 122.447 91.5084C122.447 90.7034 121.64 89.8984 120.806 89.8984Z" fill="black"/>
<path d="M93.6128 88.2863H129.255C130.062 88.2863 130.896 87.4813 130.896 86.6763C130.896 85.8714 130.089 85.0664 129.255 85.0664H93.6128C92.8058 85.0664 91.9719 85.8714 91.9719 86.6763C91.9719 87.4813 92.7789 88.2863 93.6128 88.2863Z" fill="black"/>
<path d="M103.94 83.1887H129.522C130.329 83.1887 131.163 82.3837 131.163 81.5787C131.163 80.7737 130.356 79.9688 129.522 79.9688H103.94C103.133 79.9688 102.299 80.7737 102.299 81.5787C102.03 82.652 102.864 83.1887 103.94 83.1887Z" fill="black"/>
<path d="M22.3007 21.2065C26.9274 21.2065 30.7472 17.4499 30.7472 12.8884C30.7472 8.32685 26.9274 4.57031 22.3007 4.57031C17.6739 4.57031 13.8541 8.32685 13.8541 12.8884C13.881 17.4499 17.4049 21.2065 22.3007 21.2065ZM22.3007 7.79022C25.0175 7.79022 27.4654 9.93681 27.4654 12.8884C27.4654 15.5717 25.2865 17.9866 22.3007 17.9866C19.3148 17.9866 17.1359 15.84 17.1359 12.8884C17.1359 10.2051 19.3148 7.79022 22.3007 7.79022Z" fill="black"/>
<path d="M146.387 27.9163C150.207 27.9163 153.193 24.9647 153.193 21.2082C153.193 17.4516 150.207 14.5 146.387 14.5C142.568 14.5 139.582 17.4516 139.582 21.2082C139.582 24.9647 142.595 27.9163 146.387 27.9163ZM146.387 17.9882C148.297 17.9882 149.938 19.5982 149.938 21.4765C149.938 23.3547 148.297 24.9647 146.387 24.9647C144.478 24.9647 142.864 23.3547 142.864 21.4765C142.864 19.3298 144.478 17.9882 146.387 17.9882Z" fill="black"/>
<path d="M130.062 4.57031C131.407 4.57031 132.51 5.6436 132.51 6.98523C132.51 8.32686 131.407 9.40015 130.062 9.40015C128.717 9.40015 127.614 8.32686 127.614 6.98523C127.614 5.6436 128.717 4.57031 130.062 4.57031Z" fill="black"/>
<path d="M88.4453 85.0664C89.3599 85.0664 90.0862 85.7909 90.0862 86.6763C90.0862 87.5618 89.3599 88.2863 88.4453 88.2863C87.5576 88.2863 86.8044 87.5618 86.8044 86.6763C86.8044 85.7909 87.5307 85.0664 88.4453 85.0664Z" fill="black"/>
<path d="M72.387 6.17969C73.732 6.17969 74.8349 7.25302 74.8349 8.59465C74.8349 9.93628 73.732 11.0096 72.387 11.0096C71.042 11.0096 69.9391 9.93628 69.9391 8.59465C69.9391 7.25302 71.0151 6.17969 72.387 6.17969Z" fill="black"/>
<path d="M50.3292 19.5938C51.6742 19.5938 52.7771 20.6671 52.7771 22.0087C52.7771 23.3503 51.6742 24.4236 50.3292 24.4236C48.9842 24.4236 47.8813 23.3503 47.8813 22.0087C47.8813 20.6671 48.9842 19.5938 50.3292 19.5938Z" fill="black"/>
<path d="M7.61218 24.6953C8.95717 24.6953 10.0601 25.7686 10.0601 27.1102C10.0601 28.4519 8.95717 29.5251 7.61218 29.5251C6.26719 29.5251 5.16431 28.4519 5.16431 27.1102C5.16431 25.7686 6.26719 24.6953 7.61218 24.6953Z" fill="black"/>
</svg>
