<svg width="160" height="160" viewBox="0 0 160 160" fill="none" xmlns="http://www.w3.org/2000/svg">
<path d="M87.7208 10.3438H73.9166C73.0982 10.3438 72.2524 11.16 72.2524 11.9763C72.2524 12.7927 73.0709 13.6089 73.9166 13.6089H87.7208C88.5392 13.6089 89.3849 12.7927 89.3849 11.9763C89.3849 11.16 88.8393 10.3438 87.7208 10.3438Z" fill="black"/>
<path d="M87.7208 146.398H73.9166C73.0982 146.398 72.2524 147.215 72.2524 148.031C72.2524 148.847 73.0709 149.664 73.9166 149.664H87.7208C88.5392 149.664 89.3849 148.847 89.3849 148.031C89.3849 147.215 88.8393 146.398 87.7208 146.398Z" fill="black"/>
<path d="M111.729 0H49.9103C41.3441 0 34.1692 6.80275 34.1692 15.5102V32.381H22.0292C21.2107 32.381 20.3651 33.1973 20.3651 34.0136C20.3651 34.8299 21.1835 35.6463 22.0292 35.6463H34.1692V40.8163H18.7282C17.9098 40.8163 17.0641 41.6327 17.0641 42.449C17.0641 43.2654 17.8825 44.0816 18.7282 44.0816H34.1966V49.2518H15.1544C14.336 49.2518 13.4902 50.068 13.4902 50.8843C13.4902 51.7007 14.3087 52.5171 15.1544 52.5171H34.1966V57.6871H11.8534C11.035 57.6871 10.1892 58.5035 10.1892 59.3198C10.1892 60.1361 11.0077 60.9524 11.8534 60.9524H34.1966V66.3946H8.25232C7.43389 66.3946 6.58813 67.2108 6.58813 68.0272C6.58813 68.8435 7.40661 69.6599 8.25232 69.6599H34.1966V144.49C34.1966 152.925 41.0986 160 49.9376 160H111.756C120.323 160 127.497 153.197 127.497 144.49V15.5102C127.47 7.07486 120.295 0 111.729 0ZM123.869 136.054H37.7704V23.9457H124.142V136.054H123.869ZM111.729 156.462H49.9103C43.2811 156.462 37.7704 151.02 37.7704 144.49V139.592H124.142V144.49C123.869 151.02 118.631 156.462 111.729 156.462ZM123.869 20.4081H37.7704V15.5102C37.7704 8.97962 43.2811 3.53754 49.9103 3.53754H111.729C118.358 3.53754 123.869 8.97962 123.869 15.5102V20.4081Z" fill="black"/>
<path d="M17.9081 8.70703C19.2722 8.70703 20.3906 9.79553 20.3906 11.1561C20.3906 12.5166 19.2722 13.605 17.9081 13.605C16.5441 13.605 15.4255 12.5166 15.4255 11.1561C15.4255 9.79553 16.5441 8.70703 17.9081 8.70703Z" fill="black"/>
<path d="M24.8111 81.9023C26.1751 81.9023 27.2936 82.9907 27.2936 84.3512C27.2936 85.7118 26.1751 86.8003 24.8111 86.8003C23.447 86.8003 22.3285 85.7118 22.3285 84.3512C22.3285 82.9907 23.447 81.9023 24.8111 81.9023Z" fill="black"/>
<path d="M21.4834 149.93C22.8475 149.93 23.966 151.018 23.966 152.379C23.966 153.739 22.8475 154.828 21.4834 154.828C20.1194 154.828 19.0009 153.739 19.0009 152.379C19.0009 151.018 20.1194 149.93 21.4834 149.93Z" fill="black"/>
<path d="M136.854 42.7188C138.218 42.7188 139.337 43.8073 139.337 45.1678C139.337 46.5283 138.218 47.6167 136.854 47.6167C135.49 47.6167 134.372 46.5283 134.372 45.1678C134.372 43.8073 135.49 42.7188 136.854 42.7188Z" fill="black"/>
<path d="M145.694 90.3359C147.058 90.3359 148.177 91.4244 148.177 92.785C148.177 94.1455 147.058 95.2339 145.694 95.2339C144.33 95.2339 143.211 94.1455 143.211 92.785C143.211 91.4244 144.303 90.3359 145.694 90.3359Z" fill="black"/>
<path d="M140.427 132.793C141.791 132.793 142.91 133.881 142.91 135.242C142.91 136.602 141.791 137.691 140.427 137.691C139.063 137.691 137.945 136.602 137.945 135.242C137.945 133.881 139.063 132.793 140.427 132.793Z" fill="black"/>
<path d="M146.511 13.6055C141.819 13.6055 137.945 17.4151 137.945 22.0409C137.945 26.6668 141.819 30.4762 146.511 30.4762C151.203 30.4762 155.077 26.6668 155.077 22.0409C155.077 17.4151 151.203 13.6055 146.511 13.6055ZM146.511 27.2109C143.756 27.2109 141.273 25.0341 141.273 22.0409C141.273 19.0477 143.483 16.8708 146.511 16.8708C149.266 16.8708 151.749 19.0477 151.749 22.0409C151.749 25.0341 149.266 27.2109 146.511 27.2109Z" fill="black"/>
<path d="M16.2447 114.016C10.161 114.016 4.9231 118.914 4.9231 125.172C4.9231 131.158 9.88822 136.329 16.2447 136.329C22.6012 136.329 27.5663 131.431 27.5663 125.172C27.2935 118.914 22.3283 114.016 16.2447 114.016ZM16.2447 132.791C11.8252 132.791 8.5242 129.254 8.5242 125.172C8.5242 120.818 12.1253 117.553 16.2447 117.553C20.3914 117.553 23.9652 121.09 23.9652 125.172C23.9652 129.254 20.3914 132.791 16.2447 132.791Z" fill="black"/>
<path d="M43.0351 132.787H118.931C119.749 132.787 120.595 131.97 120.595 131.154V29.1131C120.595 28.2967 119.777 27.4805 118.931 27.4805H43.0351C42.2167 27.4805 41.3709 28.2967 41.3709 29.1131V131.154C41.0981 131.97 41.9166 132.787 43.0351 132.787ZM44.672 30.7458H117.239V129.521H44.672V30.7458Z" fill="black"/>
<path d="M65.3786 37.5547H51.5745C50.756 37.5547 49.9103 38.3709 49.9103 39.1873V52.7927C49.9103 53.609 50.7288 54.4253 51.5745 54.4253H65.3786C66.1971 54.4253 67.0427 53.609 67.0427 52.7927V39.1873C67.0427 38.3709 66.1971 37.5547 65.3786 37.5547ZM63.7144 51.1601H53.2386V40.8199H63.7144V51.1601Z" fill="black"/>
<path d="M110.093 47.6172H73.9453C73.1269 47.6172 72.2812 48.4336 72.2812 49.2499C72.2812 50.0663 73.0996 50.8825 73.9453 50.8825H110.093C110.911 50.8825 111.757 50.0663 111.757 49.2499C112.002 48.4336 111.184 47.6172 110.093 47.6172Z" fill="black"/>
<path d="M73.9166 44.3513H92.9587C93.7771 44.3513 94.6229 43.5348 94.6229 42.7185C94.6229 41.9022 93.8044 41.0859 92.9587 41.0859H73.9166C73.0982 41.0859 72.2524 41.9022 72.2524 42.7185C72.2524 43.5348 73.0982 44.3513 73.9166 44.3513Z" fill="black"/>
<path d="M65.3786 59.5938H51.5745C50.756 59.5938 49.9103 60.41 49.9103 61.2263V74.8318C49.9103 75.6481 50.7288 76.4645 51.5745 76.4645H65.3786C66.1971 76.4645 67.0427 75.6481 67.0427 74.8318V61.2263C67.0427 60.41 66.1971 59.5938 65.3786 59.5938ZM63.7144 73.1992H53.2386V62.8591H63.7144V73.1992Z" fill="black"/>
<path d="M110.093 69.9297H73.9453C73.1269 69.9297 72.2812 70.7461 72.2812 71.5624C72.2812 72.3788 73.0996 73.195 73.9453 73.195H110.093C110.911 73.195 111.757 72.3788 111.757 71.5624C112.002 70.474 111.184 69.9297 110.093 69.9297Z" fill="black"/>
<path d="M73.9166 66.3942H92.9587C93.7771 66.3942 94.6229 65.578 94.6229 64.7617C94.6229 63.9453 93.8044 63.1289 92.9587 63.1289H73.9166C73.0982 63.1289 72.2524 63.9453 72.2524 64.7617C72.2797 65.578 73.0982 66.3942 73.9166 66.3942Z" fill="black"/>
<path d="M65.3786 81.6328H51.5745C50.756 81.6328 49.9103 82.4492 49.9103 83.2656V96.871C49.9103 97.6873 50.7288 98.5036 51.5745 98.5036H65.3786C66.1971 98.5036 67.0427 97.6873 67.0427 96.871V83.2656C67.0427 82.4492 66.1971 81.6328 65.3786 81.6328ZM63.7144 95.2382H53.2386V84.8981H63.7144V95.2382Z" fill="black"/>
<path d="M110.093 91.9766H73.9453C73.1269 91.9766 72.2812 92.7928 72.2812 93.6091C72.2812 94.4255 73.0996 95.2417 73.9453 95.2417H110.093C110.911 95.2417 111.757 94.4255 111.757 93.6091C112.002 92.7928 111.184 91.9766 110.093 91.9766Z" fill="black"/>
<path d="M73.9166 88.437H92.9587C93.7771 88.437 94.6229 87.6208 94.6229 86.8045C94.6229 85.9881 93.8044 85.1719 92.9587 85.1719H73.9166C73.0982 85.1719 72.2524 85.9881 72.2524 86.8045C72.2524 87.6208 73.0982 88.437 73.9166 88.437Z" fill="black"/>
<path d="M65.3786 103.945H51.5745C50.756 103.945 49.9103 104.762 49.9103 105.578V119.183C49.9103 120 50.7288 120.816 51.5745 120.816H65.3786C66.1971 120.816 67.0427 120 67.0427 119.183V105.578C67.0427 104.49 66.1971 103.945 65.3786 103.945ZM63.7144 117.551H53.2386V107.211H63.7144V117.551Z" fill="black"/>
<path d="M110.093 114.016H73.9453C73.1269 114.016 72.2812 114.832 72.2812 115.648C72.2812 116.465 73.0996 117.281 73.9453 117.281H110.093C110.911 117.281 111.757 116.465 111.757 115.648C112.002 114.832 111.184 114.016 110.093 114.016Z" fill="black"/>
<path d="M73.9166 110.75H92.9587C93.7771 110.75 94.6229 109.933 94.6229 109.117C94.6229 108.301 93.8044 107.484 92.9587 107.484H73.9166C73.0982 107.484 72.2524 108.301 72.2524 109.117C72.2524 109.933 73.0982 110.75 73.9166 110.75Z" fill="black"/>
</svg>
