<svg width="48" height="48" viewBox="0 0 48 48" fill="none" xmlns="http://www.w3.org/2000/svg">
<path d="M44.4896 40.3726C45.3853 39.645 45.9583 38.4323 45.9583 37.2196V14.2594C45.9583 11.9957 44.078 10.0554 41.7135 10.0554H37.4687C37.6301 9.73205 37.7108 9.40867 37.7108 9.08529V5.52806C37.7108 4.39622 36.8151 3.50692 35.6691 3.50692H33.466L30.9321 0.677314C30.8514 0.596468 30.69 0.515625 30.5205 0.515625C30.5205 0.515625 30.2784 0.515623 30.1089 0.677314L27.575 3.50692H24.8796C23.7337 3.50692 22.8379 4.39622 22.8379 5.52806V9.08529C22.8379 9.40867 22.9186 9.8129 23.08 10.0554H6.28648C4.00269 10.0554 2.0417 11.9149 2.0417 14.2594V37.2196C2.0417 38.5132 2.61467 39.645 3.51043 40.3726C1.54943 40.3726 0 41.9895 0 43.9298C0 45.8701 1.63013 47.4871 3.59113 47.4871H44.4089C46.3699 47.4871 48 45.8701 48 43.9298C48 41.9895 46.4506 40.4535 44.4896 40.3726ZM36.2421 41.4236H40.8097V42.4746H36.2421V41.4236ZM30.6093 1.72831L32.1587 3.50692H29.0599L30.6093 1.72831ZM24 9.08529V5.52806C24 4.96214 24.4116 4.55792 24.9765 4.55792H26.7761L26.2031 5.20469C25.8803 5.52807 26.1224 6.01314 26.6147 6.01314C26.7761 6.01314 26.8568 5.9323 27.0262 5.85145L28.2529 4.47707H33.232L33.9664 5.28552C34.1278 5.52806 34.4586 5.52807 34.7007 5.36637C34.9428 5.20468 34.9428 4.8813 34.7814 4.63877L34.62 4.47707H35.9274C36.5003 4.47707 36.9038 4.8813 36.9038 5.44723V9.00444C36.9038 9.57036 36.4923 9.97458 35.9274 9.97458H24.9765C24.4116 10.0554 24 9.65121 24 9.08529ZM3.09886 37.2196V14.2594C3.09886 12.4808 4.56759 11.1064 6.28648 11.1064C7.51311 11.1064 40.7371 11.1064 41.7135 11.1064C43.5131 11.1064 44.9011 12.5617 44.9011 14.2594V37.2196C44.9011 38.9982 43.4324 40.3726 41.7135 40.3726C40.0027 40.3726 30.9401 40.3726 29.0599 40.3726C28.8178 40.3726 28.5676 40.6151 28.5676 40.8577V42.3938H19.4243V40.8577C19.4243 40.6151 19.1823 40.3726 18.9321 40.3726C16.9711 40.3726 11.5884 40.3726 6.27842 40.3726C4.48689 40.3726 3.09886 38.9982 3.09886 37.2196ZM7.18225 41.4236H11.7579V42.4746H7.18225V41.4236ZM44.4089 46.4361H3.59113C2.2031 46.4361 1.05717 45.3042 1.05717 43.9298C1.05717 42.5555 2.2031 41.4236 3.59113 41.4236H6.12509V42.9597C6.12509 43.2022 6.36719 43.4448 6.61735 43.4448H12.2502C12.4923 43.4448 12.7424 43.2022 12.7424 42.9597V41.4236H18.3753V42.9597C18.3753 43.2022 18.6174 43.4448 18.8675 43.4448H29.0679C29.31 43.4448 29.5602 43.2022 29.5602 42.9597V41.4236H35.193V42.9597C35.193 43.2022 35.4351 43.4448 35.6853 43.4448H41.3181C41.5602 43.4448 41.8104 43.2022 41.8104 42.9597V41.4236H44.425C45.813 41.4236 46.959 42.5555 46.959 43.9298C46.9348 45.3042 45.7969 46.4361 44.4089 46.4361Z" fill="#5030D1"/>
<path d="M6.12532 37.867H41.8832C42.1253 37.867 42.3755 37.6245 42.3755 37.382C42.3755 36.816 42.3755 14.4217 42.3755 14.0984C42.3755 13.8558 42.1334 13.6133 41.8832 13.6133C35.7581 13.6133 10.6203 13.6133 6.12532 13.6133C5.88323 13.6133 5.63306 13.8558 5.63306 14.0984C5.63306 14.3409 5.63306 36.816 5.63306 37.382C5.63306 37.6245 5.87516 37.867 6.12532 37.867ZM6.69022 17.1705H9.22418V19.4342C9.22418 20.1618 8.65122 20.7277 7.91685 20.7277C7.18249 20.7277 6.60952 20.1618 6.60952 19.4342V17.1705H6.69022ZM38.7763 17.1705H41.3103V19.4342C41.3103 20.1618 40.7373 20.7277 40.0029 20.7277C39.2686 20.7277 38.6956 20.1618 38.6956 19.4342V17.1705H38.7763ZM35.2659 17.1705H37.7998V19.4342C37.7998 20.1618 37.2269 20.7277 36.4925 20.7277C35.7581 20.7277 35.1852 20.1618 35.1852 19.4342V17.1705H35.2659ZM31.6747 17.1705H34.2087V19.4342C34.2087 20.1618 33.6357 20.7277 32.9014 20.7277C32.167 20.7277 31.594 20.1618 31.594 19.4342V17.1705H31.6747ZM28.0836 17.1705H30.6176V19.4342C30.6176 20.1618 30.0446 20.7277 29.3103 20.7277C28.5759 20.7277 28.0836 20.0809 28.0836 19.4342V17.1705ZM24.4925 17.1705H27.0265V19.4342C27.0265 20.1618 26.4535 20.7277 25.7191 20.7277C24.9848 20.7277 24.4118 20.1618 24.4118 19.4342V17.1705H24.4925ZM20.9821 17.1705H23.516V19.4342C23.516 20.1618 22.9431 20.7277 22.2087 20.7277C21.4743 20.7277 20.9014 20.1618 20.9014 19.4342V17.1705H20.9821ZM17.391 17.1705H19.9249V19.4342C19.9249 20.1618 19.352 20.7277 18.6176 20.7277C17.8832 20.7277 17.3103 20.1618 17.3103 19.4342V17.1705H17.391ZM13.7918 17.1705H16.3257V19.4342C16.3257 20.1618 15.7528 20.7277 15.0184 20.7277C14.284 20.7277 13.7111 20.1618 13.7111 19.4342V17.1705H13.7918ZM10.2006 17.1705H12.7346V19.4342C12.7346 20.1618 12.1616 20.7277 11.4273 20.7277C10.6929 20.7277 10.1199 20.1618 10.1199 19.4342V17.1705H10.2006ZM9.71644 20.8086C10.6122 21.9404 12.3311 21.9404 13.3076 20.8086C14.2033 21.9404 15.9222 21.9404 16.8987 20.8086C17.7945 21.9404 19.5134 21.9404 20.4898 20.8086C21.3856 21.9404 23.1045 21.9404 24.0809 20.8086C24.9767 21.9404 26.6956 21.9404 27.6721 20.8086C28.5678 21.9404 30.2867 21.9404 31.2632 20.8086C32.1589 21.9404 33.8778 21.9404 34.8543 20.8086C35.7501 21.9404 37.469 21.9404 38.4454 20.8086C39.1798 21.6979 40.4871 21.9404 41.5443 21.2936V34.3098H19.8361C21.547 33.2588 22.7736 31.3994 22.935 29.2165H33.6277C33.8698 29.2165 34.1199 28.974 34.1199 28.7314C34.1199 28.4889 33.8778 28.2464 33.6277 28.2464H22.4508C22.2087 28.2464 21.9585 28.4889 21.9585 28.7314C21.9585 31.8036 19.4246 34.3098 16.3257 34.3098C13.2269 34.3098 10.6929 31.8036 10.6929 28.7314C10.6929 28.4889 10.4508 28.2464 10.2006 28.2464H6.60952V21.2936C7.67475 21.9404 8.98208 21.7787 9.71644 20.8086ZM12.8153 34.3098H6.60952V29.2165H9.70838C9.87785 31.3994 11.1045 33.2588 12.8153 34.3098ZM6.69022 36.816V35.28H41.3829V36.816H6.69022ZM41.391 16.1195H38.857V14.5834H41.391V16.1195ZM37.7998 16.1195H35.2659V14.5834H37.7998V16.1195ZM34.2006 16.1195H31.6667V14.5834H34.2006V16.1195ZM30.6095 16.1195H28.0756V14.5834H30.6095V16.1195ZM27.0991 16.1195H24.5651V14.5834H27.0991V16.1195ZM23.508 16.1195H20.974V14.5834H23.508V16.1195ZM19.9168 16.1195H17.3829V14.5834H19.9168V16.1195ZM16.3257 16.1195H13.7918V14.5834H16.3257V16.1195ZM12.8153 16.1195H10.2813V14.5834H12.8153V16.1195ZM9.22418 14.5834V16.1195H6.69022V14.5834H9.22418Z" fill="#5030D1"/>
<path d="M16.3259 33.3399C18.8598 33.3399 20.9015 31.3187 20.9015 28.8125C20.9015 26.3063 18.8598 24.2852 16.3259 24.2852C13.7919 24.2852 11.7583 26.2255 11.7583 28.7317C11.7583 31.2379 13.7919 33.3399 16.3259 33.3399ZM16.3259 25.2553C18.2869 25.2553 19.917 26.8722 19.917 28.8125C19.917 30.7528 18.2869 32.3697 16.3259 32.3697C14.3649 32.3697 12.7348 30.7528 12.7348 28.8125C12.7348 26.8722 14.3649 25.2553 16.3259 25.2553Z" fill="#5030D1"/>
<path d="M15.0991 29.5401L14.6875 30.3485C15.0991 30.6719 15.664 30.8336 16.1562 30.8336V31.4804H16.6485V30.8336C17.2215 30.8336 17.7057 30.5911 17.9558 30.1868C18.1172 29.8634 18.1172 29.4592 17.9558 29.1358C17.8751 28.8933 17.633 28.7316 17.3022 28.5699C16.9794 28.4082 16.6485 28.3274 16.5678 28.3274V27.5189C16.9794 27.5998 17.4636 27.8423 17.4636 27.9231L17.8751 27.1147C17.7137 27.0338 17.5523 26.953 17.3022 26.8722C17.0601 26.7913 16.8099 26.7104 16.5678 26.7104V26.1445H16.1562V26.7104C15.5833 26.7913 15.1798 27.0338 14.9296 27.5189C14.7682 27.8423 14.7682 28.2465 14.9296 28.4891C15.0103 28.7316 15.2524 28.8933 15.5026 29.055C15.8254 29.2167 16.1562 29.2975 16.2369 29.2975V30.0251C15.7527 29.9443 15.1798 29.6209 15.0991 29.5401ZM16.5678 29.2975C16.7292 29.3784 16.8099 29.3784 16.8906 29.4592C16.9713 29.5401 16.9713 29.6209 16.9713 29.7018C16.9713 29.8634 16.8099 30.0251 16.5597 30.0251V29.2975H16.5678ZM16.0029 28.0848C15.9222 28.0848 15.8415 28.004 15.8415 27.9231C15.8415 27.7614 16.0029 27.5998 16.2531 27.5998V28.3274C16.1643 28.2465 16.0836 28.1657 16.0029 28.0848Z" fill="#5030D1"/>
<path d="M36.2422 26.7109H31.1016C30.8595 26.7109 30.6094 26.9535 30.6094 27.196C30.6094 27.4386 30.8515 27.6811 31.1016 27.6811H36.2422C36.4843 27.6811 36.7345 27.4386 36.7345 27.196C36.7345 26.9535 36.4924 26.7109 36.2422 26.7109Z" fill="#5030D1"/>
<path d="M28.0838 26.2241H38.7765C39.0186 26.2241 39.2688 25.9815 39.2688 25.739C39.2688 25.4964 39.0267 25.2539 38.7765 25.2539H28.0838C27.8417 25.2539 27.5916 25.4964 27.5916 25.739C27.5916 25.9815 27.8337 26.2241 28.0838 26.2241Z" fill="#5030D1"/>
<path d="M31.1819 24.6889H38.8564C39.0985 24.6889 39.3486 24.4464 39.3486 24.2038C39.3486 23.9613 39.1065 23.7188 38.8564 23.7188H31.1819C30.9398 23.7188 30.6896 23.9613 30.6896 24.2038C30.6089 24.5272 30.8591 24.6889 31.1819 24.6889Z" fill="#5030D1"/>
<path d="M6.69045 6.01244C8.07848 6.01244 9.22441 4.88059 9.22441 3.50621C9.22441 2.13183 8.07848 1 6.69045 1C5.30242 1 4.15649 2.13183 4.15649 3.50621C4.16456 4.88059 5.22173 6.01244 6.69045 6.01244ZM6.69045 1.97015C7.50552 1.97015 8.23989 2.61691 8.23989 3.50621C8.23989 4.31467 7.58622 5.04229 6.69045 5.04229C5.79469 5.04229 5.14103 4.39552 5.14103 3.50621C5.14103 2.69775 5.79469 1.97015 6.69045 1.97015Z" fill="#5030D1"/>
<path d="M43.9162 8.03448C45.0621 8.03448 45.9579 7.14517 45.9579 6.01333C45.9579 4.88149 45.0621 3.99219 43.9162 3.99219C42.7703 3.99219 41.8745 4.88149 41.8745 6.01333C41.8745 7.14517 42.7783 8.03448 43.9162 8.03448ZM43.9162 5.04319C44.4892 5.04319 44.9814 5.52825 44.9814 6.09417C44.9814 6.66009 44.4892 7.14517 43.9162 7.14517C43.3432 7.14517 42.859 6.66009 42.859 6.09417C42.859 5.4474 43.3432 5.04319 43.9162 5.04319Z" fill="#5030D1"/>
<path d="M39.0185 1C39.422 1 39.7529 1.32338 39.7529 1.72761C39.7529 2.13184 39.422 2.45521 39.0185 2.45521C38.6151 2.45521 38.2842 2.13184 38.2842 1.72761C38.2842 1.32338 38.6151 1 39.0185 1Z" fill="#5030D1"/>
<path d="M26.5338 25.2539C26.8081 25.2539 27.026 25.4722 27.026 25.739C27.026 26.0058 26.8081 26.2241 26.5338 26.2241C26.2675 26.2241 26.0415 26.0058 26.0415 25.739C26.0415 25.4722 26.2594 25.2539 26.5338 25.2539Z" fill="#5030D1"/>
<path d="M21.7163 1.48438C22.1198 1.48438 22.4507 1.80777 22.4507 2.21199C22.4507 2.61622 22.1198 2.9396 21.7163 2.9396C21.3128 2.9396 20.9819 2.61622 20.9819 2.21199C20.9819 1.80777 21.3047 1.48438 21.7163 1.48438Z" fill="#5030D1"/>
<path d="M15.0989 5.52734C15.5024 5.52734 15.8332 5.85073 15.8332 6.25496C15.8332 6.65919 15.5024 6.98257 15.0989 6.98257C14.6954 6.98257 14.3645 6.65919 14.3645 6.25496C14.3645 5.85073 14.6954 5.52734 15.0989 5.52734Z" fill="#5030D1"/>
<path d="M2.28368 7.0625C2.68717 7.0625 3.01804 7.38588 3.01804 7.79011C3.01804 8.19434 2.68717 8.51771 2.28368 8.51771C1.88018 8.51771 1.54932 8.19434 1.54932 7.79011C1.54932 7.38588 1.88018 7.0625 2.28368 7.0625Z" fill="#5030D1"/>
</svg>
