<svg width="200" height="200" viewBox="0 0 200 200" fill="none" xmlns="http://www.w3.org/2000/svg">
<rect width="200" height="200" rx="100" fill="#ECE2FF"/>
<path d="M130.5 78.4915C129.769 78.69 129.035 78.7662 128.279 78.7206C125.827 78.5739 123.091 77.1126 120.965 75.966L130.5 78.4915ZM130.5 78.4915L131.178 78.3078M130.5 78.4915L127.579 115.858M127.706 115.539L127.579 115.858M127.706 115.539L128.002 115.385C128.856 114.941 129.755 114.533 130.679 114.22C130.692 114.391 130.712 114.561 130.737 114.729M127.706 115.539L128.171 115.723L128.102 115.896M127.706 115.539L127.937 115.982L128.102 115.896M127.579 115.858C125.891 120.123 122.282 122.758 118.342 122.131M127.579 115.858L110.651 125.892M130.737 114.729C130.898 114.673 131.058 114.62 131.22 114.571C131.644 117.613 134.267 119.967 137.424 119.967H143.735C147.187 119.967 150 117.154 150 113.702V78.792C150 75.3406 147.187 72.5271 143.735 72.5271H137.424C134.136 72.5271 131.427 75.0816 131.178 78.3078M130.737 114.729C131.234 117.972 134.045 120.467 137.424 120.467H143.735C147.463 120.467 150.5 117.43 150.5 113.702V78.792C150.5 75.0644 147.463 72.0271 143.735 72.0271H137.424C133.993 72.0271 131.148 74.5999 130.716 77.915M130.737 114.729C129.88 115.026 129.04 115.409 128.232 115.829L128.102 115.896M131.178 78.3078L130.679 78.2694C130.688 78.1504 130.701 78.0322 130.716 77.915M131.178 78.3078L131.047 77.8253L130.716 77.915M130.716 77.915L130.37 78.0089L130.369 78.0089C129.69 78.1933 129.011 78.2638 128.309 78.2215L128.309 78.2215C125.989 78.0827 123.355 76.6873 121.203 75.526L121.203 75.526C120.735 75.2736 120.27 75.0211 119.806 74.7694C116.651 73.0565 113.568 71.3825 110.126 70.0502C105.804 68.3772 100.799 66.8964 96.0891 67.4791M128.102 115.896L128.044 116.042L128.044 116.042C126.342 120.341 122.693 123.156 118.58 122.669M118.58 122.669C117.504 124.176 115.866 125.314 114.186 125.908L114.019 125.436M118.58 122.669C118.642 122.582 118.702 122.494 118.761 122.404L118.342 122.131M118.58 122.669C118.475 122.657 118.369 122.642 118.263 122.625L118.342 122.131M114.019 125.436L114.186 125.908C113.112 126.287 111.995 126.461 110.9 126.409M114.019 125.436C112.913 125.827 111.764 125.986 110.651 125.892M114.019 125.436C115.708 124.84 117.342 123.665 118.342 122.131M110.9 126.409C109.865 127.83 108.297 128.884 106.656 129.405C104.987 129.936 103.312 129.943 101.761 129.504M110.9 126.409C110.957 126.33 111.013 126.25 111.067 126.169L110.651 125.892M110.9 126.409C110.803 126.405 110.706 126.398 110.609 126.39L110.651 125.892M101.761 129.504C101.731 129.534 101.7 129.564 101.67 129.594L101.67 129.595C99.4087 131.806 95.7877 131.884 93.088 130.883L93.0879 130.883C90.5213 129.932 87.9743 127.997 85.9157 126.367L85.9157 126.367C84.7539 125.447 83.612 124.503 82.4747 123.563C82.3856 123.49 82.2965 123.416 82.2075 123.343C80.9802 122.329 79.7561 121.321 78.5069 120.346L78.5069 120.346C75.8619 118.281 72.5104 115.85 69.2617 114.728C68.7641 117.967 65.9493 120.467 62.5756 120.467H56.2645C52.5429 120.467 49.5 117.424 49.5 113.702V78.792C49.5 75.0699 52.5429 72.0271 56.2645 72.0271H62.5756C66.0006 72.0271 68.8497 74.6041 69.2831 77.9149L69.63 78.0089L69.6301 78.0089C70.0971 78.1355 70.8245 78.066 71.7715 77.8019C73.8227 77.2293 76.7744 75.8903 79.8147 74.4157C80.9461 73.867 82.0896 73.2996 83.1972 72.75C85.0419 71.8346 86.7872 70.9686 88.2117 70.3204L88.2118 70.3203C88.6329 70.1288 89.0489 69.9331 89.4633 69.738C91.5574 68.7525 93.6125 67.7853 96.0891 67.4791M101.761 129.504C101.837 129.426 101.911 129.346 101.982 129.265L101.607 128.935M101.761 129.504C101.675 129.48 101.59 129.454 101.506 129.427C101.506 129.427 101.506 129.427 101.506 129.427C101.488 129.422 101.47 129.416 101.453 129.41L101.462 129.382L101.462 129.382L101.607 128.935M96.0891 67.4791C96.0891 67.4791 96.0891 67.4791 96.0891 67.4791L96.1505 67.9754L96.0891 67.4791ZM101.607 128.935C103.144 129.434 104.825 129.463 106.505 128.929M101.607 128.935C101.516 129.038 101.42 129.139 101.32 129.237C99.248 131.264 95.8577 131.377 93.2617 130.415C90.7802 129.495 88.2916 127.61 86.2261 125.975C85.0686 125.058 83.9304 124.118 82.7922 123.177C81.4765 122.09 80.1607 121.003 78.8146 119.952L106.505 128.929M106.505 128.929C108.142 128.409 109.693 127.329 110.651 125.892M106.505 128.929L110.651 125.892M84.7205 79.3956L84.7206 79.3955L89.7786 75.2534C90.252 74.8656 90.6699 74.5117 91.051 74.1889C92.0879 73.3106 92.8524 72.6631 93.7236 72.1928C94.8679 71.5752 96.2052 71.2697 98.612 71.3162C102.028 71.3827 105.608 72.5536 108.694 73.7476C112.143 75.0825 115.037 76.6708 117.675 78.1187C118.831 78.7535 119.939 79.3614 121.023 79.9091C124.337 81.5843 127.413 82.6825 130.777 81.9869V110.577C129.515 110.902 128.252 111.397 127.001 112.009L99.034 81.1146L98.6861 80.7302L98.3146 81.0919L96.1117 83.2366C93.3661 85.9087 89.917 88.3055 86.2788 89.4349L86.2786 89.435C83.8308 90.196 81.0177 90.4416 78.847 89.1847L78.8469 89.1846C77.9605 88.6716 76.9423 88.0195 76.3051 87.3197L84.7205 79.3956ZM84.7205 79.3956C83.4979 80.3961 82.2483 81.344 80.9968 82.288M84.7205 79.3956L80.9968 82.288M80.9968 82.288L80.9954 82.289C80.0741 82.9845 79.1645 83.6712 78.3228 84.4223C78.3228 84.4223 78.3227 84.4224 78.3227 84.4224L77.9898 84.0493C77.8842 84.1436 77.7573 84.2508 77.618 84.3685L80.9968 82.288ZM75.5018 81.2607C75.9912 80.8239 76.4966 80.4091 77.0076 80.0068C76.4955 80.2471 75.9759 80.4798 75.4563 80.6956C73.3945 81.552 71.2016 82.2036 69.3402 81.9792V110.608C74.0195 111.851 78.7578 115.408 83.0398 118.893C83.7634 119.482 84.4735 120.069 85.1692 120.644C86.6068 121.831 87.9834 122.969 89.2919 123.972C91.2372 125.463 92.9756 126.613 94.4658 127.165L94.2921 127.634L94.4659 127.165C95.6582 127.607 97.1129 127.675 98.142 127.245C98.6453 127.035 99.0282 126.715 99.254 126.278C99.48 125.84 99.5775 125.229 99.4048 124.383L100.278 123.962C102.048 126.07 104.306 126.173 105.966 125.432C106.806 125.057 107.472 124.474 107.843 123.845C108.21 123.222 108.275 122.587 107.998 122.025L108.802 121.452C110.129 122.791 112.128 122.675 113.734 121.775C114.528 121.33 115.172 120.718 115.537 120.073C115.898 119.433 115.972 118.794 115.713 118.222L114.924 116.477L116.466 117.614C118.166 118.868 119.726 118.984 121.025 118.437C122.279 117.908 123.371 116.727 124.117 115.138L98.4871 86.8251C95.3907 89.7087 91.6104 92.2164 87.5359 93.482L87.5359 93.482C82.74 94.9714 78.3846 94.4839 74.3222 91.3489C73.1398 90.4368 72.2907 89.2426 72.0054 87.9203C71.717 86.5836 72.017 85.1671 73.0423 83.8662L73.0424 83.866C73.7855 82.9238 74.6086 82.0576 75.5018 81.2607ZM75.5018 81.2607L75.8348 81.6338M75.5018 81.2607C75.5018 81.2607 75.5019 81.2607 75.5019 81.2606L75.8348 81.6338M75.8348 81.6338C74.9621 82.4123 74.1592 83.2575 73.435 84.1757L78.4443 78.9062L78.6638 79.1971C78.8977 79.079 79.1279 78.9615 79.3536 78.8457C79.151 78.9991 78.9483 79.1522 78.7455 79.3053C77.7528 80.0548 76.7632 80.805 75.8348 81.6338ZM143.735 75.9928H137.424C135.886 75.9928 134.625 77.2538 134.625 78.792V113.702C134.625 115.241 135.886 116.502 137.424 116.502H143.735C145.273 116.502 146.534 115.241 146.534 113.702V78.792C146.534 77.2538 145.273 75.9928 143.735 75.9928ZM65.3749 113.359V113.359L65.2574 77.9922C64.9105 76.8383 63.8347 75.9928 62.5756 75.9928H56.2645C54.726 75.9928 53.4652 77.2538 53.4652 78.792V113.702C53.4652 115.241 54.726 116.502 56.2645 116.502H62.5756C64.114 116.502 65.3749 115.241 65.3749 113.702V113.359Z" fill="white" stroke="white"/>
</svg>
