<svg width="200" height="200" viewBox="0 0 200 200" fill="none" xmlns="http://www.w3.org/2000/svg">
<rect width="200" height="200" rx="100" fill="#ECE2FF"/>
<path d="M129.398 121.815L127.157 123.809C127.726 124.449 128.541 124.815 129.398 124.815C130.254 124.815 131.07 124.449 131.639 123.809L129.398 121.815ZM111.426 136.508L113.759 134.622L111.426 136.508ZM147.369 136.508L145.036 134.622L147.369 136.508ZM128.325 152.302L130.27 150.017L128.325 152.302ZM129.103 152.841L128.276 155.725L129.103 152.841ZM130.47 152.302L128.526 150.017L130.47 152.302ZM129.692 152.841L130.519 155.725L129.692 152.841ZM47 141.118C47 142.774 48.3431 144.118 50 144.118C51.6569 144.118 53 142.774 53 141.118H47ZM131.639 119.821C126.627 114.189 117.952 112.445 111.356 117.862L115.164 122.499C118.882 119.445 123.935 120.19 127.157 123.809L131.639 119.821ZM111.356 117.862C104.956 123.118 103.982 132.072 109.093 138.395L113.759 134.622C110.771 130.926 111.248 125.715 115.164 122.499L111.356 117.862ZM149.702 138.395C154.786 132.106 153.969 123.079 147.408 117.837L143.663 122.525C147.594 125.665 148.053 130.891 145.036 134.622L149.702 138.395ZM147.408 117.837C140.754 112.521 132.19 114.164 127.157 119.821L131.639 123.809C134.838 120.214 139.825 119.458 143.663 122.525L147.408 117.837ZM109.093 138.395C110.946 140.686 114.509 144.074 117.87 147.123C121.29 150.225 124.7 153.155 126.38 154.586L130.27 150.017C128.61 148.605 125.254 145.721 121.902 142.679C118.49 139.583 115.274 136.496 113.759 134.622L109.093 138.395ZM132.415 154.586C134.096 153.155 137.505 150.225 140.925 147.123C144.286 144.074 147.849 140.686 149.702 138.395L145.036 134.622C143.521 136.496 140.306 139.583 136.894 142.679C133.541 145.721 130.185 148.605 128.526 150.017L132.415 154.586ZM126.38 154.586C126.532 154.715 126.775 154.925 127.014 155.098C127.289 155.297 127.709 155.563 128.276 155.725L129.93 149.958C130.098 150.006 130.239 150.067 130.349 150.126C130.452 150.18 130.517 150.226 130.532 150.237C130.545 150.247 130.535 150.24 130.483 150.198C130.431 150.155 130.368 150.101 130.27 150.017L126.38 154.586ZM128.526 150.017C128.427 150.101 128.365 150.155 128.312 150.198C128.261 150.24 128.251 150.247 128.264 150.237C128.279 150.226 128.343 150.18 128.446 150.126C128.556 150.067 128.697 150.006 128.865 149.958L130.519 155.725C131.086 155.563 131.506 155.297 131.782 155.098C132.02 154.925 132.264 154.715 132.415 154.586L128.526 150.017ZM128.276 155.725C129.007 155.935 129.788 155.935 130.519 155.725L128.865 149.958C129.215 149.857 129.58 149.857 129.93 149.958L128.276 155.725ZM123.471 76.4118C123.471 90.9986 111.646 102.824 97.0588 102.824V108.824C114.959 108.824 129.471 94.3123 129.471 76.4118H123.471ZM97.0588 102.824C82.472 102.824 70.6471 90.9986 70.6471 76.4118H64.6471C64.6471 94.3123 79.1583 108.824 97.0588 108.824V102.824ZM70.6471 76.4118C70.6471 61.8249 82.472 50 97.0588 50V44C79.1583 44 64.6471 58.5112 64.6471 76.4118H70.6471ZM97.0588 50C111.646 50 123.471 61.8249 123.471 76.4118H129.471C129.471 58.5112 114.959 44 97.0588 44V50ZM53 141.118C53 132.527 57.6355 124.522 65.5832 118.561C73.5318 112.599 84.6502 108.824 97.0588 108.824V102.824C83.4775 102.824 71.0665 106.948 61.9832 113.761C52.899 120.574 47 130.215 47 141.118H53Z" fill="white"/>
</svg>
