<svg width="200" height="200" viewBox="0 0 200 200" fill="none" xmlns="http://www.w3.org/2000/svg">
<rect width="200" height="200" rx="100" fill="#ECE2FF"/>
<path d="M50 98.3701L50 140.175M70.8855 95.906V135.056C70.8855 141.652 76.2289 147 82.8201 147H129.903C135.512 147 140.364 143.092 141.562 137.608L149.86 99.6463C150.674 95.9218 147.84 92.398 144.03 92.398H121.608C115.016 92.398 109.673 87.0504 109.673 80.4538V72.1962C109.673 66.0118 107.218 60.0808 102.849 55.7078C100.222 53.0785 95.8394 53.5497 93.8303 56.6775L72.781 89.4471C71.5435 91.3737 70.8855 93.6157 70.8855 95.906Z" stroke="white" stroke-width="6" stroke-linecap="round"/>
</svg>
