<svg width="160" height="160" viewBox="0 0 160 160" fill="none" xmlns="http://www.w3.org/2000/svg">
<path d="M144.878 8.84375C146.316 8.84375 147.495 9.99597 147.495 11.4364C147.495 12.8768 146.316 14.0292 144.878 14.0292C143.441 14.0292 142.262 12.8768 142.262 11.4364C142.262 9.99597 143.441 8.84375 144.878 8.84375Z" fill="black"/>
<path d="M97.7532 116.871C99.1908 116.871 100.37 118.023 100.37 119.464C100.37 120.904 99.1908 122.057 97.7532 122.057C96.3157 122.057 95.137 120.904 95.137 119.464C95.137 118.023 96.3157 116.871 97.7532 116.871Z" fill="black"/>
<path d="M114.055 145.684C115.492 145.684 116.671 146.836 116.671 148.276C116.671 149.717 115.492 150.869 114.055 150.869C112.617 150.869 111.438 149.717 111.438 148.276C111.438 146.836 112.617 145.684 114.055 145.684Z" fill="black"/>
<path d="M155.947 118.598C157.384 118.598 158.563 119.75 158.563 121.19C158.563 122.631 157.384 123.783 155.947 123.783C154.509 123.783 153.33 122.631 153.33 121.19C153.33 119.75 154.48 118.598 155.947 118.598Z" fill="black"/>
<path d="M32.3168 114.859C33.7543 114.859 34.933 116.012 34.933 117.452C34.933 118.893 33.7543 120.045 32.3168 120.045C30.8792 120.045 29.7003 118.893 29.7003 117.452C29.7003 116.012 30.8792 114.859 32.3168 114.859Z" fill="black"/>
<path d="M4.9746 143.668C6.41216 143.668 7.59088 144.82 7.59088 146.261C7.59088 147.701 6.41216 148.853 4.9746 148.853C3.53705 148.853 2.35815 147.701 2.35815 146.261C2.35815 144.82 3.53705 143.668 4.9746 143.668Z" fill="black"/>
<path d="M75.9602 1.64062C77.3978 1.64062 78.5765 2.79284 78.5765 4.23325C78.5765 5.67365 77.3978 6.82604 75.9602 6.82604C74.5226 6.82604 73.3438 5.67365 73.3438 4.23325C73.3437 2.79284 74.4939 1.64062 75.9602 1.64062Z" fill="black"/>
<path d="M12.2469 6.82812C13.6844 6.82812 14.8633 7.98052 14.8633 9.42092C14.8633 10.8613 13.6844 12.0135 12.2469 12.0135C10.8093 12.0135 9.63062 10.8613 9.63062 9.42092C9.63062 7.98052 10.8093 6.82812 12.2469 6.82812Z" fill="black"/>
<path d="M34.934 53.7812C25.9062 53.7812 18.6322 60.9834 18.6322 69.9139C18.6322 78.8444 25.9062 86.0463 34.934 86.0463C43.9619 86.0463 51.2359 78.8444 51.2359 69.9139C51.2359 60.9834 43.9619 53.7812 34.934 53.7812ZM34.934 82.5893C27.9475 82.5893 22.1398 76.8278 22.1398 69.9139C22.1398 62.9999 27.9475 57.2383 34.934 57.2383C41.9206 57.2383 47.7283 62.9999 47.7283 69.9139C47.7283 76.8278 41.9206 82.5893 34.934 82.5893Z" fill="black"/>
<path d="M38.1535 69.0526C37.0034 68.4764 35.8247 68.1884 35.5372 68.1884V65.3076C37.0035 65.5956 38.7285 66.4599 38.7285 66.748L40.1949 63.8672C39.6198 63.5791 39.0448 63.291 38.1535 63.003C37.2909 62.7149 36.3997 62.4268 35.5372 62.4268V60.4102H34.0709V62.4268C30.8795 62.7148 29.4132 64.7315 29.4132 67.0362C29.4132 69.3408 31.167 70.493 33.4958 71.0692L34.3583 71.3574V73.95C32.6045 73.6619 30.5632 72.5097 30.2757 72.2216L28.8381 75.1024C30.2757 76.2547 32.317 76.8308 34.0709 76.8308V79.1354H35.8246V76.8308C38.7285 76.8308 40.7697 75.3904 40.7697 72.5096C41.0573 71.0692 40.166 69.9168 38.1535 69.0526ZM34.6459 68.1884C34.0709 67.9003 33.7833 67.9003 33.4958 67.6122C33.2083 67.3241 33.2084 67.036 33.2084 66.748C33.2084 66.1718 33.7832 65.5957 34.6745 65.5957V68.1884H34.6459ZM35.5372 74.2382V71.6454C36.1122 71.9335 36.3996 71.9335 36.6871 72.2216C36.9746 72.5097 36.9747 72.7977 36.9747 73.0858C37.2623 73.95 36.6872 74.2382 35.5372 74.2382Z" fill="black"/>
<path d="M133.233 116.588C146.314 116.588 155.917 104.201 152.726 91.525L158.246 86.0514C159.396 84.899 160 83.4586 160 82.0182C160 78.8493 157.384 75.9686 153.905 75.9686C152.438 75.9686 150.713 76.5446 149.822 77.697L147.781 79.7136V28.4352C147.781 22.6736 142.836 17.7762 137.028 17.7762H129.754V16.912C129.754 11.4385 125.384 7.11719 119.863 7.11719C114.343 7.11719 109.973 11.4385 109.973 16.912V17.7762H100.945V16.912C100.945 11.4385 96.5751 7.11719 91.0549 7.11719C85.5347 7.11719 81.1645 11.4385 81.1645 16.912V17.7762H72.1366V16.912C72.1366 11.4385 67.7664 7.11719 62.2462 7.11719C56.726 7.11719 52.3558 11.4385 52.3558 16.912V17.7762H43.3279V16.912C43.3279 11.4385 38.9578 7.11719 33.4376 7.11719C27.9173 7.11719 23.5472 11.4385 23.5472 16.912V17.7762H10.7531C4.94534 17.7762 0 22.6736 0 28.4352V99.015C0 104.777 4.94534 109.674 10.7531 109.674H61.6424V133.008C59.026 128.687 54.3684 125.806 49.1357 125.806C42.4367 125.806 36.6289 130.416 34.8751 136.754C28.1761 135.313 21.7934 140.499 21.7934 147.413C21.7934 153.462 26.7387 158.36 32.8339 158.36C63.0801 158.36 61.93 158.36 63.3676 158.36C63.9426 158.36 61.3262 158.36 99.4214 158.36C103.792 158.36 107.27 154.903 107.27 150.582C107.27 146.26 103.791 142.803 99.7088 142.803C97.0925 138.77 91.5723 137.33 87.2022 140.211V109.386H119.202C121.33 113.995 126.85 116.588 133.233 116.588ZM133.233 113.131C124.205 113.131 116.931 105.929 116.931 96.9984C116.931 88.0679 124.205 80.866 133.233 80.866C137.028 80.866 140.507 82.0183 143.411 84.323L134.986 92.6772L133.233 90.9488C132.083 89.7965 130.616 89.2202 129.15 89.2202C125.959 89.2202 123.055 91.813 123.055 95.27C123.055 96.7104 123.63 98.4388 124.809 99.303L133.549 107.945C134.124 108.522 135.303 108.522 136.165 107.945L149.535 94.6938C150.685 104.489 142.836 113.131 133.233 113.131ZM152.151 80.2898C152.726 79.7136 153.33 79.7136 153.905 79.7136C155.946 79.7136 157.096 82.3064 155.659 83.7468L135.015 104.2L127.454 96.7104C126.016 95.27 127.166 92.6772 129.208 92.6772C129.783 92.6772 130.358 92.9653 130.961 93.2534L133.865 96.1342C134.44 96.7104 135.619 96.7104 136.482 96.1342L147.522 85.1872L152.151 80.2898ZM113.193 16.624C113.193 13.167 116.097 10.2862 119.605 10.2862C123.084 10.2862 126.016 13.167 126.016 16.624V17.4882H113.222V16.624H113.193ZM84.097 16.624C84.097 13.167 87.001 10.2862 90.5086 10.2862C93.9875 10.2862 96.9201 13.167 96.9201 16.624V17.4882H84.1258V16.624H84.097ZM55.0009 16.624C55.0009 13.167 57.9049 10.2862 61.4125 10.2862C64.8914 10.2862 67.824 13.167 67.824 16.624V17.4882H55.0297V16.624H55.0009ZM25.9336 16.624C25.9336 13.167 28.8374 10.2862 32.345 10.2862C35.8239 10.2862 38.7278 13.167 38.7278 16.624V17.4882H25.9336V16.624ZM9.34411 21.2332H22.1384V28.4352H18.3432C15.4394 28.4352 12.8231 30.7399 12.8231 33.9088C12.8231 37.0777 15.1518 39.3823 18.3432 39.3823H29.3837C32.2876 39.3823 34.9039 37.0777 34.9039 33.9088C34.9039 30.7399 32.5751 28.4352 29.3837 28.4352H25.5886V21.2332H51.1771V28.4352H47.382C44.4781 28.4352 41.8616 30.7399 41.8616 33.9088C41.8616 37.0777 44.1906 39.3823 47.382 39.3823H58.4223C61.3261 39.3823 63.9426 37.0777 63.9426 33.9088C63.9426 30.7399 61.6137 28.4352 58.4223 28.4352H54.6559V21.2332H80.2444V28.4352H76.4781C73.5742 28.4352 70.9577 30.7399 70.9577 33.9088C70.9577 37.0777 73.2867 39.3823 76.4781 39.3823H87.5184C90.4222 39.3823 93.0387 37.0777 93.0387 33.9088C93.0387 30.7399 90.7098 28.4352 87.5184 28.4352H83.7232V21.2332H109.312V28.4352H105.517C102.613 28.4352 99.9964 30.7399 99.9964 33.9088C99.9964 37.0777 102.325 39.3823 105.517 39.3823H116.557C119.461 39.3823 122.077 37.0777 122.077 33.9088C122.077 30.7399 119.748 28.4352 116.557 28.4352H112.762V21.2332H136.597C140.679 21.2332 143.871 24.4021 143.871 28.4352V80.2898C133.118 73.3758 118.857 77.9851 114.2 89.7964H47.2956C53.9946 85.7633 58.3361 78.2733 58.3361 69.9189C58.3361 56.9553 47.8707 46.5843 34.7889 46.5843C21.7072 46.5843 11.2418 56.9553 11.2418 69.9189C11.2418 78.2733 15.6119 85.4752 22.2821 89.7964H2.21389V28.4352C2.07014 24.4021 5.26145 21.2332 9.34411 21.2332ZM29.4125 32.1802C30.275 32.1802 31.1663 33.0446 31.1663 33.9088C31.1663 34.7731 30.3038 35.6372 29.4125 35.6372H18.372C17.5095 35.6372 16.6182 34.7731 16.6182 33.9088C16.6182 33.0446 17.4807 32.1802 18.372 32.1802H29.4125ZM58.5086 32.1802C59.3712 32.1802 60.2624 33.0446 60.2624 33.9088C60.2624 34.7731 59.3999 35.6372 58.5086 35.6372H47.4681C46.6056 35.6372 45.7143 34.7731 45.7143 33.9088C45.7143 33.0446 46.5768 32.1802 47.4681 32.1802H58.5086ZM87.576 32.1802C88.4385 32.1802 89.3297 33.0446 89.3297 33.9088C89.3297 34.7731 88.4672 35.6372 87.576 35.6372H76.5354C75.6729 35.6372 74.7817 34.7731 74.7817 33.9088C74.7817 33.0446 75.6442 32.1802 76.5354 32.1802H87.576ZM116.672 32.1802C117.535 32.1802 118.426 33.0446 118.426 33.9088C118.426 34.7731 117.563 35.6372 116.672 35.6372H105.632C104.769 35.6372 103.878 34.7731 103.878 33.9088C103.878 33.0446 104.74 32.1802 105.632 32.1802H116.672ZM34.9327 89.7964C23.8922 89.7964 14.8645 80.866 14.8645 69.9189C14.8645 58.9719 23.8922 50.0413 34.9327 50.0413C45.9731 50.0413 55.0009 58.9719 55.0009 69.9189C55.0009 80.866 46.0018 89.7964 34.9327 89.7964ZM64.0288 129.263H82.3432V133.008H64.0288V129.263ZM64.0288 136.465H82.3432V140.211H64.0288V136.465ZM82.0558 125.806H63.7413V122.061H82.0558V125.806ZM31.1663 154.615C27.0836 154.615 23.8922 151.446 23.8922 147.413C23.8922 142.227 29.4125 138.77 34.0702 140.787C35.2202 141.363 36.3989 140.499 36.6864 139.346C37.2615 133.873 41.9191 129.551 47.4393 129.551C51.522 129.551 55.5759 131.856 57.3297 135.889C57.6172 136.465 58.4799 137.042 59.0837 137.042C59.3712 137.042 59.6587 137.042 59.9462 137.042V154.903H31.1663V154.615ZM64.0288 143.668H82.3432C82.3432 143.668 82.3432 144.532 82.3432 144.244C78.2606 143.956 74.7817 147.124 74.7817 151.158C74.7817 152.31 75.0691 153.462 75.6442 154.327H64.2876V143.668H64.0288ZM90.7961 141.939C92.8374 141.939 94.8788 143.091 95.7413 145.108C96.0289 145.684 96.9201 146.26 97.4951 146.26C100.111 145.972 102.153 147.989 102.153 150.582C102.153 152.886 100.111 154.903 97.7826 154.903H81.4807C79.7269 154.903 78.2894 153.462 78.2894 151.734C78.2894 149.429 80.6182 147.701 82.9471 148.853C84.0971 149.429 85.2758 148.565 85.5633 147.413C85.5346 143.956 87.8634 141.939 90.7961 141.939ZM82.0558 118.604H63.7413V109.674H82.0558V118.604ZM9.34411 105.929C5.26145 105.929 2.07017 102.76 2.07017 98.727V93.2534H113.165C112.302 97.5746 113.164 101.896 115.206 105.929C109.398 105.929 15.4681 105.929 9.34411 105.929Z" fill="black"/>
<path d="M65.7842 78.8476H113.195C114.057 78.8476 114.949 77.9835 114.949 77.1192C114.949 76.255 114.086 75.3906 113.195 75.3906H65.7842C64.9216 75.3906 64.0304 76.255 64.0304 77.1192C64.0304 77.9835 64.8929 78.8476 65.7842 78.8476Z" fill="black"/>
<path d="M65.7842 71.6445H136.742C137.604 71.6445 138.496 70.7803 138.496 69.9161C138.496 69.0518 137.633 68.1875 136.742 68.1875H65.7842C64.9216 68.1875 64.0304 69.0518 64.0304 69.9161C64.0304 70.7803 64.8929 71.6445 65.7842 71.6445Z" fill="black"/>
<path d="M65.7842 64.4414H136.742C137.604 64.4414 138.496 63.5772 138.496 62.713C138.496 61.8487 137.633 60.9844 136.742 60.9844H65.7842C64.9216 60.9844 64.0304 61.8487 64.0304 62.713C64.0304 63.5772 64.8929 64.4414 65.7842 64.4414Z" fill="black"/>
<path d="M65.7842 57.2383H136.742C137.604 57.2383 138.496 56.3741 138.496 55.5098C138.496 54.6456 137.633 53.7812 136.742 53.7812H65.7842C64.9216 53.7812 64.0304 54.6456 64.0304 55.5098C64.0304 56.3741 64.8929 57.2383 65.7842 57.2383Z" fill="black"/>
<path d="M65.7842 50.0351H136.742C137.604 50.0351 138.496 49.171 138.496 48.3067C138.496 47.4425 137.633 46.5781 136.742 46.5781H65.7842C64.9216 46.5781 64.0304 47.4425 64.0304 48.3067C64.0304 49.171 64.8929 50.0351 65.7842 50.0351Z" fill="black"/>
<path d="M136.739 127.531C130.644 127.531 125.699 132.429 125.699 138.478C125.699 144.528 130.644 149.425 136.739 149.425C142.834 149.425 147.78 144.528 147.78 138.478C147.78 132.429 142.834 127.531 136.739 127.531ZM136.739 145.392C132.656 145.392 129.465 142.223 129.465 138.19C129.465 134.157 132.656 130.988 136.739 130.988C140.822 130.988 144.013 134.157 144.013 138.19C144.013 142.223 140.793 145.392 136.739 145.392Z" fill="black"/>
<path d="M11.3847 116.586C7.30205 116.586 4.1106 119.755 4.1106 123.788C4.1106 127.821 7.30205 130.99 11.3847 130.99C15.4674 130.99 18.6588 127.821 18.6588 123.788C18.6588 119.755 15.1511 116.586 11.3847 116.586ZM11.3847 127.533C9.34338 127.533 7.61832 125.805 7.61832 123.788C7.61832 121.771 9.37213 120.043 11.3847 120.043C13.426 120.043 15.1799 121.771 15.1799 123.788C14.8636 125.805 13.426 127.533 11.3847 127.533Z" fill="black"/>
</svg>
