<svg width="160" height="160" viewBox="0 0 160 160" fill="none" xmlns="http://www.w3.org/2000/svg">
<path d="M80.0084 79.7205C91.6864 79.7205 101.139 70.3724 101.139 58.825C101.139 47.2775 91.6864 37.9297 80.0084 37.9297C68.3305 37.9297 58.8782 47.2775 58.8782 58.825C58.8782 70.3724 68.3305 79.7205 80.0084 79.7205ZM80.0084 41.5039C89.7355 41.5039 97.5116 49.2021 97.5116 58.825C97.5116 68.4479 89.7355 76.1461 80.0084 76.1461C70.2814 76.1461 62.5052 68.4479 62.5052 58.825C62.5052 49.2021 70.2814 41.5039 80.0084 41.5039Z" fill="black"/>
<path d="M69.4584 60.479C70.2828 60.479 71.1345 59.6541 71.1345 58.8293C71.1345 53.8804 75.0363 50.0312 80.0372 50.0312C85.0381 50.0312 88.9399 53.8804 88.9399 58.8293C88.9399 59.6541 89.7644 60.479 90.6162 60.479C91.4405 60.479 92.2923 59.6541 92.2923 58.8293C92.2923 51.9558 86.7418 46.457 79.79 46.457C72.8382 46.457 67.2876 51.9558 67.2876 58.8293C67.5074 59.6541 68.3319 60.479 69.4584 60.479Z" fill="black"/>
<path d="M159.777 104.744C143.648 72.0266 144.774 74.2261 144.5 73.9511C144.225 73.6762 144.225 73.6762 143.95 73.4012C143.675 73.4012 145.626 73.6762 114.769 65.703L126.172 64.0534C126.996 64.0534 127.573 63.2285 127.573 62.4037V55.8052C127.573 54.9804 127.024 54.1555 126.172 54.1555L114.769 52.5059C114.494 50.8563 113.945 49.2066 113.368 47.8319L122.545 40.6836C123.095 40.1337 123.369 39.3089 123.095 38.4841L119.77 32.9853C119.22 32.1605 118.369 31.8854 117.544 32.1604L106.691 36.2845C105.591 35.1847 104.465 33.81 103.063 32.7103L107.24 21.9878C107.515 21.1629 107.24 20.338 106.416 19.7881L100.59 16.489C99.7661 15.9391 98.9143 16.2139 98.3648 17.0387L91.1382 26.1118C89.462 25.562 88.0882 25.287 86.4121 24.7371L84.736 13.4645C84.736 12.6397 83.9117 12.0898 83.0599 12.0898H76.3827C75.5584 12.0898 74.7067 12.6397 74.7067 13.4645L73.0306 24.7371C71.3544 25.0121 69.7057 25.562 68.3043 26.1118L61.0779 17.0387C60.5284 16.4888 59.6764 16.214 58.8521 16.489L53.3017 19.7881C52.4774 20.338 52.2026 21.1629 52.4774 21.9878L56.6539 32.7103C55.5548 33.81 54.1534 34.9098 53.0543 36.2845L42.2007 32.1604C41.3764 31.8854 40.5246 32.1605 39.975 32.9853L36.6503 38.4841C36.1008 39.3089 36.3756 40.1337 37.1999 40.6836L46.3773 47.8319C45.8278 49.4816 45.553 50.8563 44.9759 52.5059L33.8476 53.8806C33.0232 53.8806 32.4462 54.7054 32.4462 55.5302V62.1288C32.4462 62.9536 32.9958 63.7784 33.8476 63.7784L45.2508 65.4281C45.2508 65.978 45.5255 66.8028 45.8002 67.3527C15.4925 73.4014 17.1686 73.1263 16.6191 73.4012C16.0695 73.6762 16.8939 72.3016 0.215079 104.469C-0.334472 105.569 0.215005 106.669 1.34158 106.944L15.2452 110.243V145.71C15.2452 146.535 15.7948 147.36 16.6466 147.36C84.1864 158.083 80.0099 157.533 80.5869 157.533L143.126 147.36C143.95 147.36 144.527 146.535 144.527 145.71V110.243L158.431 106.944C159.777 106.669 160.354 105.569 159.777 104.744ZM46.9269 71.4768C47.2017 72.0267 47.7512 72.5764 48.603 72.5764C49.7296 72.5764 50.5539 71.4767 50.2791 70.377C49.4548 68.1775 48.8778 65.9779 48.603 63.7784C48.603 62.9535 47.7786 62.4037 47.2016 62.4037L36.0732 60.7541V57.1799L47.2016 55.5302C48.0259 55.5302 48.603 54.7054 48.603 54.1555C48.8778 51.956 49.4273 49.7566 50.2791 47.5571C50.5539 46.7322 50.2792 46.1823 49.7297 45.6324L40.8268 38.759L42.5031 35.7347L53.0543 39.8588C53.8787 40.1337 54.4558 39.8588 55.0053 39.3089C56.4067 37.6592 58.0552 36.0096 59.7314 34.6349C60.2809 34.085 60.5557 33.2602 60.2809 32.7103L56.1043 22.2626L59.1544 20.6131L66.1062 29.411C66.6557 29.9608 67.5076 30.2358 68.0571 29.9609C70.2828 29.1361 72.5085 28.5863 74.7342 28.3113C75.5585 28.3113 76.1355 27.4865 76.1355 26.9366L77.8116 15.9391H81.4112L83.0873 26.9366C83.0873 27.7614 83.9116 28.3113 84.4887 28.3113C86.7143 28.5863 88.94 29.1361 91.1657 29.9609C91.99 30.2358 92.5671 29.9608 93.1166 29.411L100.068 20.6131L103.119 22.2626L99.519 32.4354C99.2442 33.2602 99.5188 33.8101 100.068 34.36C101.745 35.7347 103.393 37.3842 104.795 39.0338C105.344 39.5837 106.196 39.8587 106.746 39.5838L117.297 35.4597L118.973 38.4841L110.345 45.6324C109.796 46.1823 109.521 47.0072 109.796 47.5571C110.62 49.7566 111.197 51.956 111.472 54.1555C111.472 54.9803 112.296 55.5302 112.873 55.5302L124.001 57.1799V60.7541L112.873 62.4037C112.049 62.4037 111.472 63.2285 111.472 63.7784C111.197 65.9779 110.647 68.1775 109.796 70.377C109.521 71.2018 109.795 72.3015 110.922 72.5764C111.746 72.8514 112.873 72.5765 113.148 71.4768C113.422 70.652 113.697 69.8272 113.972 68.7274L135.377 74.501L80.3395 84.6738L26.7035 74.7759L46.707 70.6518C46.9269 70.9268 46.9269 71.2018 46.9269 71.4768ZM18.5701 76.7005L77.5094 87.6981L58.3301 117.117L4.41906 104.469L18.5701 76.7005ZM59.1544 120.691C59.704 120.691 60.2536 120.416 60.5558 119.866L78.6359 92.3721V141.036L18.8723 131.413V111.068C61.38 121.241 58.6049 120.691 59.1544 120.691ZM18.8723 134.988L78.6359 144.611V153.959L18.8723 144.336V134.988ZM82.2355 153.683V144.336L141.175 134.988V144.336L82.2355 153.683ZM141.175 131.413L82.2355 141.036V92.3721L99.464 119.866C99.7387 120.416 100.563 120.691 101.415 120.691L141.175 111.068V131.413ZM101.69 116.842L83.0599 87.4232L141.999 76.4257L155.628 103.92L101.69 116.842Z" fill="black"/>
<path d="M18.8718 35.7338C25.5489 35.7338 31.0994 30.235 31.0994 23.6364C31.0994 17.0379 25.5489 11.5391 18.8718 11.5391C12.1948 11.5391 6.64429 17.0379 6.64429 23.6364C6.64429 30.235 12.1948 35.7338 18.8718 35.7338ZM18.8718 15.1134C23.598 15.1134 27.4998 18.9625 27.4998 23.6364C27.4998 28.3104 23.598 32.1595 18.8718 32.1595C14.1457 32.1595 10.244 28.3104 10.244 23.6364C10.244 18.9625 14.1457 15.1134 18.8718 15.1134Z" fill="black"/>
<path d="M143.95 46.1791C148.676 46.1791 152.578 42.3298 152.578 37.6559C152.578 32.9819 148.676 29.1328 143.95 29.1328C139.224 29.1328 135.322 32.9819 135.322 37.6559C135.322 42.3298 139.224 46.1791 143.95 46.1791ZM143.95 32.4321C146.725 32.4321 149.226 34.6315 149.226 37.6559C149.226 40.6802 146.725 42.6049 143.95 42.6049C141.175 42.6049 138.674 40.4053 138.674 37.381C138.674 34.3567 141.175 32.4321 143.95 32.4321Z" fill="black"/>
<path d="M122.269 6.58984C123.643 6.58984 124.769 7.68967 124.769 9.06436C124.769 10.4391 123.643 11.5387 122.269 11.5387C120.895 11.5387 119.768 10.4391 119.768 9.06436C119.768 7.68967 120.867 6.58984 122.269 6.58984Z" fill="black"/>
<path d="M150.05 6.58984C151.424 6.58984 152.551 7.68967 152.551 9.06436C152.551 10.4391 151.424 11.5387 150.05 11.5387C148.676 11.5387 147.55 10.4391 147.55 9.06436C147.55 7.68967 148.676 6.58984 150.05 6.58984Z" fill="black"/>
<path d="M148.403 54.707C149.776 54.707 150.903 55.8069 150.903 57.1816C150.903 58.5562 149.776 59.6559 148.403 59.6559C147.029 59.6559 145.902 58.5562 145.902 57.1816C145.902 55.8069 147.001 54.707 148.403 54.707Z" fill="black"/>
<path d="M49.1535 1.64062C50.5273 1.64062 51.6538 2.74045 51.6538 4.11514C51.6538 5.48984 50.5273 6.58949 49.1535 6.58949C47.7796 6.58949 46.6531 5.48984 46.6531 4.11514C46.6531 2.74045 47.7796 1.64062 49.1535 1.64062Z" fill="black"/>
<path d="M7.47015 125.363C8.84403 125.363 9.97054 126.463 9.97054 127.838C9.97054 129.212 8.84403 130.312 7.47015 130.312C6.09628 130.312 4.9696 129.212 4.9696 127.838C4.9696 126.463 6.09628 125.363 7.47015 125.363Z" fill="black"/>
<path d="M153.402 125.363C154.776 125.363 155.902 126.463 155.902 127.838C155.902 129.212 154.776 130.312 153.402 130.312C152.028 130.312 150.901 129.212 150.901 127.838C150.901 126.463 152.001 125.363 153.402 125.363Z" fill="black"/>
<path d="M9.42104 49.7539C10.7949 49.7539 11.9216 50.8537 11.9216 52.2284C11.9216 53.6031 10.7949 54.7028 9.42104 54.7028C8.04716 54.7028 6.92065 53.6031 6.92065 52.2284C6.92065 50.8537 8.01968 49.7539 9.42104 49.7539Z" fill="black"/>
</svg>
