<svg width="160" height="160" viewBox="0 0 160 160" fill="none" xmlns="http://www.w3.org/2000/svg">
<path d="M41.865 140.096C42.6816 140.641 43.7976 140.368 44.342 139.551C44.8864 138.733 44.6142 137.643 43.7976 137.098C23.9813 125.106 12.1405 104.12 12.1405 80.9544C12.1405 53.4277 28.6632 29.1715 54.5495 19.0874C55.3661 18.8149 55.9378 17.7248 55.6383 16.9071C55.3661 16.0895 54.2501 15.5444 53.4335 15.817C27.0028 26.1736 8.8197 51.5199 8.8197 80.6819C8.8197 105.756 21.7493 127.832 41.865 140.096Z" fill="black"/>
<path d="M149.792 80.9529C149.792 43.3422 119.769 12.545 82.0415 11.1823L85.6074 4.91385C86.1518 4.09622 85.6074 3.00601 84.7908 2.73347C83.9742 2.18838 82.8581 2.46097 82.5859 3.55114C81.4971 5.45893 77.9041 12.2724 77.6319 12.545C77.3597 12.8175 77.3597 13.3626 77.6319 13.9077C77.6319 14.1802 77.6319 13.9077 82.5859 22.3565C82.8581 22.9016 83.4025 23.1741 83.9741 23.1741C85.3624 23.1741 86.179 21.8114 85.3624 20.7212L82.0687 15.2704C117.591 16.9056 146.227 46.0676 146.227 81.4981C146.227 118.019 116.203 147.998 79.0473 147.998H1.66043C0.843826 147.998 0 148.816 0 149.633C0 150.451 0.816606 151.269 1.66043 151.269H79.5917C118.135 150.724 149.792 119.381 149.792 80.9529Z" fill="black"/>
<path d="M158.067 147.724C157.795 147.179 158.067 147.452 150.908 140.366C150.364 139.821 149.248 139.821 148.431 140.366C147.887 140.911 147.887 142.001 148.431 142.819L152.296 146.634H122C121.184 146.634 120.34 147.452 120.34 148.27C120.34 149.087 121.156 149.905 122 149.905H152.296L148.431 153.72C147.342 154.811 148.159 156.718 149.52 156.718C150.064 156.718 150.336 156.446 150.609 156.173C151.997 154.811 157.495 149.36 157.495 149.36C157.767 149.087 157.767 148.815 157.767 148.815C158.339 148.542 158.339 148.27 158.067 147.724Z" fill="black"/>
<path d="M79.3201 31.6211C51.7733 31.6211 29.48 53.697 29.48 80.9511C29.48 108.205 51.7733 130.281 79.3201 130.281C106.867 130.281 129.16 108.205 129.16 80.9511C129.16 53.697 106.84 31.6211 79.3201 31.6211ZM79.3201 127.011C53.7059 127.011 32.7736 106.298 32.7736 80.9511C32.7736 55.6048 53.7059 34.8916 79.3201 34.8916C104.934 34.8916 125.867 55.6048 125.867 80.9511C125.867 106.298 104.934 127.011 79.3201 127.011Z" fill="black"/>
<path d="M39.115 41.1642C39.6594 40.6191 39.6594 39.529 39.115 38.7113C38.5706 37.8937 37.4545 38.1663 36.6379 38.7113C13.2286 61.8774 13.2286 99.7606 36.6379 122.927C36.9101 123.199 37.4545 123.472 37.7267 123.472C39.3872 123.472 39.9316 121.564 38.8155 120.474C17.0939 98.6705 17.0939 63.2401 39.115 41.1642Z" fill="black"/>
<path d="M119.524 120.746C118.979 121.291 118.979 122.381 119.524 123.198C120.068 123.743 121.184 123.743 122.001 123.198C145.41 100.032 145.41 62.1491 122.001 38.983C121.456 38.4379 120.34 38.4379 119.524 38.983C118.979 39.5281 118.979 40.6183 119.524 41.4359C141.817 63.2392 141.817 98.6696 119.524 120.746Z" fill="black"/>
<path d="M45.4296 70.0498C46.2462 70.0498 46.8178 69.5048 47.09 68.9597C52.0441 55.8777 65.0009 46.8838 79.3187 46.8838C80.1353 46.8838 80.9791 46.0662 80.9791 45.2485C80.9791 44.4309 80.1625 43.6133 79.3187 43.6133C63.3405 43.6133 49.2949 53.4248 43.7964 67.8695C43.5242 68.6872 44.3408 70.0498 45.4296 70.0498Z" fill="black"/>
<path d="M111.52 97.5805C110.704 97.0354 109.588 97.3079 109.043 98.1255C104.634 105.757 97.4747 111.208 88.9548 113.66C88.1382 113.933 87.5666 114.751 87.866 115.841C88.1382 116.658 88.9548 117.203 90.0708 116.931C99.4346 114.206 107.41 108.21 112.364 99.7608C112.636 98.9431 112.364 98.1256 111.52 97.5805Z" fill="black"/>
<path d="M88.1118 41.4327C85.907 42.5229 84.546 44.9758 85.0904 47.1561L65.5463 67.0516L47.6355 74.9553C46.8189 75.2278 46.2473 76.318 46.8189 77.1357L47.9077 79.8611C43.498 82.0414 41.2932 87.4922 43.498 92.1255C44.5868 94.3058 46.5195 96.2135 48.7243 97.0312C50.9291 97.8488 53.4061 97.8488 55.611 97.0312L56.9992 100.302C57.2714 101.119 58.3874 101.664 59.204 101.119L60.5923 100.574L62.2527 103.845C62.5249 104.39 63.0693 104.935 63.9131 104.935C64.4575 104.935 64.7297 104.662 65.0019 104.662L71.6164 119.38C72.433 121.287 74.3657 122.378 76.5705 122.378C80.4358 122.378 82.9128 118.289 81.5246 115.019L77.6593 106.298L79.5919 105.48C82.069 104.39 83.4572 101.392 82.069 98.6664C81.5246 97.3037 80.4085 96.4861 79.3197 95.941C78.7753 95.941 77.9315 95.941 77.1149 95.941L76.2983 94.0332L77.6865 93.4882L105.233 91.8529C106.622 94.0332 109.643 95.1234 112.12 94.0332C114.869 92.943 115.985 89.6726 114.869 86.9472L95.5974 44.4307C94.1819 41.4327 90.8883 40.3425 88.1118 41.4327ZM78.2037 89.9451L68.84 69.232L86.7508 50.9717L103.818 88.5824L78.2037 89.9451ZM47.0911 91.0353C45.7029 88.0373 47.0911 84.7668 49.8403 83.4041L54.7944 94.3058C51.5008 95.3959 48.2071 94.0333 47.0911 91.0353ZM50.9563 77.6807L66.0907 70.8672L75.1823 90.7627L73.5218 91.5803L60.2928 97.5763L50.9563 77.6807ZM77.6593 119.107C76.8427 119.652 75.4545 119.107 75.1823 118.289L68.5678 103.572L72.1608 101.937C74.9101 107.933 75.4545 109.568 78.7753 116.654C79.0475 117.472 78.7481 118.562 77.6593 119.107ZM78.4759 102.482L76.5433 103.3L75.155 100.302L76.8155 99.484C76.8155 99.484 77.6321 98.9389 78.2037 99.484C79.3197 99.7566 79.8641 101.937 78.4759 102.482ZM73.794 97.3037L72.1336 98.1213C72.1336 98.1213 71.5892 98.3939 64.9747 101.392L64.1581 99.484L72.9774 95.6685L73.794 97.3037ZM110.705 90.7627C109.616 91.3078 108.5 90.7627 108.228 89.9451L88.9557 47.4287C88.4113 46.611 88.9557 45.2483 89.7723 44.9757C90.8611 44.4306 91.9771 44.9758 92.2493 45.7934L111.521 88.3099C112.093 89.1275 111.521 90.2177 110.705 90.7627Z" fill="black"/>
<path d="M65.5454 79.0454C66.362 78.7729 66.9337 77.6828 66.3621 76.8651C65.8177 76.0475 64.9738 75.5025 64.1572 76.0475L55.6101 79.5906C54.7935 79.8631 54.2219 80.9532 54.7935 81.7709C55.0657 82.5885 56.1817 83.1336 56.9983 82.5885L65.5454 79.0454Z" fill="black"/>
<path d="M67.7522 83.9479C68.5688 83.6753 69.1405 82.5851 68.5688 81.7675C68.2966 80.9499 67.1806 80.4048 66.364 80.9499L57.8169 84.4929C57.0003 84.7654 56.4287 85.8557 57.0003 86.6733C57.2725 87.4909 58.3885 88.036 59.2051 87.4909L67.7522 83.9479Z" fill="black"/>
<path d="M71.0455 86.6777C70.7733 85.8601 69.6573 85.3149 68.8407 85.86L60.2936 89.6757C59.477 89.9482 58.9053 91.0384 59.477 91.856C59.7492 92.6736 60.8652 93.2187 61.6818 92.6736L70.2289 88.858C71.0455 88.5855 71.3177 87.4953 71.0455 86.6777Z" fill="black"/>
<path d="M13.5005 23.9943C17.3657 23.9943 20.3872 20.9963 20.3872 17.1807C20.3872 13.3651 17.3657 10.3672 13.5005 10.3672C9.6352 10.3672 6.61377 13.3651 6.61377 17.1807C6.61377 20.9963 9.93462 23.9943 13.5005 23.9943ZM13.5005 13.9102C15.4331 13.9102 17.0663 15.5455 17.0663 17.4533C17.0663 19.3611 15.4059 20.9963 13.5005 20.9963C11.5951 20.9963 9.93463 19.3611 9.93463 17.4533C10.2068 15.273 11.5678 13.9102 13.5005 13.9102Z" fill="black"/>
<path d="M147.887 29.1711C154.502 29.1711 160 23.7203 160 17.1793C160 10.6383 154.502 5.1875 147.887 5.1875C141.273 5.1875 135.774 10.6383 135.774 17.1793C135.747 23.7203 141.273 29.1711 147.887 29.1711ZM147.887 8.73051C152.569 8.73051 156.434 12.5461 156.434 17.1793C156.434 21.8125 152.569 25.6281 147.887 25.6281C143.205 25.6281 139.34 21.8125 139.34 17.1793C139.34 12.5461 143.205 8.73051 147.887 8.73051Z" fill="black"/>
<path d="M3.32056 133.009C3.32056 136.824 6.34199 139.822 10.2072 139.822C14.0725 139.822 17.0939 136.824 17.0939 133.009C17.0939 129.193 14.0725 126.195 10.2072 126.195C6.34199 126.195 3.32056 129.193 3.32056 133.009ZM13.5009 133.009C13.5009 134.917 11.8405 136.552 9.93505 136.552C8.00242 136.552 6.34199 134.917 6.34199 133.009C6.34199 131.101 8.00242 129.466 9.93505 129.466C11.8405 129.466 13.5009 131.101 13.5009 133.009Z" fill="black"/>
<path d="M117.862 7.09375C119.223 7.09375 120.339 8.1839 120.339 9.54661C120.339 10.9093 119.223 11.9995 117.862 11.9995C116.501 11.9995 115.385 10.9093 115.385 9.54661C115.385 8.1839 116.501 7.09375 117.862 7.09375Z" fill="black"/>
<path d="M153.929 42.8008C155.29 42.8008 156.406 43.8909 156.406 45.2536C156.406 46.6163 155.29 47.7065 153.929 47.7065C152.568 47.7065 151.452 46.6163 151.452 45.2536C151.452 43.8909 152.568 42.8008 153.929 42.8008Z" fill="black"/>
<path d="M148.703 116.109C150.064 116.109 151.18 117.2 151.18 118.562C151.18 119.925 150.064 121.015 148.703 121.015C147.342 121.015 146.226 119.925 146.226 118.562C146.226 117.2 147.342 116.109 148.703 116.109Z" fill="black"/>
<path d="M4.13805 110.934C5.49906 110.934 6.61508 112.024 6.61508 113.386C6.61508 114.749 5.49906 115.839 4.13805 115.839C2.77705 115.839 1.66101 114.749 1.66101 113.386C1.66101 112.024 2.77705 110.934 4.13805 110.934Z" fill="black"/>
<path d="M38.5699 7.09375C39.9309 7.09375 41.047 8.1839 41.047 9.54661C41.047 10.9093 39.9309 11.9995 38.5699 11.9995C37.2089 11.9995 36.0929 10.9093 36.0929 9.54661C36.0929 8.1839 37.1817 7.09375 38.5699 7.09375Z" fill="black"/>
<path d="M5.7976 39.5273C7.15861 39.5273 8.27462 40.6176 8.27462 41.9803C8.27462 43.343 7.15861 44.4331 5.7976 44.4331C4.43659 44.4331 3.32056 43.343 3.32056 41.9803C3.32056 40.6176 4.40937 39.5273 5.7976 39.5273Z" fill="black"/>
</svg>
