<svg width="160" height="160" viewBox="0 0 160 160" fill="none" xmlns="http://www.w3.org/2000/svg">
<path d="M140.077 24.8563C140.077 24.8563 140.077 24.8563 139.808 24.5866C139.808 24.5866 139.808 24.317 139.538 24.317C117.741 2.74436 119.088 3.82297 118.549 3.82297C118.011 3.55332 122.106 3.82297 35.9689 3.82297C35.1606 3.82297 34.3253 4.63196 34.3253 5.44093V20.5417H23.9792C23.1709 20.5417 22.3357 21.3507 22.3357 22.1597V155.101C22.3357 155.91 23.1439 156.719 23.9792 156.719H118.011C118.819 156.719 119.654 155.91 119.654 155.101V145.393H138.46C139.269 145.393 140.104 144.584 140.104 143.775C140.077 20.0024 140.077 25.3956 140.077 24.8563ZM119.654 9.21612L134.365 23.7776H119.654V9.21612ZM116.367 153.213H25.5958V23.7776H34.0559V143.506C34.0559 144.315 34.8642 145.124 35.6994 145.124H116.098V153.213H116.367ZM37.6124 141.618V136.225H86.9452C87.7535 136.225 88.5888 135.416 88.5888 134.607C88.5888 133.798 87.7804 132.989 86.9452 132.989H37.6124V6.78922H116.367V25.3956C116.367 26.2045 117.175 27.0135 118.011 27.0135H136.817V141.618H37.6124Z" fill="black"/>
<path d="M46.073 62.068H114.212C115.02 62.068 115.856 61.259 115.856 60.45C115.856 59.641 115.047 58.832 114.212 58.832H46.073C45.2647 58.832 44.4294 59.641 44.4294 60.45C44.4294 61.259 45.2378 62.068 46.073 62.068Z" fill="black"/>
<path d="M46.073 68.8062H114.212C115.02 68.8062 115.856 67.9972 115.856 67.1883C115.856 66.3793 115.047 65.5703 114.212 65.5703H46.073C45.2647 65.5703 44.4294 66.3793 44.4294 67.1883C44.4294 67.9972 45.2378 68.8062 46.073 68.8062Z" fill="black"/>
<path d="M46.073 48.5797H114.212C115.02 48.5797 115.856 47.7707 115.856 46.9617C115.856 46.1527 115.047 45.3438 114.212 45.3438H46.073C45.2647 45.3438 44.4294 46.1527 44.4294 46.9617C44.4294 47.7707 45.2378 48.5797 46.073 48.5797Z" fill="black"/>
<path d="M46.073 55.3258H114.212C115.02 55.3258 115.856 54.5168 115.856 53.7078C115.856 52.8988 115.047 52.0898 114.212 52.0898H46.073C45.2647 52.0898 44.4294 52.8988 44.4294 53.7078C44.4294 54.5168 45.2378 55.3258 46.073 55.3258Z" fill="black"/>
<path d="M46.073 75.5484H104.135C104.944 75.5484 105.779 74.7394 105.779 73.9305C105.779 73.1215 104.971 72.3125 104.135 72.3125H46.073C45.2647 72.3125 44.4294 73.1215 44.4294 73.9305C44.4294 74.7394 45.2378 75.5484 46.073 75.5484Z" fill="black"/>
<path d="M46.073 82.8296H117.742C118.55 82.8296 119.385 82.0206 119.385 81.2117C119.385 80.4027 118.577 79.5938 117.742 79.5938H46.073C45.2647 79.5938 44.4294 80.4027 44.4294 81.2117C44.4294 82.0206 45.2378 82.8296 46.073 82.8296Z" fill="black"/>
<path d="M46.073 89.0328H95.4058C96.2141 89.0328 97.0493 88.2238 97.0493 87.4148C97.0493 86.6059 96.2411 85.7969 95.4058 85.7969H46.073C45.2647 85.7969 44.4294 86.6059 44.4294 87.4148C44.4294 88.2238 45.2378 89.0328 46.073 89.0328Z" fill="black"/>
<path d="M46.073 95.5054H76.869C77.6773 95.5054 78.5125 94.6964 78.5125 93.8875C78.5125 93.0785 77.7042 92.2695 76.869 92.2695H46.073C45.2647 92.2695 44.4294 93.0785 44.4294 93.8875C44.4294 94.6964 45.2378 95.5054 46.073 95.5054Z" fill="black"/>
<path d="M81.7726 98.4727H46.073C45.2647 98.4727 44.4294 99.2816 44.4294 100.091C44.4294 100.9 45.2378 101.709 46.073 101.709H81.7726C82.5809 101.709 83.4161 100.9 83.4161 100.091C83.6856 99.2816 82.8504 98.4727 81.7726 98.4727Z" fill="black"/>
<path d="M70.0524 104.941H46.073C45.2647 104.941 44.4294 105.75 44.4294 106.559C44.4294 107.368 45.2378 108.177 46.073 108.177H70.0524C70.8607 108.177 71.6958 107.368 71.6958 106.559C71.6689 105.75 70.8607 104.941 70.0524 104.941Z" fill="black"/>
<path d="M116.098 89.5738C115.29 89.3042 114.185 89.5738 113.916 90.6524L112.838 93.349C108.742 92.2704 104.108 92.2704 100.04 93.349C90.2325 96.0456 83.4159 104.944 83.4159 114.922C83.4159 127.596 93.762 137.573 106.318 137.573C118.846 137.573 129.219 127.326 129.219 114.922C129.219 112.495 128.95 110.337 128.411 108.18L131.132 107.102C131.94 106.832 132.506 105.753 132.21 104.944C129.192 97.9332 123.453 92.2704 116.098 89.5738ZM116.664 93.349C121.837 95.7759 125.932 99.8208 128.384 104.944L109.847 111.686L116.664 93.349ZM111.733 96.3153L106.829 109.259L102.734 96.0456C105.752 95.5063 109.012 95.7759 111.733 96.3153ZM125.932 114.922C125.932 125.708 117.203 134.337 106.587 134.337C95.675 134.337 86.9724 125.708 86.9724 114.922C86.9724 107.102 92.1455 99.8208 99.5009 97.1242C105.509 116 105.213 114.922 105.213 115.191C105.482 115.461 105.482 115.731 105.752 116C106.021 116.27 106.291 116.27 106.856 116.27C107.126 116.27 107.126 116.27 107.126 116.27C107.126 116.27 107.126 116.27 107.395 116.27L125.393 109.798C125.636 111.146 125.932 112.764 125.932 114.922Z" fill="black"/>
<path d="M7.62486 111.145C3.26008 111.145 0 114.65 0 118.695C0 123.009 3.52951 126.245 7.62486 126.245C11.7202 126.245 15.2498 122.74 15.2498 118.695C15.5462 114.38 11.9896 111.145 7.62486 111.145ZM7.62486 122.74C5.17304 122.74 3.26009 120.852 3.26009 118.425C3.26009 115.998 5.17304 114.111 7.62486 114.111C10.0767 114.111 11.9897 115.998 11.9897 118.425C11.9897 120.852 10.0767 122.74 7.62486 122.74Z" fill="black"/>
<path d="M150.72 3.28125C145.547 3.28125 141.451 7.3261 141.451 12.4496C141.451 17.5731 145.547 21.618 150.72 21.618C155.893 21.618 159.988 17.5731 159.988 12.4496C160.258 7.3261 155.893 3.28125 150.72 3.28125ZM150.72 18.382C147.46 18.382 144.711 15.6855 144.711 12.4496C144.711 9.2137 147.433 6.51713 150.72 6.51713C153.98 6.51713 156.728 9.2137 156.728 12.4496C156.728 15.6855 153.98 18.382 150.72 18.382Z" fill="black"/>
<path d="M152.633 25.125C153.98 25.125 155.085 26.2037 155.085 27.5519C155.085 28.9002 153.98 29.9788 152.633 29.9788C151.286 29.9788 150.181 28.9002 150.181 27.5519C150.181 26.2037 151.286 25.125 152.633 25.125Z" fill="black"/>
<path d="M145.816 85.7969C147.163 85.7969 148.267 86.8755 148.267 88.2238C148.267 89.5721 147.163 90.6507 145.816 90.6507C144.468 90.6507 143.364 89.5721 143.364 88.2238C143.364 86.8755 144.468 85.7969 145.816 85.7969Z" fill="black"/>
<path d="M135.471 151.59C136.818 151.59 137.923 152.668 137.923 154.017C137.923 155.365 136.818 156.444 135.471 156.444C134.124 156.444 133.019 155.365 133.019 154.017C132.992 152.668 134.097 151.59 135.471 151.59Z" fill="black"/>
<path d="M23.1722 4.89844C24.5193 4.89844 25.624 5.97709 25.624 7.32538C25.624 8.67367 24.5193 9.75228 23.1722 9.75228C21.825 9.75228 20.7203 8.67367 20.7203 7.32538C20.7203 5.97709 21.825 4.89844 23.1722 4.89844Z" fill="black"/>
<path d="M7.62485 45.3438C8.972 45.3438 10.0767 46.4224 10.0767 47.7707C10.0767 49.119 8.972 50.1976 7.62485 50.1976C6.27769 50.1976 5.1731 49.119 5.1731 47.7707C5.1731 46.4224 6.27769 45.3438 7.62485 45.3438Z" fill="black"/>
<path d="M14.4421 96.043C15.7893 96.043 16.8939 97.1216 16.8939 98.4699C16.8939 99.8182 15.7893 100.897 14.4421 100.897C13.095 100.897 11.9904 99.8182 11.9904 98.4699C11.9904 97.1216 13.095 96.043 14.4421 96.043Z" fill="black"/>
<path d="M51.5155 31.5923C50.9766 31.5923 50.1414 31.5922 49.6026 31.3226C48.2285 31.0529 47.4201 30.5136 46.6118 30.244C46.3424 29.9743 46.073 29.9743 46.073 29.7047L44.4294 32.9405C47.4201 34.8281 52.8896 35.9068 55.6108 33.7495C56.1497 33.4799 56.6885 32.9405 56.958 32.1316C57.2274 31.5922 57.4969 30.7833 57.4969 29.7047C57.4969 25.9295 54.2368 25.3901 50.9497 24.3115C50.4108 24.0418 49.5756 23.7722 49.3061 23.5025C49.0367 23.2329 49.0368 22.9632 49.0368 22.6935C49.0368 21.8846 49.5756 21.3453 50.9497 21.3453C51.4886 21.3453 52.0275 21.3453 52.3238 21.6149C53.1321 21.8846 54.2367 22.1542 54.7756 22.6935C55.045 22.9632 55.3145 22.9632 55.3145 22.9632L56.958 19.7273C56.6885 19.4576 56.1497 19.188 55.8803 19.188C54.5062 18.6487 52.8896 18.1094 51.246 18.1094C48.7942 18.1094 46.6119 18.9183 45.8036 21.0756C45.2647 22.1542 45.2647 24.0418 45.5341 24.8508C46.9082 28.3564 53.6979 27.5474 53.6979 29.9743C53.4284 31.0529 52.8626 31.5923 51.5155 31.5923Z" fill="black"/>
<path d="M72.773 31.3225H65.148V27.8169H71.6683V24.8507H65.148V21.6148H72.773V18.3789H61.3221V34.5584H72.773V31.3225Z" fill="black"/>
<path d="M80.3995 34.0271C82.3124 34.836 86.1114 34.5664 86.9466 34.0271C90.7725 32.1395 92.9549 27.825 91.3114 23.5104C90.5031 21.6228 89.129 20.0049 87.2161 18.9263C85.3031 18.1173 82.5819 17.8476 80.6689 18.9263C76.5736 20.8139 74.6875 25.398 76.3041 29.4429C76.8699 31.6002 78.2171 33.2181 80.3995 34.0271ZM79.5912 24.8587C79.8606 23.7801 80.6689 22.7015 81.7736 22.1622C82.8513 21.6228 84.4948 21.6228 85.5995 22.1622C87.7818 23.2408 88.5901 26.207 87.7818 28.3643C87.5124 29.4429 86.6772 30.5215 85.5995 31.0609C84.5217 31.6002 82.8782 31.6002 81.7736 31.0609C80.6689 30.5215 79.8606 29.4429 79.5912 28.3643C79.3218 27.2857 79.3218 25.398 79.5912 24.8587Z" fill="black"/>
</svg>
