<svg width="48" height="48" viewBox="0 0 48 48" fill="none" xmlns="http://www.w3.org/2000/svg">
<path d="M42.0231 7.45532C42.0231 7.45532 42.0231 7.45531 41.9422 7.37442C41.9422 7.37442 41.9423 7.29353 41.8614 7.29353C35.3223 0.821745 35.7265 1.14533 35.5648 1.14533C35.4032 1.06443 36.6318 1.14533 10.7906 1.14533C10.5482 1.14533 10.2976 1.38803 10.2976 1.63072V6.16096H7.19373C6.95124 6.16096 6.70068 6.40365 6.70068 6.64635V46.5287C6.70068 46.7714 6.94316 47.0141 7.19373 47.0141H35.4032C35.6456 47.0141 35.8962 46.7714 35.8962 46.5287V43.6164H41.5381C41.7806 43.6164 42.0312 43.3737 42.0312 43.131C42.0231 5.99916 42.0231 7.61711 42.0231 7.45532ZM35.8962 2.76327L40.3095 7.13172H35.8962V2.76327ZM34.9101 45.9624H7.67871V7.13172H10.2167V43.0501C10.2167 43.2928 10.4592 43.5355 10.7098 43.5355H34.8293V45.9624H34.9101ZM11.2837 42.4838V40.8659H26.0835C26.326 40.8659 26.5766 40.6232 26.5766 40.3805C26.5766 40.1378 26.3341 39.8951 26.0835 39.8951H11.2837V2.0352H34.9101V7.61711C34.9101 7.8598 35.1526 8.1025 35.4032 8.1025H41.045V42.4838H11.2837Z" fill="#5030D1"/>
<path d="M13.8219 18.6192H34.2636C34.5061 18.6192 34.7567 18.3765 34.7567 18.1338C34.7567 17.8911 34.5142 17.6484 34.2636 17.6484H13.8219C13.5794 17.6484 13.3289 17.8911 13.3289 18.1338C13.3289 18.3765 13.5714 18.6192 13.8219 18.6192Z" fill="#5030D1"/>
<path d="M13.8219 20.6427H34.2636C34.5061 20.6427 34.7567 20.4 34.7567 20.1573C34.7567 19.9146 34.5142 19.6719 34.2636 19.6719H13.8219C13.5794 19.6719 13.3289 19.9146 13.3289 20.1573C13.3289 20.4 13.5714 20.6427 13.8219 20.6427Z" fill="#5030D1"/>
<path d="M13.8219 14.5762H34.2636C34.5061 14.5762 34.7567 14.3335 34.7567 14.0909C34.7567 13.8482 34.5142 13.6055 34.2636 13.6055H13.8219C13.5794 13.6055 13.3289 13.8482 13.3289 14.0909C13.3289 14.3335 13.5714 14.5762 13.8219 14.5762Z" fill="#5030D1"/>
<path d="M13.8219 16.5958H34.2636C34.5061 16.5958 34.7567 16.3531 34.7567 16.1104C34.7567 15.8677 34.5142 15.625 34.2636 15.625H13.8219C13.5794 15.625 13.3289 15.8677 13.3289 16.1104C13.3289 16.3531 13.5714 16.5958 13.8219 16.5958Z" fill="#5030D1"/>
<path d="M13.8219 22.6661H31.2406C31.4831 22.6661 31.7337 22.4234 31.7337 22.1807C31.7337 21.938 31.4912 21.6953 31.2406 21.6953H13.8219C13.5794 21.6953 13.3289 21.938 13.3289 22.1807C13.3289 22.4234 13.5714 22.6661 13.8219 22.6661Z" fill="#5030D1"/>
<path d="M13.8219 24.8497H35.3225C35.565 24.8497 35.8156 24.607 35.8156 24.3643C35.8156 24.1216 35.5731 23.8789 35.3225 23.8789H13.8219C13.5794 23.8789 13.3289 24.1216 13.3289 24.3643C13.3289 24.607 13.5714 24.8497 13.8219 24.8497Z" fill="#5030D1"/>
<path d="M13.8219 26.7091H28.6218C28.8643 26.7091 29.1148 26.4664 29.1148 26.2237C29.1148 25.981 28.8723 25.7383 28.6218 25.7383H13.8219C13.5794 25.7383 13.3289 25.981 13.3289 26.2237C13.3289 26.4664 13.5714 26.7091 13.8219 26.7091Z" fill="#5030D1"/>
<path d="M13.8219 28.6505H23.0607C23.3032 28.6505 23.5538 28.4078 23.5538 28.1651C23.5538 27.9224 23.3113 27.6797 23.0607 27.6797H13.8219C13.5794 27.6797 13.3289 27.9224 13.3289 28.1651C13.3289 28.4078 13.5714 28.6505 13.8219 28.6505Z" fill="#5030D1"/>
<path d="M24.5318 29.543H13.8219C13.5794 29.543 13.3289 29.7857 13.3289 30.0283C13.3289 30.271 13.5714 30.5137 13.8219 30.5137H24.5318C24.7743 30.5137 25.0249 30.271 25.0249 30.0283C25.1057 29.7857 24.8551 29.543 24.5318 29.543Z" fill="#5030D1"/>
<path d="M21.0157 31.4805H13.8219C13.5794 31.4805 13.3289 31.7232 13.3289 31.9659C13.3289 32.2085 13.5714 32.4512 13.8219 32.4512H21.0157C21.2582 32.4512 21.5088 32.2085 21.5088 31.9659C21.5007 31.7232 21.2582 31.4805 21.0157 31.4805Z" fill="#5030D1"/>
<path d="M34.8293 26.8729C34.5868 26.792 34.2554 26.8729 34.1745 27.1965L33.8512 28.0055C32.6226 27.6819 31.2324 27.6819 30.0118 28.0055C27.0697 28.8145 25.0247 31.4841 25.0247 34.4773C25.0247 38.2794 28.1285 41.2726 31.8951 41.2726C35.6537 41.2726 38.7656 38.1985 38.7656 34.4773C38.7656 33.7492 38.6848 33.102 38.5232 32.4548L39.3395 32.1313C39.582 32.0504 39.7518 31.7268 39.6629 31.4841C38.7576 29.3807 37.0359 27.6819 34.8293 26.8729ZM34.999 28.0055C36.5509 28.7336 37.7795 29.947 38.5151 31.4841L32.954 33.5065L34.999 28.0055ZM33.5198 28.8954L32.0487 32.7784L30.8201 28.8145C31.7254 28.6527 32.7035 28.7336 33.5198 28.8954ZM37.7795 34.4773C37.7795 37.7132 35.1607 40.3019 31.976 40.3019C28.7024 40.3019 26.0916 37.7132 26.0916 34.4773C26.0916 32.1312 27.6435 29.947 29.8502 29.1381C31.6527 34.8009 31.5637 34.4773 31.5637 34.5582C31.6446 34.6391 31.6446 34.72 31.7254 34.8009C31.8062 34.8818 31.8871 34.8818 32.0568 34.8818C32.1376 34.8818 32.1377 34.8818 32.1377 34.8818C32.1377 34.8818 32.1376 34.8818 32.2185 34.8818L37.6179 32.9402C37.6906 33.3447 37.7795 33.8301 37.7795 34.4773Z" fill="#5030D1"/>
<path d="M2.28746 33.3438C0.978024 33.3438 0 34.3954 0 35.6089C0 36.9032 1.05885 37.874 2.28746 37.874C3.51606 37.874 4.57494 36.8223 4.57494 35.6089C4.66385 34.3145 3.59689 33.3438 2.28746 33.3438ZM2.28746 36.8223C1.55191 36.8223 0.978028 36.256 0.978028 35.528C0.978028 34.7999 1.55191 34.2336 2.28746 34.2336C3.02301 34.2336 3.59691 34.7999 3.59691 35.528C3.59691 36.256 3.02301 36.8223 2.28746 36.8223Z" fill="#5030D1"/>
<path d="M45.2158 0.984375C43.6639 0.984375 42.4353 2.19783 42.4353 3.73488C42.4353 5.27193 43.6639 6.48539 45.2158 6.48539C46.7678 6.48539 47.9964 5.27193 47.9964 3.73488C48.0772 2.19783 46.7678 0.984375 45.2158 0.984375ZM45.2158 5.51461C44.2378 5.51461 43.4133 4.70564 43.4133 3.73488C43.4133 2.76411 44.2297 1.95514 45.2158 1.95514C46.1939 1.95514 47.0183 2.76411 47.0183 3.73488C47.0183 4.70564 46.1939 5.51461 45.2158 5.51461Z" fill="#5030D1"/>
<path d="M45.79 7.53516C46.1941 7.53516 46.5255 7.85875 46.5255 8.26324C46.5255 8.66773 46.1941 8.99131 45.79 8.99131C45.3858 8.99131 45.0544 8.66773 45.0544 8.26324C45.0544 7.85875 45.3858 7.53516 45.79 7.53516Z" fill="#5030D1"/>
<path d="M43.7446 25.7383C44.1487 25.7383 44.4801 26.0619 44.4801 26.4664C44.4801 26.8709 44.1487 27.1944 43.7446 27.1944C43.3404 27.1944 43.009 26.8709 43.009 26.4664C43.009 26.0619 43.3404 25.7383 43.7446 25.7383Z" fill="#5030D1"/>
<path d="M40.6412 45.4766C41.0454 45.4766 41.3768 45.8001 41.3768 46.2046C41.3768 46.6091 41.0454 46.9327 40.6412 46.9327C40.2371 46.9327 39.9057 46.6091 39.9057 46.2046C39.8976 45.8001 40.229 45.4766 40.6412 45.4766Z" fill="#5030D1"/>
<path d="M6.95161 1.46875C7.35576 1.46875 7.68716 1.79235 7.68716 2.19683C7.68716 2.60132 7.35576 2.9249 6.95161 2.9249C6.54747 2.9249 6.21606 2.60132 6.21606 2.19683C6.21606 1.79235 6.54747 1.46875 6.95161 1.46875Z" fill="#5030D1"/>
<path d="M2.28753 13.6055C2.69167 13.6055 3.02308 13.9291 3.02308 14.3336C3.02308 14.738 2.69167 15.0616 2.28753 15.0616C1.88338 15.0616 1.552 14.738 1.552 14.3336C1.552 13.9291 1.88338 13.6055 2.28753 13.6055Z" fill="#5030D1"/>
<path d="M4.33269 28.8125C4.73684 28.8125 5.06824 29.1361 5.06824 29.5406C5.06824 29.9451 4.73684 30.2687 4.33269 30.2687C3.92855 30.2687 3.59717 29.9451 3.59717 29.5406C3.59717 29.1361 3.92855 28.8125 4.33269 28.8125Z" fill="#5030D1"/>
<path d="M15.4547 9.47846C15.293 9.47846 15.0424 9.47845 14.8808 9.39756C14.4686 9.31666 14.2261 9.15487 13.9836 9.07397C13.9027 8.99307 13.8219 8.99308 13.8219 8.91218L13.3289 9.88294C14.2261 10.4492 15.8669 10.7728 16.6833 10.1256C16.8449 10.0447 17.0066 9.88294 17.0874 9.64025C17.1682 9.47846 17.2491 9.23577 17.2491 8.91218C17.2491 7.77962 16.2711 7.61782 15.2849 7.29423C15.1233 7.21334 14.8727 7.13244 14.7919 7.05154C14.711 6.97064 14.7111 6.88974 14.7111 6.80884C14.7111 6.56615 14.8727 6.40436 15.2849 6.40436C15.4466 6.40436 15.6083 6.40436 15.6972 6.48526C15.9397 6.56616 16.271 6.64705 16.4327 6.80884C16.5135 6.88974 16.5944 6.88975 16.5944 6.88975L17.0874 5.91897C17.0066 5.83807 16.8449 5.75718 16.7641 5.75718C16.3519 5.59538 15.8669 5.43359 15.3738 5.43359C14.6383 5.43359 13.9836 5.67628 13.7411 6.32346C13.5794 6.64705 13.5794 7.21333 13.6603 7.45603C14.0725 8.50769 16.1094 8.26499 16.1094 8.99307C16.0286 9.31666 15.8588 9.47846 15.4547 9.47846Z" fill="#5030D1"/>
<path d="M21.832 9.3987H19.5445V8.34703H21.5006V7.45717H19.5445V6.4864H21.832V5.51562H18.3967V10.3695H21.832V9.3987Z" fill="#5030D1"/>
<path d="M24.1198 10.2085C24.6937 10.4512 25.8334 10.3703 26.084 10.2085C27.2318 9.64223 27.8865 8.34788 27.3934 7.05352C27.1509 6.48724 26.7387 6.00186 26.1648 5.67827C25.5909 5.43558 24.7746 5.35468 24.2007 5.67827C22.9721 6.24455 22.4063 7.6198 22.8912 8.83326C23.061 9.48044 23.4651 9.96582 24.1198 10.2085ZM23.8774 7.45801C23.9582 7.13442 24.2007 6.81083 24.5321 6.64904C24.8554 6.48724 25.3484 6.48724 25.6798 6.64904C26.3346 6.97263 26.577 7.8625 26.3346 8.50968C26.2537 8.83327 26.0032 9.15685 25.6798 9.31865C25.3565 9.48044 24.8635 9.48044 24.5321 9.31865C24.2007 9.15685 23.9582 8.83327 23.8774 8.50968C23.7965 8.18609 23.7965 7.6198 23.8774 7.45801Z" fill="#5030D1"/>
</svg>
