<svg width="170" height="68" viewBox="0 0 170 68" fill="none" xmlns="http://www.w3.org/2000/svg">
<path d="M136.783 39.14C135.81 39.14 134.93 38.9733 134.143 38.64C133.37 38.3067 132.757 37.8267 132.303 37.2C131.85 36.5733 131.617 35.8333 131.603 34.98H134.603C134.643 35.5533 134.843 36.0067 135.203 36.34C135.577 36.6733 136.083 36.84 136.723 36.84C137.377 36.84 137.89 36.6867 138.263 36.38C138.637 36.06 138.823 35.6467 138.823 35.14C138.823 34.7267 138.697 34.3867 138.443 34.12C138.19 33.8533 137.87 33.6467 137.483 33.5C137.11 33.34 136.59 33.1667 135.923 32.98C135.017 32.7133 134.277 32.4533 133.703 32.2C133.143 31.9333 132.657 31.54 132.243 31.02C131.843 30.4867 131.643 29.78 131.643 28.9C131.643 28.0733 131.85 27.3533 132.263 26.74C132.677 26.1267 133.257 25.66 134.003 25.34C134.75 25.0067 135.603 24.84 136.563 24.84C138.003 24.84 139.17 25.1933 140.063 25.9C140.97 26.5933 141.47 27.5667 141.563 28.82H138.483C138.457 28.34 138.25 27.9467 137.863 27.64C137.49 27.32 136.99 27.16 136.363 27.16C135.817 27.16 135.377 27.3 135.043 27.58C134.723 27.86 134.563 28.2667 134.563 28.8C134.563 29.1733 134.683 29.4867 134.923 29.74C135.177 29.98 135.483 30.18 135.843 30.34C136.217 30.4867 136.737 30.66 137.403 30.86C138.31 31.1267 139.05 31.3933 139.623 31.66C140.197 31.9267 140.69 32.3267 141.103 32.86C141.517 33.3933 141.723 34.0933 141.723 34.96C141.723 35.7067 141.53 36.4 141.143 37.04C140.757 37.68 140.19 38.1933 139.443 38.58C138.697 38.9533 137.81 39.14 136.783 39.14ZM146.951 27.3V30.8H151.651V33.02H146.951V36.72H152.251V39H144.151V25.02H152.251V27.3H146.951ZM161.275 39.14C159.969 39.14 158.769 38.8333 157.675 38.22C156.582 37.6067 155.715 36.76 155.075 35.68C154.435 34.5867 154.115 33.3533 154.115 31.98C154.115 30.62 154.435 29.4 155.075 28.32C155.715 27.2267 156.582 26.3733 157.675 25.76C158.769 25.1467 159.969 24.84 161.275 24.84C162.595 24.84 163.795 25.1467 164.875 25.76C165.969 26.3733 166.829 27.2267 167.455 28.32C168.095 29.4 168.415 30.62 168.415 31.98C168.415 33.3533 168.095 34.5867 167.455 35.68C166.829 36.76 165.969 37.6067 164.875 38.22C163.782 38.8333 162.582 39.14 161.275 39.14ZM161.275 36.64C162.115 36.64 162.855 36.4533 163.495 36.08C164.135 35.6933 164.635 35.1467 164.995 34.44C165.355 33.7333 165.535 32.9133 165.535 31.98C165.535 31.0467 165.355 30.2333 164.995 29.54C164.635 28.8333 164.135 28.2933 163.495 27.92C162.855 27.5467 162.115 27.36 161.275 27.36C160.435 27.36 159.689 27.5467 159.035 27.92C158.395 28.2933 157.895 28.8333 157.535 29.54C157.175 30.2333 156.995 31.0467 156.995 31.98C156.995 32.9133 157.175 33.7333 157.535 34.44C157.895 35.1467 158.395 35.6933 159.035 36.08C159.689 36.4533 160.435 36.64 161.275 36.64Z" fill="black"/>
<path d="M124.5 33.75C124.5 52.3896 109.39 67.5 90.75 67.5C72.1104 67.5 57 52.3896 57 33.75C57 15.1104 72.1104 0 90.75 0C109.39 0 124.5 15.1104 124.5 33.75ZM73.1361 33.75C73.1361 43.4779 81.0221 51.3639 90.75 51.3639C100.478 51.3639 108.364 43.4779 108.364 33.75C108.364 24.0221 100.478 16.1361 90.75 16.1361C81.0221 16.1361 73.1361 24.0221 73.1361 33.75Z" fill="url(#paint0_linear_621_2475)"/>
<path d="M5.306 38.144C4.48467 38.144 3.738 37.9573 3.066 37.584C2.40467 37.2107 1.882 36.6827 1.498 36C1.12467 35.3067 0.938 34.5067 0.938 33.6C0.938 32.704 1.13 31.9147 1.514 31.232C1.90867 30.5387 2.442 30.0107 3.114 29.648C3.786 29.2747 4.538 29.088 5.37 29.088C6.202 29.088 6.954 29.2747 7.626 29.648C8.298 30.0107 8.826 30.5333 9.21 31.216C9.60467 31.8987 9.802 32.6933 9.802 33.6C9.802 34.5067 9.59933 35.3067 9.194 36C8.79933 36.6827 8.26067 37.2107 7.578 37.584C6.89533 37.9573 6.138 38.144 5.306 38.144ZM5.306 36.864C5.82867 36.864 6.31933 36.7413 6.778 36.496C7.23667 36.2507 7.60467 35.8827 7.882 35.392C8.17 34.9013 8.314 34.304 8.314 33.6C8.314 32.896 8.17533 32.2987 7.898 31.808C7.62067 31.3173 7.258 30.9547 6.81 30.72C6.362 30.4747 5.87667 30.352 5.354 30.352C4.82067 30.352 4.33 30.4747 3.882 30.72C3.44467 30.9547 3.09267 31.3173 2.826 31.808C2.55933 32.2987 2.426 32.896 2.426 33.6C2.426 34.3147 2.554 34.9173 2.81 35.408C3.07667 35.8987 3.42867 36.2667 3.866 36.512C4.30333 36.7467 4.78333 36.864 5.306 36.864ZM15.9884 29.072C17.055 29.072 17.919 29.3973 18.5804 30.048C19.2417 30.688 19.5724 31.616 19.5724 32.832V38H18.1324V33.04C18.1324 32.1653 17.9137 31.4987 17.4764 31.04C17.039 30.5707 16.4417 30.336 15.6844 30.336C14.9164 30.336 14.303 30.576 13.8444 31.056C13.3964 31.536 13.1724 32.2347 13.1724 33.152V38H11.7164V29.232H13.1724V30.48C13.4604 30.032 13.8497 29.6853 14.3404 29.44C14.8417 29.1947 15.391 29.072 15.9884 29.072ZM23.4068 26.16V38H21.9508V26.16H23.4068ZM26.6403 27.808C26.3629 27.808 26.1283 27.712 25.9363 27.52C25.7443 27.328 25.6483 27.0933 25.6483 26.816C25.6483 26.5387 25.7443 26.304 25.9363 26.112C26.1283 25.92 26.3629 25.824 26.6403 25.824C26.9069 25.824 27.1309 25.92 27.3123 26.112C27.5043 26.304 27.6003 26.5387 27.6003 26.816C27.6003 27.0933 27.5043 27.328 27.3123 27.52C27.1309 27.712 26.9069 27.808 26.6403 27.808ZM27.3443 29.232V38H25.8883V29.232H27.3443ZM34.0978 29.072C35.1644 29.072 36.0284 29.3973 36.6898 30.048C37.3511 30.688 37.6818 31.616 37.6818 32.832V38H36.2418V33.04C36.2418 32.1653 36.0231 31.4987 35.5858 31.04C35.1484 30.5707 34.5511 30.336 33.7938 30.336C33.0258 30.336 32.4124 30.576 31.9538 31.056C31.5058 31.536 31.2818 32.2347 31.2818 33.152V38H29.8258V29.232H31.2818V30.48C31.5698 30.032 31.9591 29.6853 32.4498 29.44C32.9511 29.1947 33.5004 29.072 34.0978 29.072ZM48.0601 33.28C48.0601 33.5573 48.0441 33.8507 48.0121 34.16H41.0041C41.0575 35.024 41.3508 35.7013 41.8841 36.192C42.4281 36.672 43.0841 36.912 43.8521 36.912C44.4815 36.912 45.0041 36.768 45.4201 36.48C45.8468 36.1813 46.1455 35.7867 46.3161 35.296H47.8841C47.6495 36.1387 47.1801 36.8267 46.4761 37.36C45.7721 37.8827 44.8975 38.144 43.8521 38.144C43.0201 38.144 42.2735 37.9573 41.6121 37.584C40.9615 37.2107 40.4495 36.6827 40.0761 36C39.7028 35.3067 39.5161 34.5067 39.5161 33.6C39.5161 32.6933 39.6975 31.8987 40.0601 31.216C40.4228 30.5333 40.9295 30.0107 41.5801 29.648C42.2415 29.2747 42.9988 29.088 43.8521 29.088C44.6841 29.088 45.4201 29.2693 46.0601 29.632C46.7001 29.9947 47.1908 30.496 47.5321 31.136C47.8841 31.7653 48.0601 32.48 48.0601 33.28ZM46.5561 32.976C46.5561 32.4213 46.4335 31.9467 46.1881 31.552C45.9428 31.1467 45.6068 30.8427 45.1801 30.64C44.7641 30.4267 44.3001 30.32 43.7881 30.32C43.0521 30.32 42.4228 30.5547 41.9001 31.024C41.3881 31.4933 41.0948 32.144 41.0201 32.976H46.5561Z" fill="black"/>
<defs>
<linearGradient id="paint0_linear_621_2475" x1="70.5" y1="54.5" x2="124.5" y2="17.5" gradientUnits="userSpaceOnUse">
<stop offset="0.0318924" stop-color="#58F584"/>
<stop offset="0.62757" stop-color="#5131D2"/>
<stop offset="1" stop-color="#5131D2"/>
</linearGradient>
</defs>
</svg>
