<svg width="147" height="50" viewBox="0 0 147 50" fill="none" xmlns="http://www.w3.org/2000/svg">
<path d="M6.40669 30.3839C5.64315 30.3839 4.94903 30.2103 4.32432 29.8633C3.70952 29.5162 3.22364 29.0254 2.86666 28.3907C2.5196 27.7462 2.34607 27.0025 2.34607 26.1596C2.34607 25.3267 2.52456 24.5929 2.88153 23.9583C3.24843 23.3137 3.74423 22.8229 4.36894 22.4857C4.99365 22.1387 5.69273 21.9651 6.46619 21.9651C7.23964 21.9651 7.93872 22.1387 8.56343 22.4857C9.18814 22.8229 9.67899 23.3088 10.036 23.9434C10.4029 24.578 10.5863 25.3168 10.5863 26.1596C10.5863 27.0025 10.3979 27.7462 10.0211 28.3907C9.6542 29.0254 9.15344 29.5162 8.51881 29.8633C7.88418 30.2103 7.18014 30.3839 6.40669 30.3839ZM6.40669 29.1939C6.89258 29.1939 7.34871 29.0799 7.7751 28.8518C8.20149 28.6238 8.5436 28.2817 8.80142 27.8255C9.06915 27.3694 9.20302 26.8141 9.20302 26.1596C9.20302 25.5052 9.07411 24.9499 8.81629 24.4937C8.55847 24.0376 8.22133 23.7004 7.80485 23.4823C7.38838 23.2542 6.9372 23.1402 6.45131 23.1402C5.95551 23.1402 5.49937 23.2542 5.0829 23.4823C4.67634 23.7004 4.34911 24.0376 4.10121 24.4937C3.85331 24.9499 3.72936 25.5052 3.72936 26.1596C3.72936 26.824 3.84835 27.3843 4.08633 27.8404C4.33424 28.2965 4.66146 28.6386 5.06802 28.8667C5.47458 29.0849 5.9208 29.1939 6.40669 29.1939ZM16.3373 21.9503C17.3289 21.9503 18.1321 22.2527 18.7469 22.8576C19.3617 23.4525 19.6691 24.3152 19.6691 25.4457V30.25H18.3305V25.639C18.3305 24.8259 18.1272 24.2062 17.7206 23.7798C17.3141 23.3435 16.7588 23.1253 16.0547 23.1253C15.3408 23.1253 14.7706 23.3484 14.3442 23.7947C13.9277 24.2409 13.7195 24.8904 13.7195 25.7432V30.25H12.366V22.099H13.7195V23.2592C13.9872 22.8427 14.3492 22.5204 14.8053 22.2924C15.2714 22.0643 15.782 21.9503 16.3373 21.9503ZM23.2337 19.2432V30.25H21.8801V19.2432H23.2337ZM26.2396 20.7752C25.9818 20.7752 25.7637 20.686 25.5852 20.5075C25.4067 20.329 25.3174 20.1108 25.3174 19.853C25.3174 19.5952 25.4067 19.3771 25.5852 19.1986C25.7637 19.0201 25.9818 18.9308 26.2396 18.9308C26.4875 18.9308 26.6958 19.0201 26.8644 19.1986C27.0428 19.3771 27.1321 19.5952 27.1321 19.853C27.1321 20.1108 27.0428 20.329 26.8644 20.5075C26.6958 20.686 26.4875 20.7752 26.2396 20.7752ZM26.8941 22.099V30.25H25.5406V22.099H26.8941ZM33.1724 21.9503C34.164 21.9503 34.9672 22.2527 35.582 22.8576C36.1967 23.4525 36.5041 24.3152 36.5041 25.4457V30.25H35.1655V25.639C35.1655 24.8259 34.9622 24.2062 34.5556 23.7798C34.1491 23.3435 33.5938 23.1253 32.8897 23.1253C32.1758 23.1253 31.6056 23.3484 31.1792 23.7947C30.7628 24.2409 30.5545 24.8904 30.5545 25.7432V30.25H29.201V22.099H30.5545V23.2592C30.8222 22.8427 31.1842 22.5204 31.6403 22.2924C32.1064 22.0643 32.6171 21.9503 33.1724 21.9503ZM46.1522 25.8621C46.1522 26.12 46.1373 26.3927 46.1076 26.6802H39.5927C39.6423 27.4834 39.915 28.1131 40.4108 28.5692C40.9165 29.0155 41.5264 29.2386 42.2403 29.2386C42.8254 29.2386 43.3112 29.1047 43.698 28.837C44.0946 28.5593 44.3723 28.1924 44.5309 27.7363H45.9886C45.7704 28.5196 45.3341 29.1592 44.6797 29.655C44.0252 30.1409 43.2121 30.3839 42.2403 30.3839C41.4669 30.3839 40.7727 30.2103 40.1579 29.8633C39.5531 29.5162 39.0771 29.0254 38.73 28.3907C38.383 27.7462 38.2094 27.0025 38.2094 26.1596C38.2094 25.3168 38.378 24.578 38.7152 23.9434C39.0523 23.3088 39.5233 22.8229 40.1282 22.4857C40.743 22.1387 41.447 21.9651 42.2403 21.9651C43.0138 21.9651 43.698 22.1337 44.2929 22.4709C44.8879 22.808 45.344 23.2741 45.6613 23.869C45.9886 24.4541 46.1522 25.1184 46.1522 25.8621ZM44.754 25.5795C44.754 25.0639 44.64 24.6226 44.4119 24.2557C44.1839 23.8789 43.8715 23.5963 43.4749 23.4079C43.0881 23.2096 42.6568 23.1104 42.1808 23.1104C41.4966 23.1104 40.9116 23.3286 40.4257 23.7649C39.9497 24.2012 39.677 24.8061 39.6076 25.5795H44.754Z" fill="white"/>
<path d="M103.5 25C103.5 38.8071 92.3071 50 78.5 50C64.6929 50 53.5 38.8071 53.5 25C53.5 11.1929 64.6929 0 78.5 0C92.3071 0 103.5 11.1929 103.5 25ZM65.4527 25C65.4527 32.2058 71.2941 38.0473 78.5 38.0473C85.7058 38.0473 91.5473 32.2058 91.5473 25C91.5473 17.7941 85.7058 11.9527 78.5 11.9527C71.2941 11.9527 65.4527 17.7941 65.4527 25Z" fill="url(#paint0_linear_2165_6)"/>
<path d="M114.264 31.8801C113.359 31.8801 112.541 31.7252 111.809 31.4153C111.091 31.1055 110.52 30.6592 110.099 30.0767C109.678 29.4941 109.461 28.8062 109.448 28.0129H112.237C112.274 28.5459 112.46 28.9673 112.795 29.2772C113.142 29.5871 113.613 29.742 114.208 29.742C114.815 29.742 115.292 29.5995 115.64 29.3144C115.987 29.0169 116.16 28.6326 116.16 28.1616C116.16 27.7774 116.042 27.4613 115.807 27.2134C115.571 26.9655 115.274 26.7734 114.914 26.637C114.567 26.4883 114.084 26.3272 113.464 26.1536C112.621 25.9057 111.933 25.664 111.4 25.4285C110.88 25.1806 110.427 24.815 110.043 24.3316C109.671 23.8358 109.485 23.1788 109.485 22.3607C109.485 21.5922 109.678 20.9229 110.062 20.3527C110.446 19.7826 110.985 19.3487 111.679 19.0513C112.373 18.7414 113.167 18.5864 114.059 18.5864C115.398 18.5864 116.482 18.9149 117.313 19.5719C118.156 20.2164 118.621 21.1212 118.707 22.2864H115.844C115.819 21.8401 115.627 21.4745 115.268 21.1894C114.921 20.8919 114.456 20.7432 113.873 20.7432C113.365 20.7432 112.956 20.8733 112.646 21.1336C112.349 21.3939 112.2 21.772 112.2 22.2678C112.2 22.6148 112.311 22.9061 112.535 23.1416C112.77 23.3647 113.055 23.5507 113.39 23.6994C113.737 23.8358 114.22 23.9969 114.84 24.1828C115.683 24.4307 116.371 24.6786 116.904 24.9265C117.437 25.1744 117.895 25.5463 118.28 26.0421C118.664 26.5379 118.856 27.1886 118.856 27.9943C118.856 28.6884 118.676 29.333 118.317 29.9279C117.957 30.5229 117.431 31.0001 116.737 31.3596C116.042 31.7066 115.218 31.8801 114.264 31.8801ZM123.716 20.8733V24.127H128.085V26.1908H123.716V29.6304H128.643V31.75H121.113V18.7538H128.643V20.8733H123.716ZM137.032 31.8801C135.818 31.8801 134.702 31.5951 133.686 31.0249C132.669 30.4547 131.863 29.6676 131.269 28.6636C130.674 27.6472 130.376 26.5007 130.376 25.224C130.376 23.9597 130.674 22.8256 131.269 21.8216C131.863 20.8052 132.669 20.0119 133.686 19.4417C134.702 18.8715 135.818 18.5864 137.032 18.5864C138.259 18.5864 139.375 18.8715 140.379 19.4417C141.395 20.0119 142.195 20.8052 142.777 21.8216C143.372 22.8256 143.67 23.9597 143.67 25.224C143.67 26.5007 143.372 27.6472 142.777 28.6636C142.195 29.6676 141.395 30.4547 140.379 31.0249C139.362 31.5951 138.247 31.8801 137.032 31.8801ZM137.032 29.5561C137.813 29.5561 138.501 29.3825 139.096 29.0355C139.691 28.676 140.156 28.1678 140.49 27.5109C140.825 26.854 140.992 26.0917 140.992 25.224C140.992 24.3563 140.825 23.6002 140.49 22.9557C140.156 22.2988 139.691 21.7968 139.096 21.4497C138.501 21.1026 137.813 20.9291 137.032 20.9291C136.251 20.9291 135.557 21.1026 134.95 21.4497C134.355 21.7968 133.89 22.2988 133.555 22.9557C133.221 23.6002 133.053 24.3563 133.053 25.224C133.053 26.0917 133.221 26.854 133.555 27.5109C133.89 28.1678 134.355 28.676 134.95 29.0355C135.557 29.3825 136.251 29.5561 137.032 29.5561Z" fill="white"/>
<defs>
<linearGradient id="paint0_linear_2165_6" x1="63.5" y1="40.3704" x2="103.5" y2="12.963" gradientUnits="userSpaceOnUse">
<stop offset="0.0318924" stop-color="#58F584"/>
<stop offset="0.62757" stop-color="#5030D1"/>
<stop offset="1" stop-color="#5030D1"/>
</linearGradient>
</defs>
</svg>
