<svg width="30" height="30" viewBox="0 0 30 30" fill="none" xmlns="http://www.w3.org/2000/svg">
<path fill-rule="evenodd" clip-rule="evenodd" d="M27.4141 14.9999C27.4141 14.7489 27.3138 14.5082 27.1356 14.3314L16.4204 3.70641C16.0512 3.3403 15.4551 3.34282 15.089 3.71204C14.7228 4.08125 14.7254 4.67735 15.0946 5.04346L24.1861 14.0585L3.78171 14.0585C3.26175 14.0585 2.84024 14.48 2.84024 14.9999C2.84024 15.5199 3.26175 15.9414 3.78171 15.9414L24.1861 15.9414L15.0946 24.9564C14.7254 25.3225 14.7228 25.9186 15.089 26.2878C15.4551 26.6571 16.0512 26.6596 16.4204 26.2935L27.1356 15.6685C27.3138 15.4917 27.4141 15.251 27.4141 14.9999Z" fill="black"/>
</svg>
