<svg width="62" height="62" viewBox="0 0 62 62" fill="none" xmlns="http://www.w3.org/2000/svg">
<g clip-path="url(#clip0_2107_14949)">
<path fill-rule="evenodd" clip-rule="evenodd" d="M45.9146 42.0025C45.2872 43.7785 42.7933 45.2476 40.8045 45.6773C39.443 45.9663 37.6676 46.195 31.6854 43.716C24.9664 40.9323 15.6365 31.0166 15.6365 24.4181C15.6365 21.0589 17.5733 17.1474 20.9601 17.1474C22.5897 17.1474 22.949 17.1791 23.4852 18.4655C24.1126 19.981 25.6433 23.715 25.8255 24.0978C26.5779 25.668 25.0602 26.5872 23.959 27.9543C23.6076 28.3657 23.2093 28.8107 23.6544 29.5762C24.097 30.3262 25.6277 32.8209 27.8769 34.8233C30.782 37.4117 33.138 38.2381 33.9814 38.5896C34.6088 38.85 35.3585 38.7894 35.8167 38.2998C36.3972 37.6722 37.1183 36.631 37.8524 35.6051C38.3704 34.8707 39.0291 34.779 39.7189 35.0394C40.1849 35.2009 46.1072 37.9513 46.3571 38.3913C46.542 38.7116 46.542 40.2266 45.9146 42.0025ZM30.7664 5.24219H30.7534C16.4018 5.24219 4.729 16.9186 4.729 31.2744C4.729 36.9668 6.56429 42.2479 9.68556 46.5315L6.44194 56.2046L16.4461 53.0078C20.5618 55.7316 25.4741 57.3066 30.7664 57.3066C45.118 57.3066 56.7935 45.6303 56.7935 31.2744C56.7935 16.9186 45.118 5.24219 30.7664 5.24219Z" fill="#ECE2FF"/>
<path d="M40.8306 45.6823C42.8194 45.2526 45.3133 43.7834 45.9407 42.0075C46.5681 40.2316 46.568 38.7166 46.3832 38.3963C46.1333 37.9562 40.211 35.2059 39.745 35.0444C39.0552 34.784 38.3965 34.8757 37.8785 35.6101C37.1444 36.636 36.4233 37.6772 35.8428 38.3048C35.3846 38.7944 34.6349 38.855 34.0075 38.5946C33.1641 38.2431 30.8081 37.4167 27.9029 34.8283C25.6538 32.8258 24.1231 30.3312 23.6805 29.5812C23.2354 28.8156 23.6336 28.3707 23.9851 27.9593C25.0862 26.5922 26.6039 25.673 25.8516 24.1027C25.6694 23.72 24.1387 19.986 23.5113 18.4705C22.975 17.1841 22.6158 17.1523 20.9862 17.1523C17.5994 17.1523 15.6626 21.0639 15.6626 24.4231C15.6626 31.0216 24.9925 40.9373 31.7114 43.721C37.6937 46.2 39.4691 45.9713 40.8306 45.6823Z" fill="white"/>
</g>
<defs>
<clipPath id="clip0_2107_14949">
<rect width="52.0644" height="52.0644" fill="white" transform="translate(4.729 5.24219)"/>
</clipPath>
</defs>
</svg>
