<svg width="121" height="66" viewBox="0 0 121 66" fill="none" xmlns="http://www.w3.org/2000/svg">
<path d="M65.5 32.75C65.5 50.8373 50.8373 65.5 32.75 65.5C14.6627 65.5 0 50.8373 0 32.75C0 14.6627 14.6627 0 32.75 0C50.8373 0 65.5 14.6627 65.5 32.75ZM15.658 32.75C15.658 42.1897 23.3103 49.842 32.75 49.842C42.1897 49.842 49.842 42.1897 49.842 32.75C49.842 23.3103 42.1897 15.658 32.75 15.658C23.3103 15.658 15.658 23.3103 15.658 32.75Z" fill="url(#paint0_linear_923_2675)"/>
<path d="M80.1633 49.126C79.2873 49.126 78.4953 48.976 77.7873 48.676C77.0913 48.376 76.5393 47.944 76.1313 47.38C75.7233 46.816 75.5133 46.15 75.5013 45.382H78.2013C78.2373 45.898 78.4173 46.306 78.7413 46.606C79.0773 46.906 79.5333 47.056 80.1093 47.056C80.6973 47.056 81.1593 46.918 81.4953 46.642C81.8313 46.354 81.9993 45.982 81.9993 45.526C81.9993 45.154 81.8853 44.848 81.6573 44.608C81.4293 44.368 81.1413 44.182 80.7933 44.05C80.4573 43.906 79.9893 43.75 79.3893 43.582C78.5733 43.342 77.9073 43.108 77.3913 42.88C76.8873 42.64 76.4493 42.286 76.0773 41.818C75.7173 41.338 75.5373 40.702 75.5373 39.91C75.5373 39.166 75.7233 38.518 76.0953 37.966C76.4673 37.414 76.9893 36.994 77.6613 36.706C78.3333 36.406 79.1013 36.256 79.9653 36.256C81.2613 36.256 82.3113 36.574 83.1153 37.21C83.9313 37.834 84.3813 38.71 84.4653 39.838H81.6933C81.6693 39.406 81.4833 39.052 81.1353 38.776C80.7993 38.488 80.3493 38.344 79.7853 38.344C79.2933 38.344 78.8973 38.47 78.5973 38.722C78.3093 38.974 78.1653 39.34 78.1653 39.82C78.1653 40.156 78.2733 40.438 78.4893 40.666C78.7173 40.882 78.9933 41.062 79.3173 41.206C79.6533 41.338 80.1213 41.494 80.7213 41.674C81.5373 41.914 82.2033 42.154 82.7193 42.394C83.2353 42.634 83.6793 42.994 84.0513 43.474C84.4233 43.954 84.6093 44.584 84.6093 45.364C84.6093 46.036 84.4353 46.66 84.0873 47.236C83.7393 47.812 83.2293 48.274 82.5573 48.622C81.8853 48.958 81.0873 49.126 80.1633 49.126ZM89.314 38.47V41.62H93.544V43.618H89.314V46.948H94.084V49H86.794V36.418H94.084V38.47H89.314ZM102.206 49.126C101.03 49.126 99.9501 48.85 98.9661 48.298C97.9821 47.746 97.2021 46.984 96.6261 46.012C96.0501 45.028 95.7621 43.918 95.7621 42.682C95.7621 41.458 96.0501 40.36 96.6261 39.388C97.2021 38.404 97.9821 37.636 98.9661 37.084C99.9501 36.532 101.03 36.256 102.206 36.256C103.394 36.256 104.474 36.532 105.446 37.084C106.43 37.636 107.204 38.404 107.768 39.388C108.344 40.36 108.632 41.458 108.632 42.682C108.632 43.918 108.344 45.028 107.768 46.012C107.204 46.984 106.43 47.746 105.446 48.298C104.462 48.85 103.382 49.126 102.206 49.126ZM102.206 46.876C102.962 46.876 103.628 46.708 104.204 46.372C104.78 46.024 105.23 45.532 105.554 44.896C105.878 44.26 106.04 43.522 106.04 42.682C106.04 41.842 105.878 41.11 105.554 40.486C105.23 39.85 104.78 39.364 104.204 39.028C103.628 38.692 102.962 38.524 102.206 38.524C101.45 38.524 100.778 38.692 100.19 39.028C99.6141 39.364 99.1641 39.85 98.8401 40.486C98.5161 41.11 98.3541 41.842 98.3541 42.682C98.3541 43.522 98.5161 44.26 98.8401 44.896C99.1641 45.532 99.6141 46.024 100.19 46.372C100.778 46.708 101.45 46.876 102.206 46.876Z" fill="black"/>
<path d="M80.0056 27.135C79.2356 27.135 78.5356 26.96 77.9056 26.61C77.2856 26.26 76.7956 25.765 76.4356 25.125C76.0856 24.475 75.9106 23.725 75.9106 22.875C75.9106 22.035 76.0906 21.295 76.4506 20.655C76.8206 20.005 77.3206 19.51 77.9506 19.17C78.5806 18.82 79.2856 18.645 80.0656 18.645C80.8456 18.645 81.5506 18.82 82.1806 19.17C82.8106 19.51 83.3056 20 83.6656 20.64C84.0356 21.28 84.2206 22.025 84.2206 22.875C84.2206 23.725 84.0306 24.475 83.6506 25.125C83.2806 25.765 82.7756 26.26 82.1356 26.61C81.4956 26.96 80.7856 27.135 80.0056 27.135ZM80.0056 25.935C80.4956 25.935 80.9556 25.82 81.3856 25.59C81.8156 25.36 82.1606 25.015 82.4206 24.555C82.6906 24.095 82.8256 23.535 82.8256 22.875C82.8256 22.215 82.6956 21.655 82.4356 21.195C82.1756 20.735 81.8356 20.395 81.4156 20.175C80.9956 19.945 80.5406 19.83 80.0506 19.83C79.5506 19.83 79.0906 19.945 78.6706 20.175C78.2606 20.395 77.9306 20.735 77.6806 21.195C77.4306 21.655 77.3056 22.215 77.3056 22.875C77.3056 23.545 77.4256 24.11 77.6656 24.57C77.9156 25.03 78.2456 25.375 78.6556 25.605C79.0656 25.825 79.5156 25.935 80.0056 25.935ZM90.0204 18.63C91.0204 18.63 91.8304 18.935 92.4504 19.545C93.0704 20.145 93.3804 21.015 93.3804 22.155V27H92.0304V22.35C92.0304 21.53 91.8254 20.905 91.4154 20.475C91.0054 20.035 90.4454 19.815 89.7354 19.815C89.0154 19.815 88.4404 20.04 88.0104 20.49C87.5904 20.94 87.3804 21.595 87.3804 22.455V27H86.0154V18.78H87.3804V19.95C87.6504 19.53 88.0154 19.205 88.4754 18.975C88.9454 18.745 89.4604 18.63 90.0204 18.63ZM96.9751 15.9V27H95.6101V15.9H96.9751ZM100.006 17.445C99.7465 17.445 99.5265 17.355 99.3465 17.175C99.1665 16.995 99.0765 16.775 99.0765 16.515C99.0765 16.255 99.1665 16.035 99.3465 15.855C99.5265 15.675 99.7465 15.585 100.006 15.585C100.256 15.585 100.466 15.675 100.636 15.855C100.816 16.035 100.906 16.255 100.906 16.515C100.906 16.775 100.816 16.995 100.636 17.175C100.466 17.355 100.256 17.445 100.006 17.445ZM100.666 18.78V27H99.3015V18.78H100.666ZM106.998 18.63C107.998 18.63 108.808 18.935 109.428 19.545C110.048 20.145 110.358 21.015 110.358 22.155V27H109.008V22.35C109.008 21.53 108.803 20.905 108.393 20.475C107.983 20.035 107.423 19.815 106.713 19.815C105.993 19.815 105.418 20.04 104.988 20.49C104.568 20.94 104.358 21.595 104.358 22.455V27H102.993V18.78H104.358V19.95C104.628 19.53 104.993 19.205 105.453 18.975C105.923 18.745 106.438 18.63 106.998 18.63ZM120.088 22.575C120.088 22.835 120.073 23.11 120.043 23.4H113.473C113.523 24.21 113.798 24.845 114.298 25.305C114.808 25.755 115.423 25.98 116.143 25.98C116.733 25.98 117.223 25.845 117.613 25.575C118.013 25.295 118.293 24.925 118.453 24.465H119.923C119.703 25.255 119.263 25.9 118.603 26.4C117.943 26.89 117.123 27.135 116.143 27.135C115.363 27.135 114.663 26.96 114.043 26.61C113.433 26.26 112.953 25.765 112.603 25.125C112.253 24.475 112.078 23.725 112.078 22.875C112.078 22.025 112.248 21.28 112.588 20.64C112.928 20 113.403 19.51 114.013 19.17C114.633 18.82 115.343 18.645 116.143 18.645C116.923 18.645 117.613 18.815 118.213 19.155C118.813 19.495 119.273 19.965 119.593 20.565C119.923 21.155 120.088 21.825 120.088 22.575ZM118.678 22.29C118.678 21.77 118.563 21.325 118.333 20.955C118.103 20.575 117.788 20.29 117.388 20.1C116.998 19.9 116.563 19.8 116.083 19.8C115.393 19.8 114.803 20.02 114.313 20.46C113.833 20.9 113.558 21.51 113.488 22.29H118.678Z" fill="black"/>
<defs>
<linearGradient id="paint0_linear_923_2675" x1="13.1" y1="52.8852" x2="65.5" y2="16.9815" gradientUnits="userSpaceOnUse">
<stop offset="0.0318924" stop-color="#58F584"/>
<stop offset="0.62757" stop-color="#5131D2"/>
<stop offset="1" stop-color="#5131D2"/>
</linearGradient>
</defs>
</svg>
