<svg width="62" height="63" viewBox="0 0 62 63" fill="none" xmlns="http://www.w3.org/2000/svg">
<path fill-rule="evenodd" clip-rule="evenodd" d="M18.0204 7.96875C13.8926 7.96875 10.16 9.0004 7.4507 11.5161C4.71574 14.0558 3.32373 17.8271 3.32373 22.6654V40.5569C3.32373 45.3953 4.71574 49.1666 7.4507 51.7062C10.16 54.222 13.8926 55.2536 18.0204 55.2536H43.5797C47.7076 55.2536 51.4403 54.222 54.1493 51.7062C56.8844 49.1666 58.2764 45.3953 58.2764 40.5569V22.6654C58.2764 17.8271 56.8844 14.0558 54.1493 11.5161C51.4403 9.0004 47.7076 7.96875 43.5797 7.96875H18.0204ZM49.2756 22.3134C50.1132 21.6661 50.2676 20.4622 49.6202 19.6245C48.973 18.7867 47.7692 18.6324 46.9313 19.2797L32.7533 30.2351C31.6029 31.1243 29.997 31.1243 28.8463 30.2351L14.6685 19.2797C13.8308 18.6324 12.6269 18.7867 11.9795 19.6245C11.3322 20.4622 11.4866 21.6661 12.3243 22.3134L26.5022 33.2689C29.0336 35.2248 32.5662 35.2248 35.0976 33.2689L49.2756 22.3134Z" fill="#ECE2FF"/>
</svg>
