<svg width="51" height="26" viewBox="0 0 51 26" fill="none" xmlns="http://www.w3.org/2000/svg">
<path d="M7.91204 12.8965H11.4508L6.55216 18.8421L12.378 25.5504H8.422L3.16791 19.418V25.5504H0V12.8965H3.16791V18.7332L7.91204 12.8965Z" fill="white"/>
<path d="M20.8146 25.5504H17.5361L23.0628 12.8965H26.4037L31.9772 25.5504H28.7143L24.7488 16.0056L23.4999 19.0369L20.8146 25.5504Z" fill="white"/>
<path d="M47.5593 12.8965H50.543V25.5504H47.8547L41.134 17.6903V25.5504H38.165V12.8965H40.809L47.5593 20.7877V12.8965Z" fill="white"/>
<path d="M6.45392 6.8132L6.44418 2.72528L4.43916 6.09295H3.72864L1.73334 2.81288V6.8132H0.253906V0H1.55815L4.10823 4.23392L6.61938 0H7.91389L7.93336 6.8132H6.45392Z" fill="white"/>
<path d="M14.5235 5.35323H11.3602L10.7567 6.8132H9.14102L12.1778 0H13.7351L16.7815 6.8132H15.1269L14.5235 5.35323ZM14.0271 4.15605L12.9467 1.54757L11.8663 4.15605H14.0271Z" fill="white"/>
<path d="M17.9751 0H21.0702C21.8099 0 22.462 0.142753 23.0266 0.428259C23.5976 0.707275 24.0388 1.10309 24.3503 1.6157C24.6682 2.12831 24.8272 2.72528 24.8272 3.4066C24.8272 4.08792 24.6682 4.68489 24.3503 5.1975C24.0388 5.71011 23.5976 6.10917 23.0266 6.39467C22.462 6.67369 21.8099 6.8132 21.0702 6.8132H17.9751V0ZM20.9923 5.51869C21.6737 5.51869 22.2155 5.33052 22.6178 4.95417C23.0266 4.57133 23.231 4.05548 23.231 3.4066C23.231 2.75772 23.0266 2.24511 22.6178 1.86876C22.2155 1.48593 21.6737 1.29451 20.9923 1.29451H19.5518V5.51869H20.9923Z" fill="white"/>
<path d="M31.7783 5.54789V6.8132H26.503V0H31.6518V1.26531H28.07V2.74475H31.2333V3.97112H28.07V5.54789H31.7783Z" fill="white"/>
<path d="M41.7655 3.27034C42.1549 3.39362 42.4598 3.60126 42.6804 3.89326C42.9011 4.17876 43.0114 4.5324 43.0114 4.95417C43.0114 5.55114 42.7778 6.01184 42.3106 6.33628C41.8499 6.65422 41.1751 6.8132 40.2861 6.8132H36.7627V0H40.0914C40.922 0 41.5579 0.158975 41.9991 0.476924C42.4468 0.794873 42.6707 1.22638 42.6707 1.77143C42.6707 2.10236 42.5896 2.3976 42.4274 2.65715C42.2716 2.9167 42.051 3.12109 41.7655 3.27034ZM38.3297 1.18744V2.79341H39.8968C40.2861 2.79341 40.5813 2.72528 40.7825 2.58902C40.9836 2.45275 41.0842 2.2516 41.0842 1.98556C41.0842 1.71952 40.9836 1.52161 40.7825 1.39184C40.5813 1.25558 40.2861 1.18744 39.8968 1.18744H38.3297ZM40.1693 5.62576C40.5846 5.62576 40.896 5.55762 41.1037 5.42136C41.3178 5.2851 41.4249 5.07421 41.4249 4.78871C41.4249 4.22418 41.0063 3.94192 40.1693 3.94192H38.3297V5.62576H40.1693Z" fill="white"/>
<path d="M47.8195 4.39938V6.8132H46.2428V4.37991L43.6051 0H45.2792L47.0993 3.02701L48.9194 0H50.467L47.8195 4.39938Z" fill="white"/>
</svg>
