<svg width="62" height="62" viewBox="0 0 62 62" fill="none" xmlns="http://www.w3.org/2000/svg">
<path d="M43.5664 15.2022V13.588H41.9521H36.7541C37.011 13.4397 37.2496 13.2574 37.4629 13.0441C38.1047 12.4023 38.4653 11.5318 38.4653 10.6242C38.4653 9.71652 38.1047 8.84605 37.4629 8.20425C36.9533 7.69465 36.2996 7.36236 35.5975 7.24709H41.9496C42.4806 7.24899 42.9893 7.46073 43.3647 7.8362C43.7401 8.21154 43.9518 8.72001 43.9538 9.25075V53.6717C43.9518 54.2025 43.7401 54.7109 43.3647 55.0863C42.9894 55.4616 42.4809 55.6733 41.9502 55.6754H32.6514C32.8649 55.5407 33.0634 55.3825 33.2429 55.2033C33.5608 54.8861 33.8129 54.5092 33.985 54.0944L32.4939 53.476L33.985 54.0944C34.157 53.6796 34.2456 53.2349 34.2456 52.7858C34.2456 52.1105 34.0454 51.4503 33.6703 50.8887L32.3279 51.7853L33.6703 50.8887C33.4029 50.4883 33.0551 50.1508 32.6514 49.8963H41.9521H43.5664V48.282V15.2022ZM24.9054 13.588H19.7009H18.0867V15.2022V48.282V49.8963H19.7009H29.0082C28.7952 50.0305 28.5966 50.1886 28.4166 50.3683C27.9386 50.8454 27.6128 51.4535 27.4803 52.1157C27.3478 52.7779 27.4146 53.4645 27.6722 54.0888C27.9298 54.713 28.3667 55.2469 28.9276 55.623C28.9542 55.6408 28.9811 55.6583 29.0082 55.6754H19.7029C19.1722 55.6733 18.6637 55.4616 18.2883 55.0863C17.9129 54.7108 17.7011 54.2021 17.6992 53.6712V9.25127C17.7011 8.72034 17.9129 8.21166 18.2883 7.8362C18.6638 7.46074 19.1725 7.24899 19.7034 7.24709H26.062C25.36 7.36236 24.7062 7.69465 24.1966 8.20425C23.5548 8.84605 23.1942 9.71651 23.1942 10.6242C23.1942 11.5318 23.5548 12.4023 24.1966 13.0441C24.4099 13.2574 24.6486 13.4397 24.9054 13.588Z" fill="#ECE2FF" stroke="#ECE2FF" stroke-width="3.22855"/>
</svg>
