<svg width="62" height="63" viewBox="0 0 62 63" fill="none" xmlns="http://www.w3.org/2000/svg">
<path d="M48.5632 11.1666H46.0073V8.61062C46.0073 7.07706 44.9849 6.05469 43.4514 6.05469C41.9178 6.05469 40.8954 7.07706 40.8954 8.61062V11.1666H20.4479V8.61062C20.4479 7.07706 19.4256 6.05469 17.892 6.05469C16.3584 6.05469 15.3361 7.07706 15.3361 8.61062V11.1666H12.7801C8.43502 11.1666 5.1123 14.4893 5.1123 18.8344V21.3903H56.231V18.8344C56.231 14.4893 52.9083 11.1666 48.5632 11.1666ZM5.1123 49.5056C5.1123 53.8507 8.43502 57.1734 12.7801 57.1734H48.5632C52.9083 57.1734 56.231 53.8507 56.231 49.5056V26.5022H5.1123V49.5056ZM43.4514 31.6141C44.9849 31.6141 46.0073 32.6364 46.0073 34.17C46.0073 35.7036 44.9849 36.7259 43.4514 36.7259C41.9178 36.7259 40.8954 35.7036 40.8954 34.17C40.8954 32.6364 41.9178 31.6141 43.4514 31.6141ZM43.4514 41.8378C44.9849 41.8378 46.0073 42.8602 46.0073 44.3937C46.0073 45.9273 44.9849 46.9497 43.4514 46.9497C41.9178 46.9497 40.8954 45.9273 40.8954 44.3937C40.8954 42.8602 41.9178 41.8378 43.4514 41.8378ZM30.6717 31.6141C32.2052 31.6141 33.2276 32.6364 33.2276 34.17C33.2276 35.7036 32.2052 36.7259 30.6717 36.7259C29.1381 36.7259 28.1157 35.7036 28.1157 34.17C28.1157 32.6364 29.1381 31.6141 30.6717 31.6141ZM30.6717 41.8378C32.2052 41.8378 33.2276 42.8602 33.2276 44.3937C33.2276 45.9273 32.2052 46.9497 30.6717 46.9497C29.1381 46.9497 28.1157 45.9273 28.1157 44.3937C28.1157 42.8602 29.1381 41.8378 30.6717 41.8378ZM17.892 31.6141C19.4256 31.6141 20.4479 32.6364 20.4479 34.17C20.4479 35.7036 19.4256 36.7259 17.892 36.7259C16.3584 36.7259 15.3361 35.7036 15.3361 34.17C15.3361 32.6364 16.3584 31.6141 17.892 31.6141ZM17.892 41.8378C19.4256 41.8378 20.4479 42.8602 20.4479 44.3937C20.4479 45.9273 19.4256 46.9497 17.892 46.9497C16.3584 46.9497 15.3361 45.9273 15.3361 44.3937C15.3361 42.8602 16.3584 41.8378 17.892 41.8378Z" fill="#ECE2FF"/>
</svg>
