<svg width="62" height="62" viewBox="0 0 62 62" fill="none" xmlns="http://www.w3.org/2000/svg">
<g clip-path="url(#clip0_2107_14935)">
<circle cx="30.6777" cy="30.9394" r="19.9472" fill="white"/>
<path fill-rule="evenodd" clip-rule="evenodd" d="M56.7422 30.9072C56.7422 45.2844 45.0871 56.9394 30.71 56.9394C16.3328 56.9394 4.67773 45.2844 4.67773 30.9072C4.67773 16.53 16.3328 4.875 30.71 4.875C45.0871 4.875 56.7422 16.53 56.7422 30.9072ZM31.6428 24.0931C29.1109 25.1463 24.0504 27.3261 16.4615 30.6324C15.2291 31.1224 14.5836 31.6019 14.5248 32.0706C14.4255 32.8629 15.4176 33.1748 16.7686 33.5996C16.9524 33.6575 17.1428 33.7174 17.338 33.7807C18.6671 34.2129 20.4551 34.7183 21.3846 34.7383C22.2277 34.7565 23.1687 34.409 24.2077 33.6955C31.2983 28.9093 34.9584 26.49 35.1882 26.4379C35.3504 26.4011 35.5749 26.3548 35.7272 26.4901C35.8793 26.6254 35.8646 26.8816 35.8483 26.9503C35.75 27.3692 31.8556 30.9899 29.8403 32.8635C29.212 33.4475 28.7664 33.8619 28.6753 33.9565C28.4712 34.1686 28.2631 34.3691 28.0633 34.5617C26.8286 35.752 25.9025 36.6447 28.1145 38.1025C29.1777 38.803 30.0283 39.3822 30.877 39.9601C31.8037 40.5914 32.7281 41.221 33.9241 42.005C34.2289 42.2048 34.5198 42.4122 34.8033 42.6141C35.8819 43.3832 36.851 44.0739 38.048 43.9637C38.7437 43.8997 39.4622 43.2456 39.8271 41.2949C40.6894 36.6846 42.3845 26.6954 42.7763 22.579C42.8108 22.2184 42.7677 21.7568 42.7329 21.5542C42.6982 21.3516 42.6258 21.0629 42.3624 20.8492C42.0505 20.5962 41.5691 20.5428 41.3537 20.5466C40.3744 20.5638 38.8724 21.0862 31.6428 24.0931Z" fill="#ECE2FF"/>
</g>
<defs>
<clipPath id="clip0_2107_14935">
<rect width="52.0644" height="52.0644" fill="white" transform="translate(4.67773 4.875)"/>
</clipPath>
</defs>
</svg>
