<svg width="40" height="40" viewBox="0 0 40 40" fill="none" xmlns="http://www.w3.org/2000/svg">
<path opacity="0.5" d="M21.5 5C21.5 4.17157 20.8284 3.5 20 3.5C19.1716 3.5 18.5 4.17157 18.5 5L21.5 5ZM18.5 23.3333C18.5 24.1618 19.1716 24.8333 20 24.8333C20.8284 24.8333 21.5 24.1618 21.5 23.3333L18.5 23.3333ZM27.7273 21.0607C28.3131 20.4749 28.3131 19.5251 27.7273 18.9393C27.1415 18.3536 26.1918 18.3536 25.606 18.9393L27.7273 21.0607ZM21.1785 25.4882L20.1179 24.4275L20.1179 24.4275L21.1785 25.4882ZM18.8215 25.4882L19.8821 24.4275L19.8821 24.4275L18.8215 25.4882ZM14.394 18.9393C13.8082 18.3536 12.8585 18.3536 12.2727 18.9393C11.6869 19.5251 11.6869 20.4749 12.2727 21.0607L14.394 18.9393ZM6.5 26.6667C6.5 25.8382 5.82843 25.1667 5 25.1667C4.17157 25.1667 3.5 25.8382 3.5 26.6667H6.5ZM36.5 26.6667C36.5 25.8382 35.8284 25.1667 35 25.1667C34.1716 25.1667 33.5 25.8382 33.5 26.6667H36.5ZM32.27 34.455L31.589 33.1185L31.589 33.1185L32.27 34.455ZM34.455 32.27L35.7915 32.9509L35.7915 32.9509L34.455 32.27ZM5.54497 32.27L4.20846 32.9509L5.54497 32.27ZM7.73005 34.455L7.04906 35.7915L7.04906 35.7915L7.73005 34.455ZM18.5 5L18.5 23.3333L21.5 23.3333L21.5 5L18.5 5ZM25.606 18.9393L20.1179 24.4275L22.2392 26.5488L27.7273 21.0607L25.606 18.9393ZM19.8821 24.4275L14.394 18.9393L12.2727 21.0607L17.7608 26.5488L19.8821 24.4275ZM20.1179 24.4275C20.0528 24.4926 19.9472 24.4926 19.8821 24.4275L17.7608 26.5488C18.9975 27.7855 21.0025 27.7855 22.2392 26.5488L20.1179 24.4275ZM3.5 26.6667V27H6.5V26.6667H3.5ZM13 36.5H27V33.5H13V36.5ZM36.5 27V26.6667H33.5V27H36.5ZM27 36.5C28.3754 36.5 29.4971 36.5012 30.4061 36.4269C31.3327 36.3512 32.1695 36.1897 32.9509 35.7915L31.589 33.1185C31.3009 33.2653 30.9028 33.3763 30.1618 33.4369C29.4033 33.4988 28.4249 33.5 27 33.5V36.5ZM33.5 27C33.5 28.4249 33.4988 29.4033 33.4369 30.1618C33.3763 30.9028 33.2653 31.3009 33.1185 31.589L35.7915 32.9509C36.1897 32.1695 36.3512 31.3327 36.4269 30.4061C36.5012 29.4971 36.5 28.3754 36.5 27H33.5ZM32.9509 35.7915C34.174 35.1684 35.1684 34.174 35.7915 32.9509L33.1185 31.589C32.783 32.2475 32.2475 32.783 31.589 33.1185L32.9509 35.7915ZM3.5 27C3.5 28.3754 3.49883 29.4971 3.5731 30.4061C3.6488 31.3327 3.81027 32.1695 4.20846 32.9509L6.88148 31.589C6.73469 31.3009 6.62368 30.9028 6.56314 30.1618C6.50117 29.4033 6.5 28.4249 6.5 27H3.5ZM13 33.5C11.5751 33.5 10.5967 33.4988 9.83816 33.4369C9.09716 33.3763 8.69911 33.2653 8.41103 33.1185L7.04906 35.7915C7.83054 36.1897 8.66734 36.3512 9.59386 36.4269C10.5029 36.5012 11.6246 36.5 13 36.5V33.5ZM4.20846 32.9509C4.83164 34.174 5.82601 35.1684 7.04906 35.7915L8.41103 33.1185C7.75246 32.783 7.21703 32.2475 6.88148 31.589L4.20846 32.9509Z" fill="black"/>
</svg>
