<svg width="48" height="48" viewBox="0 0 48 48" fill="none" xmlns="http://www.w3.org/2000/svg">
<path d="M42.9393 39.0607C43.5251 39.6464 44.4749 39.6464 45.0607 39.0607C45.6464 38.4749 45.6464 37.5251 45.0607 36.9393L42.9393 39.0607ZM4 12.5C3.17157 12.5 2.5 13.1716 2.5 14C2.5 14.8284 3.17157 15.5 4 15.5L4 12.5ZM16 15.5C16.8284 15.5 17.5 14.8284 17.5 14C17.5 13.1716 16.8284 12.5 16 12.5V15.5ZM4 22.5C3.17157 22.5 2.5 23.1716 2.5 24C2.5 24.8284 3.17157 25.5 4 25.5L4 22.5ZM12 25.5C12.8284 25.5 13.5 24.8284 13.5 24C13.5 23.1716 12.8284 22.5 12 22.5V25.5ZM4 32.5C3.17157 32.5 2.5 33.1716 2.5 34C2.5 34.8284 3.17157 35.5 4 35.5L4 32.5ZM16 35.5C16.8284 35.5 17.5 34.8284 17.5 34C17.5 33.1716 16.8284 32.5 16 32.5V35.5ZM38.2647 23.8824C38.2647 28.5118 34.5118 32.2647 29.8824 32.2647V35.2647C36.1687 35.2647 41.2647 30.1687 41.2647 23.8824H38.2647ZM29.8824 32.2647C25.2529 32.2647 21.5 28.5118 21.5 23.8824H18.5C18.5 30.1687 23.5961 35.2647 29.8824 35.2647V32.2647ZM21.5 23.8824C21.5 19.2529 25.2529 15.5 29.8824 15.5V12.5C23.5961 12.5 18.5 17.5961 18.5 23.8824H21.5ZM29.8824 15.5C34.5118 15.5 38.2647 19.2529 38.2647 23.8824H41.2647C41.2647 17.5961 36.1687 12.5 29.8824 12.5V15.5ZM35.8805 32.0018L42.9393 39.0607L45.0607 36.9393L38.0018 29.8805L35.8805 32.0018ZM4 15.5L16 15.5V12.5L4 12.5L4 15.5ZM4 25.5L12 25.5V22.5L4 22.5L4 25.5ZM4 35.5L16 35.5V32.5L4 32.5L4 35.5Z" fill="#AFACAF"/>
</svg>
