<svg width="48" height="48" viewBox="0 0 48 48" fill="none" xmlns="http://www.w3.org/2000/svg">
<path d="M26.3441 33.489H22.1469C19.1777 33.489 16.7441 30.9885 16.7441 27.9076C16.7441 26.9922 17.5032 26.2332 18.4186 26.2332C19.3339 26.2332 20.093 26.9922 20.093 27.9076C20.093 29.1355 21.0083 30.1402 22.1469 30.1402H26.3441C27.2148 30.1402 27.9069 29.3588 27.9069 28.3988C27.9069 27.1932 27.572 27.0146 26.813 26.7467L20.093 24.4025C18.6641 23.889 16.7441 22.862 16.7441 19.5802C16.7441 16.7895 18.9544 14.49 21.6558 14.49H25.853C28.8223 14.49 31.2558 16.9905 31.2558 20.0713C31.2558 20.9867 30.4967 21.7457 29.5813 21.7457C28.666 21.7457 27.9069 20.9867 27.9069 20.0713C27.9069 18.8435 26.9916 17.8388 25.853 17.8388H21.6558C20.7851 17.8388 20.093 18.6202 20.093 19.5802C20.093 20.7857 20.4279 20.9643 21.1869 21.2322L27.9069 23.5764C29.3358 24.0899 31.2558 25.1169 31.2558 28.3988C31.2558 31.2118 29.0455 33.489 26.3441 33.489Z" fill="#AFACAF"/>
<path d="M24 35.7212C23.0846 35.7212 22.3256 34.9621 22.3256 34.0467V13.9537C22.3256 13.0384 23.0846 12.2793 24 12.2793C24.9153 12.2793 25.6744 13.0384 25.6744 13.9537V34.0467C25.6744 34.9621 24.9153 35.7212 24 35.7212Z" fill="#AFACAF"/>
<path d="M24 48C10.7609 48 0 37.2391 0 24C0 10.7609 10.7609 0 24 0C24.9153 0 25.6744 0.75907 25.6744 1.67442C25.6744 2.58977 24.9153 3.34884 24 3.34884C12.614 3.34884 3.34884 12.614 3.34884 24C3.34884 35.386 12.614 44.6512 24 44.6512C35.386 44.6512 44.6512 35.386 44.6512 24C44.6512 23.0847 45.4102 22.3256 46.3256 22.3256C47.2409 22.3256 48 23.0847 48 24C48 37.2391 37.2391 48 24 48Z" fill="#AFACAF"/>
<path d="M46.3255 12.2791C45.4102 12.2791 44.6511 11.52 44.6511 10.6047V3.34884H37.3953C36.48 3.34884 35.7209 2.58977 35.7209 1.67442C35.7209 0.75907 36.48 0 37.3953 0H46.3255C47.2409 0 48 0.75907 48 1.67442V10.6047C48 11.52 47.2409 12.2791 46.3255 12.2791Z" fill="#AFACAF"/>
<path d="M35.1615 14.5104C34.7373 14.5104 34.3131 14.3542 33.9783 14.0193C33.3308 13.3718 33.3308 12.3002 33.9783 11.6528L45.141 0.489976C45.7885 -0.157466 46.8601 -0.157466 47.5076 0.489976C48.155 1.13742 48.155 2.20905 47.5076 2.85649L36.3448 14.0193C36.0099 14.3542 35.5857 14.5104 35.1615 14.5104Z" fill="#AFACAF"/>
</svg>
