<svg width="38" height="48" viewBox="0 0 38 48" fill="none" xmlns="http://www.w3.org/2000/svg">
<path d="M19.0009 33.4884C13.1516 33.4884 8.39624 28.733 8.39624 22.8837V10.6047C8.39624 4.75535 13.1516 0 19.0009 0C24.8502 0 29.6055 4.75535 29.6055 10.6047V22.8837C29.6055 28.733 24.8502 33.4884 19.0009 33.4884ZM19.0009 3.34884C15.0046 3.34884 11.7451 6.60837 11.7451 10.6047V22.8837C11.7451 26.88 15.0046 30.1395 19.0009 30.1395C22.9972 30.1395 26.2567 26.88 26.2567 22.8837V10.6047C26.2567 6.60837 22.9972 3.34884 19.0009 3.34884Z" fill="#AFACAF"/>
<path d="M19 41.3021C8.66327 41.3021 0.246521 32.8854 0.246521 22.5486V18.7533C0.246521 17.8379 1.00559 17.0789 1.92094 17.0789C2.83629 17.0789 3.59536 17.8379 3.59536 18.7533V22.5486C3.59536 31.0323 10.5163 37.9533 19 37.9533C27.4837 37.9533 34.4046 31.0323 34.4046 22.5486V18.7533C34.4046 17.8379 35.1637 17.0789 36.0791 17.0789C36.9944 17.0789 37.7535 17.8379 37.7535 18.7533V22.5486C37.7535 32.8854 29.3367 41.3021 19 41.3021Z" fill="#AFACAF"/>
<path d="M22.1039 13.2387C21.9253 13.2387 21.7244 13.2164 21.5234 13.1494C19.8937 12.5466 18.1076 12.5466 16.4779 13.1494C15.6072 13.462 14.6472 13.0155 14.3346 12.1448C14.022 11.2741 14.4685 10.3141 15.3393 10.0015C17.7058 9.15314 20.3179 9.15314 22.6844 10.0015C23.5551 10.3141 24.0016 11.2741 23.689 12.1448C23.4211 12.8145 22.7737 13.2387 22.1039 13.2387Z" fill="#AFACAF"/>
<path d="M20.7871 17.9717C20.6308 17.9717 20.4968 17.9494 20.3406 17.9047C19.4475 17.6591 18.5322 17.6591 17.6392 17.9047C16.7462 18.1503 15.8308 17.6145 15.5852 16.7214C15.3396 15.8508 15.8755 14.9354 16.7685 14.6898C18.2196 14.288 19.7824 14.288 21.2336 14.6898C22.1266 14.9354 22.6624 15.8508 22.4168 16.7438C22.2159 17.4805 21.5238 17.9717 20.7871 17.9717Z" fill="#AFACAF"/>
<path d="M19.0009 48.0001C18.0855 48.0001 17.3265 47.2411 17.3265 46.3257V39.628C17.3265 38.7127 18.0855 37.9536 19.0009 37.9536C19.9162 37.9536 20.6753 38.7127 20.6753 39.628V46.3257C20.6753 47.2411 19.9162 48.0001 19.0009 48.0001Z" fill="#AFACAF"/>
</svg>
