<svg width="48" height="48" viewBox="0 0 48 48" fill="none" xmlns="http://www.w3.org/2000/svg">
<path d="M36.5451 18.687H24.8242C23.9089 18.687 23.1498 17.9279 23.1498 17.0126C23.1498 16.0972 23.9089 15.3381 24.8242 15.3381H36.5451C37.4605 15.3381 38.2196 16.0972 38.2196 17.0126C38.2196 17.9279 37.4828 18.687 36.5451 18.687Z" fill="#AFACAF"/>
<path d="M13.1063 20.3818C12.6821 20.3818 12.2579 20.2256 11.9231 19.8907L10.2486 18.2163C9.6012 17.5689 9.6012 16.4972 10.2486 15.8498C10.8961 15.2024 11.9677 15.2024 12.6152 15.8498L13.1063 16.341L16.9463 12.501C17.5938 11.8535 18.6654 11.8535 19.3128 12.501C19.9602 13.1484 19.9602 14.22 19.3128 14.8675L14.2896 19.8907C13.977 20.2032 13.5528 20.3818 13.1063 20.3818Z" fill="#AFACAF"/>
<path d="M36.5451 34.3149H24.8242C23.9089 34.3149 23.1498 33.5558 23.1498 32.6405C23.1498 31.7251 23.9089 30.9661 24.8242 30.9661H36.5451C37.4605 30.9661 38.2196 31.7251 38.2196 32.6405C38.2196 33.5558 37.4828 34.3149 36.5451 34.3149Z" fill="#AFACAF"/>
<path d="M13.1063 36.0098C12.6821 36.0098 12.2579 35.8535 11.9231 35.5187L10.2486 33.8442C9.6012 33.1968 9.6012 32.1252 10.2486 31.4777C10.8961 30.8303 11.9677 30.8303 12.6152 31.4777L13.1063 31.9689L16.9463 28.1289C17.5938 27.4815 18.6654 27.4815 19.3128 28.1289C19.9602 28.7763 19.9602 29.848 19.3128 30.4954L14.2896 35.5187C13.977 35.8312 13.5528 36.0098 13.1063 36.0098Z" fill="#AFACAF"/>
<path d="M30.6977 48H17.3023C5.17954 48 0 42.8205 0 30.6977V17.3023C0 5.17954 5.17954 0 17.3023 0H30.6977C42.8205 0 48 5.17954 48 17.3023V30.6977C48 42.8205 42.8205 48 30.6977 48ZM17.3023 3.34884C7.01023 3.34884 3.34884 7.01023 3.34884 17.3023V30.6977C3.34884 40.9898 7.01023 44.6512 17.3023 44.6512H30.6977C40.9898 44.6512 44.6512 40.9898 44.6512 30.6977V17.3023C44.6512 7.01023 40.9898 3.34884 30.6977 3.34884H17.3023Z" fill="#AFACAF"/>
</svg>
