<svg width="200" height="200" viewBox="0 0 200 200" fill="none" xmlns="http://www.w3.org/2000/svg">
<rect width="200" height="200" rx="100" fill="#ECE2FF"/>
<path d="M147.879 132.121C149.05 133.293 150.95 133.293 152.121 132.121C153.293 130.95 153.293 129.05 152.121 127.879L147.879 132.121ZM50 67C48.3431 67 47 68.3431 47 70C47 71.6569 48.3431 73 50 73L50 67ZM80 73C81.6569 73 83 71.6569 83 70C83 68.3431 81.6569 67 80 67V73ZM50 92C48.3431 92 47 93.3431 47 95C47 96.6569 48.3431 98 50 98L50 92ZM70 98C71.6569 98 73 96.6569 73 95C73 93.3432 71.6569 92 70 92V98ZM50 117C48.3431 117 47 118.343 47 120C47 121.657 48.3431 123 50 123L50 117ZM80 123C81.6569 123 83 121.657 83 120C83 118.343 81.6569 117 80 117V123ZM136.412 94.7059C136.412 106.694 126.694 116.412 114.706 116.412V122.412C130.007 122.412 142.412 110.007 142.412 94.7059H136.412ZM114.706 116.412C102.718 116.412 93 106.694 93 94.7059H87C87 110.007 99.4043 122.412 114.706 122.412V116.412ZM93 94.7059C93 82.7181 102.718 73 114.706 73V67C99.4043 67 87 79.4043 87 94.7059H93ZM114.706 73C126.694 73 136.412 82.7181 136.412 94.7059H142.412C142.412 79.4043 130.007 67 114.706 67V73ZM130.232 114.474L147.879 132.121L152.121 127.879L134.474 110.232L130.232 114.474ZM50 73L80 73V67L50 67L50 73ZM50 98L70 98V92L50 92L50 98ZM50 123L80 123V117L50 117L50 123Z" fill="white"/>
</svg>
