<svg width="201" height="200" viewBox="0 0 201 200" fill="none" xmlns="http://www.w3.org/2000/svg">
<rect x="0.666992" width="200" height="200" rx="100" fill="#ECE2FF"/>
<path d="M101.001 108.809C106.174 108.809 110.373 104.61 110.373 99.4363C110.373 94.2624 106.174 90.064 101.001 90.064C100.358 90.064 99.7153 90.1278 99.1154 90.2563C99.7367 91.1132 100.101 92.1632 100.101 93.2986C100.101 96.1909 97.755 98.5363 94.8629 98.5363C93.7274 98.5363 92.6777 98.1724 91.8207 97.5509C91.6923 98.1509 91.6279 98.7932 91.6279 99.4363C91.6279 104.61 95.8269 108.809 101.001 108.809Z" fill="white"/>
<path d="M118.074 115.652C122.092 111.424 124.565 105.715 124.565 99.4346C124.565 93.16 122.096 87.4554 118.084 83.2277C131.038 87.7554 141.11 96.0469 144.872 99.4362C141.112 102.829 131.045 111.128 118.074 115.652ZM83.9265 83.2177C79.9083 87.4454 77.4344 93.1546 77.4344 99.4346C77.4344 105.709 79.9042 111.414 83.9163 115.642C70.9622 111.114 60.8897 102.822 57.1288 99.4331C60.8875 96.04 70.9554 87.7408 83.9265 83.2177ZM120.281 99.4346C120.281 110.066 111.632 118.715 101 118.715C90.3684 118.715 81.7191 110.066 81.7191 99.4346C81.7191 88.8031 90.3684 80.1538 101 80.1538C111.632 80.1538 120.281 88.8031 120.281 99.4346ZM149.525 97.9338C148.641 97.0323 127.549 75.8692 101 75.8692C74.4505 75.8692 53.3594 97.0323 52.4744 97.9338L51 99.4346L52.4744 100.935C53.3594 101.837 74.4505 123 101 123C127.549 123 148.641 101.837 149.525 100.935L151 99.4346L149.525 97.9338Z" fill="white"/>
</svg>
