<svg width="200" height="200" viewBox="0 0 200 200" fill="none" xmlns="http://www.w3.org/2000/svg">
<rect width="200" height="200" rx="100" fill="#ECE2FF"/>
<path d="M144.007 100.977L129.469 79.0948C128.852 78.1658 129.666 76.9546 130.759 77.1746L148.969 80.8464C149.648 80.9835 150.086 81.6438 149.949 82.3213L146.277 100.531C146.057 101.624 144.625 101.906 144.007 100.977Z" fill="white"/>
<path d="M135.082 85.1278L97.8529 110.109V95.6136C97.8529 93.0915 96.6516 90.688 94.5594 89.2806C92.0076 87.5637 88.7267 87.5795 86.2135 89.2565L50.7293 112.853C49.9751 113.354 49.7729 114.373 50.2782 115.125L54.2479 121.03C54.7497 121.776 55.7599 121.977 56.5084 121.478L87.4754 100.89L87.4753 115.381C87.4753 117.901 88.6749 120.303 90.7652 121.713C93.3171 123.432 96.601 123.417 99.1119 121.74L140.853 93.7512L137.98 89.4381L135.082 85.1278Z" fill="white"/>
</svg>
