<svg width="201" height="200" viewBox="0 0 201 200" fill="none" xmlns="http://www.w3.org/2000/svg">
<rect x="0.333008" width="200" height="200" rx="100" fill="#ECE2FF"/>
<mask id="path-2-outside-1_2165_10785" maskUnits="userSpaceOnUse" x="95.3174" y="68.9609" width="58" height="54" fill="black">
<rect fill="white" x="95.3174" y="68.9609" width="58" height="54"/>
<path d="M123.551 117.672C122.235 116.665 116.952 112.527 111.692 107.164C108.157 103.56 105.329 100.119 103.286 96.938C100.761 93.0054 99.4438 89.4753 99.3705 86.4458C99.2289 80.5907 102.731 75.6615 108.293 73.8881C109.657 73.4532 111.049 73.2328 112.429 73.2328C116.599 73.2328 120.467 75.4487 122.766 78.7015L123.723 79.4758L124.021 79.1739C124.076 79.1184 124.167 79.0273 124.29 78.9091L124.328 78.8732L124.357 78.8308C127.788 73.9117 133.864 71.9762 139.838 73.8998C144.357 75.3551 149.124 79.3996 148.947 86.3868C148.871 89.4122 147.497 92.9386 144.864 96.8681C142.733 100.049 139.782 103.489 136.093 107.093C130.575 112.485 125.043 116.63 123.687 117.624L123.652 117.601L123.551 117.672ZM147.212 77.7345C145.465 75.5013 143.028 73.833 140.162 72.9101C137.238 71.9686 134.05 71.9012 131.187 72.7204C128.114 73.5993 125.501 75.4455 123.618 78.0644C123.6 78.0475 123.581 78.03 123.561 78.0122C121.767 75.4595 119.29 73.6516 116.396 72.7836C113.716 71.9797 110.724 72.0201 107.973 72.8975C105.168 73.7917 102.777 75.4547 101.059 77.7068C99.1889 80.1571 98.2427 83.1877 98.322 86.4707C98.3999 89.6926 99.7726 93.4023 102.402 97.4971C104.483 100.738 107.356 104.234 110.941 107.89C117.017 114.086 123.162 118.688 123.223 118.734L123.527 118.961L123.666 118.864L123.71 118.893L124.007 118.682C124.071 118.636 130.503 114.014 136.824 107.839C140.565 104.184 143.563 100.688 145.736 97.4472C148.481 93.3504 149.914 89.638 149.995 86.4131C150.078 83.1697 149.115 80.1687 147.212 77.7345Z"/>
</mask>
<path d="M123.551 117.672C122.235 116.665 116.952 112.527 111.692 107.164C108.157 103.56 105.329 100.119 103.286 96.938C100.761 93.0054 99.4438 89.4753 99.3705 86.4458C99.2289 80.5907 102.731 75.6615 108.293 73.8881C109.657 73.4532 111.049 73.2328 112.429 73.2328C116.599 73.2328 120.467 75.4487 122.766 78.7015L123.723 79.4758L124.021 79.1739C124.076 79.1184 124.167 79.0273 124.29 78.9091L124.328 78.8732L124.357 78.8308C127.788 73.9117 133.864 71.9762 139.838 73.8998C144.357 75.3551 149.124 79.3996 148.947 86.3868C148.871 89.4122 147.497 92.9386 144.864 96.8681C142.733 100.049 139.782 103.489 136.093 107.093C130.575 112.485 125.043 116.63 123.687 117.624L123.652 117.601L123.551 117.672ZM147.212 77.7345C145.465 75.5013 143.028 73.833 140.162 72.9101C137.238 71.9686 134.05 71.9012 131.187 72.7204C128.114 73.5993 125.501 75.4455 123.618 78.0644C123.6 78.0475 123.581 78.03 123.561 78.0122C121.767 75.4595 119.29 73.6516 116.396 72.7836C113.716 71.9797 110.724 72.0201 107.973 72.8975C105.168 73.7917 102.777 75.4547 101.059 77.7068C99.1889 80.1571 98.2427 83.1877 98.322 86.4707C98.3999 89.6926 99.7726 93.4023 102.402 97.4971C104.483 100.738 107.356 104.234 110.941 107.89C117.017 114.086 123.162 118.688 123.223 118.734L123.527 118.961L123.666 118.864L123.71 118.893L124.007 118.682C124.071 118.636 130.503 114.014 136.824 107.839C140.565 104.184 143.563 100.688 145.736 97.4472C148.481 93.3504 149.914 89.638 149.995 86.4131C150.078 83.1697 149.115 80.1687 147.212 77.7345Z" fill="white"/>
<path d="M123.551 117.672L125.273 120.129L123.472 121.392L121.726 120.054L123.551 117.672ZM111.692 107.164L113.834 105.064L113.834 105.064L111.692 107.164ZM103.286 96.938L100.762 98.559L100.762 98.5589L103.286 96.938ZM99.3705 86.4458L102.37 86.3732L102.37 86.3733L99.3705 86.4458ZM108.293 73.8881L107.382 71.0298L107.382 71.0298L108.293 73.8881ZM122.766 78.7015L120.879 81.0339L120.556 80.7725L120.316 80.433L122.766 78.7015ZM123.723 79.4758L125.859 81.583L123.949 83.5175L121.836 81.8081L123.723 79.4758ZM124.021 79.1739L126.158 81.2796L126.156 81.2812L124.021 79.1739ZM124.29 78.9091L122.212 76.7454L122.219 76.7387L124.29 78.9091ZM124.328 78.8732L126.791 80.5863L126.618 80.8347L126.399 81.0436L124.328 78.8732ZM124.357 78.8308L121.895 77.1177L121.897 77.1148L124.357 78.8308ZM139.838 73.8998L138.918 76.7554L138.918 76.7554L139.838 73.8998ZM148.947 86.3868L145.948 86.3113L145.948 86.311L148.947 86.3868ZM144.864 96.8681L147.357 98.5379L147.357 98.5379L144.864 96.8681ZM136.093 107.093L133.997 104.947L133.997 104.947L136.093 107.093ZM123.687 117.624L125.461 120.044L123.777 121.278L122.035 120.129L123.687 117.624ZM123.652 117.601L121.929 115.145L123.6 113.973L125.304 115.097L123.652 117.601ZM147.212 77.7345L149.575 75.8861L149.576 75.8873L147.212 77.7345ZM140.162 72.9101L139.242 75.7657L139.242 75.7657L140.162 72.9101ZM131.187 72.7204L130.362 69.8361L130.362 69.8361L131.187 72.7204ZM123.618 78.0644L126.054 79.8154L124.092 82.5456L121.602 80.2859L123.618 78.0644ZM123.561 78.0122L121.552 80.2398L121.301 80.0135L121.106 79.737L123.561 78.0122ZM116.396 72.7836L117.258 69.91L117.258 69.91L116.396 72.7836ZM107.973 72.8975L108.884 75.7557L108.884 75.7557L107.973 72.8975ZM101.059 77.7068L98.6737 75.8869L98.6738 75.8868L101.059 77.7068ZM98.322 86.4707L95.3229 86.5433L95.3229 86.5432L98.322 86.4707ZM102.402 97.4971L99.8775 99.1182L99.8774 99.118L102.402 97.4971ZM110.941 107.89L113.083 105.789L113.083 105.789L110.941 107.89ZM123.223 118.734L125.016 116.329L125.017 116.329L123.223 118.734ZM123.527 118.961L125.24 121.424L123.466 122.658L121.734 121.366L123.527 118.961ZM123.666 118.864L121.954 116.401L123.632 115.234L125.332 116.369L123.666 118.864ZM123.71 118.893L125.454 121.335L123.768 122.539L122.045 121.389L123.71 118.893ZM124.007 118.682L125.752 121.122L125.75 121.123L124.007 118.682ZM136.824 107.839L138.92 109.985L138.92 109.985L136.824 107.839ZM145.736 97.4472L148.228 99.1172L148.228 99.1176L145.736 97.4472ZM149.995 86.4131L146.996 86.3375L146.996 86.337L149.995 86.4131ZM121.726 120.054C120.361 119.008 114.952 114.772 109.551 109.265L113.834 105.064C118.952 110.282 124.11 114.322 125.375 115.291L121.726 120.054ZM109.551 109.265C105.916 105.559 102.945 101.959 100.762 98.559L105.811 95.317C107.713 98.2793 110.398 101.56 113.834 105.064L109.551 109.265ZM100.762 98.5589C98.0879 94.3943 96.4633 90.3192 96.3714 86.5182L102.37 86.3733C102.424 88.6315 103.435 91.6165 105.811 95.3171L100.762 98.5589ZM96.3714 86.5183C96.1976 79.3371 100.545 73.2099 107.382 71.0298L109.205 76.7463C104.918 78.1131 102.26 81.8444 102.37 86.3732L96.3714 86.5183ZM107.382 71.0298C109.03 70.5045 110.728 70.2328 112.429 70.2328V76.2328C111.369 76.2328 110.285 76.4019 109.205 76.7463L107.382 71.0298ZM112.429 70.2328C117.654 70.2328 122.403 72.9895 125.216 76.97L120.316 80.433C118.532 77.9079 115.545 76.2328 112.429 76.2328V70.2328ZM124.653 76.3692L125.61 77.1434L121.836 81.8081L120.879 81.0339L124.653 76.3692ZM121.588 77.3685L121.886 77.0667L126.156 81.2812L125.859 81.583L121.588 77.3685ZM121.884 77.0683C121.959 76.9928 122.07 76.8823 122.212 76.7454L126.368 81.0729C126.265 81.1722 126.193 81.2439 126.158 81.2796L121.884 77.0683ZM122.219 76.7387L122.257 76.7027L126.399 81.0436L126.361 81.0796L122.219 76.7387ZM121.865 77.1601L121.895 77.1177L126.82 80.5439L126.791 80.5863L121.865 77.1601ZM121.897 77.1148C126.128 71.0468 133.61 68.7424 140.757 71.0442L138.918 76.7554C134.119 75.21 129.447 76.7767 126.818 80.5469L121.897 77.1148ZM140.757 71.0441C146.136 72.7762 152.166 77.7618 151.946 86.4627L145.948 86.311C146.081 81.0374 142.578 77.9339 138.918 76.7554L140.757 71.0441ZM151.946 86.4624C151.85 90.2926 150.142 94.3805 147.357 98.5379L142.372 95.1984C144.852 91.4967 145.892 88.5318 145.948 86.3113L151.946 86.4624ZM147.357 98.5379C145.079 101.938 141.979 105.536 138.19 109.239L133.997 104.947C137.585 101.441 140.388 98.1593 142.372 95.1984L147.357 98.5379ZM138.19 109.239C132.527 114.772 126.867 119.013 125.461 120.044L121.913 115.205C123.219 114.247 128.624 110.197 133.997 104.947L138.19 109.239ZM122.035 120.129L122 120.105L125.304 115.097L125.339 115.12L122.035 120.129ZM125.375 120.057L125.273 120.129L121.828 115.216L121.929 115.145L125.375 120.057ZM144.849 79.5829C143.495 77.8519 141.574 76.5167 139.242 75.7657L141.081 70.0545C144.482 71.1494 147.436 73.1508 149.575 75.8861L144.849 79.5829ZM139.242 75.7657C136.866 75.0004 134.285 74.9543 132.012 75.6047L130.362 69.8361C133.816 68.848 137.61 68.9368 141.081 70.0545L139.242 75.7657ZM132.012 75.6047C129.596 76.2958 127.547 77.7386 126.054 79.8154L121.182 76.3134C123.455 73.1523 126.633 70.9028 130.362 69.8361L132.012 75.6047ZM121.602 80.2859C121.57 80.2562 121.568 80.255 121.552 80.2398L125.57 75.7846C125.593 75.805 125.63 75.8387 125.635 75.843L121.602 80.2859ZM121.106 79.737C119.686 77.7154 117.761 76.325 115.534 75.6571L117.258 69.91C120.82 70.9783 123.849 73.2035 126.016 76.2874L121.106 79.737ZM115.534 75.6571C113.453 75.0327 111.079 75.0557 108.884 75.7557L107.061 70.0393C110.369 68.9845 113.979 68.9266 117.258 69.91L115.534 75.6571ZM108.884 75.7557C106.641 76.4708 104.774 77.7836 103.444 79.5268L98.6738 75.8868C100.781 73.1258 103.695 71.1125 107.061 70.0393L108.884 75.7557ZM103.444 79.5267C102.016 81.3974 101.257 83.7494 101.321 86.3983L95.3229 86.5432C95.2282 82.6259 96.3617 78.9168 98.6737 75.8869L103.444 79.5267ZM101.321 86.3982C101.381 88.8579 102.454 92.0253 104.926 95.8762L99.8774 99.118C97.0917 94.7794 95.4192 90.5272 95.3229 86.5433L101.321 86.3982ZM104.926 95.8761C106.867 98.8986 109.597 102.236 113.083 105.789L108.799 109.99C105.114 106.233 102.099 102.577 99.8775 99.1182L104.926 95.8761ZM113.083 105.789C116.033 108.797 119.011 111.43 121.265 113.319C123.517 115.207 125.023 116.334 125.016 116.329L121.43 121.139C121.318 121.056 115.033 116.347 108.799 109.99L113.083 105.789ZM125.017 116.329L125.321 116.556L121.734 121.366L121.43 121.139L125.017 116.329ZM121.814 116.498L121.954 116.401L125.379 121.327L125.24 121.424L121.814 116.498ZM125.332 116.369L125.376 116.398L122.045 121.389L122.001 121.359L125.332 116.369ZM121.967 116.452L122.263 116.24L125.75 121.123L125.454 121.335L121.967 116.452ZM122.261 116.242C122.257 116.245 123.835 115.112 126.19 113.22C128.548 111.327 131.657 108.693 134.727 105.693L138.92 109.985C132.439 116.317 125.865 121.041 125.752 121.122L122.261 116.242ZM134.727 105.694C138.367 102.137 141.218 98.7991 143.244 95.7767L148.228 99.1176C145.909 102.577 142.763 106.231 138.92 109.985L134.727 105.694ZM143.243 95.7771C145.827 91.9215 146.935 88.7677 146.996 86.3375L152.994 86.4886C152.893 90.5083 151.135 94.7793 148.228 99.1172L143.243 95.7771ZM146.996 86.337C147.062 83.7518 146.3 81.4393 144.849 79.5818L149.576 75.8873C151.929 78.8982 153.093 82.5876 152.994 86.4891L146.996 86.337Z" fill="white" mask="url(#path-2-outside-1_2165_10785)"/>
<path d="M113.578 110.65L112.649 111.67C111.023 113.457 109.265 115.28 107.379 117.132L108.019 117.784L107.379 117.132C99.5849 124.788 91.7418 130.843 88.922 132.955L88.8861 132.931L88.7789 133.006C86.0128 130.841 78.5811 124.837 71.1905 117.261L71.1905 117.261C65.7452 111.679 61.4188 106.38 58.3104 101.513C54.4372 95.449 52.5281 90.1594 52.4221 85.7567C52.2146 77.1319 57.3217 69.9183 65.4536 67.3117C67.4896 66.659 69.5274 66.3454 71.5121 66.3454C77.4797 66.3454 83.0272 69.1845 86.5862 74.368L87.4221 75.5854L88.3546 76.9435L89.6196 75.8882L89.8592 75.6883L89.9164 75.6406L89.9686 75.5874L90.2917 75.2583C90.3696 75.1791 90.5038 75.0444 90.6877 74.867L90.6886 74.8662L90.7211 74.8348L90.8267 74.7327L90.9105 74.6122L90.9362 74.5752L90.9371 74.5739C95.9455 67.3538 104.815 64.4746 113.631 67.3288C117.624 68.6216 121.7 71.2786 124.267 75.3552L125.164 76.7792L126.476 75.7256L127.17 75.1677L128.216 74.3279L127.498 73.1951C127.133 72.6186 126.739 72.0561 126.315 71.5106L126.315 71.5105C123.457 67.836 119.48 65.1108 114.839 63.6081L114.838 63.6081C110.1 62.0742 104.929 61.9595 100.262 63.3017C95.7358 64.6033 91.8209 67.2005 88.8484 70.8449C86.015 67.2672 82.29 64.7008 77.9904 63.4042C73.6043 62.0816 68.7325 62.1528 64.2571 63.5876C64.2571 63.5876 64.2571 63.5876 64.257 63.5876L64.5353 64.4557C60.0435 65.896 56.3425 68.5659 53.7266 72.0441C50.8614 75.8537 49.298 80.633 49.423 85.8287C49.423 85.8288 49.423 85.8288 49.423 85.8289L113.578 110.65ZM113.578 110.65L114.673 111.491L115.4 112.05L116.691 113.043L115.595 114.248C113.9 116.112 112.073 118.008 110.116 119.929M113.578 110.65L110.116 119.929M110.116 119.929C100.208 129.661 90.2437 136.845 90.1201 136.934L90.1198 136.934L89.8611 137.12L89.0167 137.726L88.9395 137.674L88.6856 137.851L87.8171 137.2L87.5519 137.001C87.5517 137.001 87.5515 137.001 87.5513 137.001C87.4031 136.89 77.8675 129.71 68.3859 119.99L69.0399 119.352L68.3859 119.99C62.7981 114.262 58.2905 108.754 55.0092 103.617L55.78 103.124L110.116 119.929Z" fill="white" stroke="white" stroke-width="3"/>
</svg>
