<svg width="48" height="48" viewBox="0 0 48 48" fill="none" xmlns="http://www.w3.org/2000/svg">
<path d="M24 48C10.7609 48 0 37.2391 0 24C0 10.7609 10.7609 0 24 0C37.2391 0 48 10.7609 48 24C48 37.2391 37.2391 48 24 48ZM24 3.34884C12.614 3.34884 3.34884 12.614 3.34884 24C3.34884 35.386 12.614 44.6512 24 44.6512C35.386 44.6512 44.6512 35.386 44.6512 24C44.6512 12.614 35.386 3.34884 24 3.34884Z" fill="#AFACAF"/>
<path d="M20.8286 31.994C20.3821 31.994 19.9579 31.8154 19.6454 31.5029L13.3271 25.1847C12.6797 24.5373 12.6797 23.4657 13.3271 22.8182C13.9746 22.1708 15.0462 22.1708 15.6936 22.8182L20.8286 27.9531L32.304 16.4778C32.9514 15.8303 34.0231 15.8303 34.6705 16.4778C35.3179 17.1252 35.3179 18.1968 34.6705 18.8443L22.0119 31.5029C21.6993 31.8154 21.2752 31.994 20.8286 31.994Z" fill="#AFACAF"/>
</svg>
