<svg width="48" height="48" viewBox="0 0 48 48" fill="none" xmlns="http://www.w3.org/2000/svg">
<path d="M37.1116 46.0344C36.4192 46.0344 35.7268 45.8557 35.1013 45.476L26.1446 40.1599C25.2065 40.1375 24.2684 40.0707 23.375 39.9367C22.7719 39.8474 22.2582 39.4451 22.0348 38.8644C21.8115 38.2836 21.9231 37.6582 22.3252 37.1892C23.7994 35.4693 24.5588 33.4144 24.5588 31.2255C24.5588 25.8202 19.8012 21.42 13.9492 21.42C11.7602 21.42 9.66065 22.0233 7.89611 23.1848C7.40472 23.4975 6.80165 23.5421 6.26558 23.2964C5.75186 23.0508 5.37217 22.5591 5.30516 21.9784C5.23815 21.353 5.19348 20.7278 5.19348 20.0801C5.19348 9.00136 14.7979 0 26.5914 0C38.3847 0 47.9892 9.00136 47.9892 20.0801C47.9892 26.1554 45.1749 31.7392 40.2163 35.5587L40.9757 41.6343C41.1544 43.1531 40.4843 44.5826 39.2112 45.409C38.5858 45.8111 37.8487 46.0344 37.1116 46.0344ZM26.569 36.7871C26.8817 36.7648 27.1944 36.8544 27.4625 37.0331L36.8212 42.5947C37.0669 42.751 37.2679 42.684 37.4019 42.5947C37.5136 42.5277 37.6923 42.349 37.6476 42.0363L36.7765 34.9779C36.7095 34.3525 36.9776 33.7497 37.469 33.3923C42.0255 30.1983 44.6388 25.3288 44.6388 20.0352C44.6388 10.8105 36.5532 3.30567 26.5914 3.30567C17.0092 3.30567 9.14692 10.2746 8.56618 19.0303C10.2414 18.3825 12.0506 18.0251 13.9268 18.0251C21.6328 18.0251 27.8868 23.9216 27.8868 31.1808C27.9092 33.1464 27.4401 35.0449 26.569 36.7871Z" fill="#AFACAF"/>
<path d="M7.4264 48C6.84566 48 6.28726 47.8437 5.77354 47.5086C4.76842 46.8609 4.23238 45.7441 4.36639 44.5603L4.81309 41.1205C1.79774 38.6636 0.0108643 35.0228 0.0108643 31.2034C0.0108643 26.8479 2.28915 22.7827 6.1086 20.3481C8.4092 18.8516 11.1342 18.0476 13.9708 18.0476C21.6768 18.0476 27.9309 23.9442 27.9309 31.2034C27.9309 34.1517 26.8587 37.0554 24.8932 39.356C22.3692 42.416 18.5944 44.2029 14.4399 44.3369L8.98991 47.5756C8.49852 47.866 7.96246 48 7.4264 48ZM13.9485 21.3979C11.7596 21.3979 9.65997 22.001 7.89543 23.1624C5.03643 24.994 3.33892 27.987 3.33892 31.2034C3.33892 34.3081 4.85778 37.1447 7.5381 38.9763C8.05182 39.3337 8.31983 39.9367 8.25282 40.5621L7.76144 44.3816L13.0997 41.2099C13.3678 41.0535 13.6581 40.9642 13.9485 40.9642C17.2319 40.9642 20.3366 39.557 22.3022 37.1671C23.7764 35.4249 24.5581 33.37 24.5581 31.181C24.5581 25.7981 19.8006 21.3979 13.9485 21.3979Z" fill="#AFACAF"/>
</svg>
