<svg width="48" height="44" viewBox="0 0 48 44" fill="none" xmlns="http://www.w3.org/2000/svg">
<path d="M24 43.0884C23.3079 43.0884 22.6381 42.9991 22.08 42.7981C13.5516 39.8735 0 29.4921 0 14.1544C0 6.34046 6.31814 0 14.0874 0C17.8605 0 21.3879 1.47349 24 4.10791C26.6121 1.47349 30.1395 0 33.9126 0C41.6819 0 48 6.36279 48 14.1544C48 29.5144 34.4484 39.8735 25.92 42.7981C25.3619 42.9991 24.6921 43.0884 24 43.0884ZM14.0874 3.34884C8.17116 3.34884 3.34884 8.19349 3.34884 14.1544C3.34884 29.4028 18.0167 37.8865 23.174 39.6502C23.5758 39.7842 24.4465 39.7842 24.8484 39.6502C29.9833 37.8865 44.6735 29.4251 44.6735 14.1544C44.6735 8.19349 39.8512 3.34884 33.9349 3.34884C30.5414 3.34884 27.3935 4.93395 25.3619 7.68C24.7367 8.52837 23.3079 8.52837 22.6828 7.68C20.6065 4.91163 17.4809 3.34884 14.0874 3.34884Z" fill="#AFACAF"/>
</svg>
